<?xml version="1.0" encoding="UTF-8"?>
<svg enable-background="new 0 0 357 208.2" version="1.1" viewBox="0 0 357 208.2" xml:space="preserve" xmlns="http://www.w3.org/2000/svg">
<style type="text/css">
	.st0{fill:#FFFFFF;}
	.st1{fill:#EF3232;}
</style>
	<path class="st0" d="m199.9 68h6.1c-0.2 0.3-0.4 1.1-0.6 1.3s-1.3 0.1-1.7 0.1c-1.4 0.2-2.7 0.7-4.1 0.8-0.7 0-1.6 0.2-2.2 0.6-0.5 0.2-0.4 0.5-0.7 1-0.2 0.5-0.6 0.7-1 1.1-2.2 2-4.2 4.3-6.4 6.3-2 1.8-4.3 3.5-6.6 4.8-4.8 2.8-10.4 4.6-15.6 1.8-2.2-1.2-4.3-3.2-5.6-5.3-0.4-0.5-0.5-1.2-0.9-1.7-0.3-0.4 0.1-0.2-0.5-0.3-0.3 0-0.8 0.1-1.1 0.1-1.4 0.1-2.8 0.4-4.2 0.7-2.6 0.5-5.1 1.3-7.7 2-1.4 0.4-2.8 0.6-4.2 0.9-1.5 0.3-2.9 0.9-4.3 1.4-1.2 0.4-2.4 0.9-3.6 1.3-1.3 0.4-2.6-0.1-3.8 0.7-1 0.6-2 0.8-3.1 1.1-1.4 0.4-2.8 0.7-4.2 1.1-2.8 0.8-5.6 1.8-8.4 2.7-0.6 0.2-1.2 0.3-1.6 0.7s-0.8 0.8-1.3 1.1c-1 0.7-2.3 1-3.5 1.1-0.5 0-1-0.1-1.5 0-0.6 0.1-1 0.5-1.6 0.4-0.4-0.1-0.8-0.3-1.2-0.4-0.5-0.3-1.3-0.9-1.9-0.9-0.3 0-0.9 0.2-1.2 0.2-0.3 0.1-0.7 0.2-1 0.2-0.5 0-0.4 0.1-0.7-0.3s-0.7-0.8-0.8-1.3c-0.1-0.6-0.1-1.5 0.1-2 0.3-1.1 1.2-1.6 2.2-2 1.5-0.6 3-1.2 4.5-1.7 1.6-0.6 3.2-1.1 4.8-1.6 0.3-0.1 0.7-0.1 1-0.3 0.2-0.1 0.3-0.4 0.5-0.5 0.5-0.3 1.2-0.4 1.7-0.5 1.6-0.5 3.2-0.8 4.8-1.4 0.7-0.2 1.3-0.6 2-0.8 0.8-0.3 1.6-0.3 2.4-0.6 1.5-0.4 2.8-0.9 4.3-1.1 1.4-0.2 2.6-1 4-1.3-0.3-0.4-0.6-0.8-0.8-1.2s-0.2-0.6-0.2-1.1c0-0.4-0.1-0.7 0-1.1 0-0.2 0.1-0.4 0.1-0.6 0.2-0.5 0.4-0.3 0.2-0.9-0.3-1-0.9-1.6-0.7-2.7s0.7-2.3 1.1-3.3c0.3-1 0.8-2 1-3 0.2-0.8 0.7-1.4 1-2.2 0.3-0.9 0.4-1.8 0.7-2.7 0.3-0.8 0.8-1.4 0.9-2.2 0.1-0.6 0-0.6 0.3-1.1 0.2-0.3 0.5-0.6 0.6-1 0.3-0.7 0.5-1.6 0.7-2.3 0.6-2 1.5-3.9 2.3-5.8 0.4-0.9 0.7-1.8 1-2.7 0.3-1 0.7-1.8 1.2-2.7 1-1.7 1.2-3.6 2.2-5.3 1.1-2 1.7-4.1 2.6-6.2 0.4-1 1-1.9 1.4-2.8 0.4-1 0.8-2.1 1.2-3.1-0.9 0.7-1.8 1.4-2.6 2.1-0.4 0.3-0.7 0.6-1.1 0.9s-0.9 1-1.4 1.1c-0.4 0.1-1.3-0.2-1.7-0.3-0.3-0.1-1.2-0.3-1.5-0.2-0.4 0.1-0.8 0.8-1.1 1.1-0.5 0.5-0.7 0.8-1.4 0.8-0.9 0-1.6-0.4-2.3-0.8-0.5-0.3-1.8-0.9-1.9-1.5-0.2-0.7 0.8-1.8 1.3-2.2 0.9-0.7 1.9-1.4 2.7-2.1 1.8-1.4 3.5-2.9 5.3-4.2 1.7-1.2 3.5-2.4 5.1-3.8 1.5-1.2 3.2-2.2 4.8-3.3 0.8-0.6 1.6-1.2 2.3-1.9 0.2-0.2 0.7-1 0.9-1 0.3-0.1 1.1 0.6 1.3 0.7 0.5 0.3 0.6 0.3 1.2 0.2 0.6-0.2 0.7 0 1 0.6 0.4 0.8 0.4 1.7 0.6 2.6 0.1 0.4 0.1 0.9 0.3 1.2 0.3 0.4 0.8 0.8 1.1 1.1 0.4 0.3 0.7 0.7 1.1 1l0.6 0.5c0 0.1-0.6 0.6-0.6 0.7-0.4 0.4-0.4 0.4 0 0.9 0.2 0.2 0.4 0.5 0.8 0.6 0.5 0.2 0.6 0 1 0.3s1 0.9 1.3 1.4 0.2 0.1 0 0.6c-0.1 0.2-0.3 0.5-0.4 0.7-0.3 0.5-0.7 1.1-1 1.7-0.5 0.9-1.1 1.8-1.7 2.6-0.6 0.9-1.1 1.8-1.5 2.8-0.5 0.9-1.2 1.7-1.7 2.6-1.1 1.9-2.1 3.9-3.1 5.8-1 2-1.9 4-2.9 6-1.1 2.1-2.1 4.2-3 6.4s-2.4 4.2-2.9 6.5c-0.3 1.1-1 1.9-1.4 2.9-0.5 1.1-0.9 2.2-1.4 3.3-0.5 1.2-1.1 2.3-1.7 3.5-0.5 1.2-0.9 2.4-1.5 3.6-0.5 1-1.1 2-1.5 3-0.4 1.1-0.7 2.5-1.5 3.3 1 0 1.5 0 2.4-0.3 0.9-0.4 1.9-0.5 2.8-0.6 0.8-0.1 1.5-0.4 2.2-0.6 0.8-0.2 1.7 0 2.5-0.2 0.9-0.2 1.6-0.5 2.5-0.6 0.7-0.1 1.3-0.5 2.1-0.7s1.7-0.3 2.5-0.6c0.9-0.3 1.6-0.2 2.6-0.2v-9.6c-0.4 0.1-0.9 0.2-1.2 0.2-0.4 0-0.5-0.1-0.8-0.4-0.7-0.7-0.5-1.7-0.4-2.6 0.1-1 0.4-1.9 0.6-2.8 0.2-0.8 0.1-1.6 0.4-2.5 1.4-4 2.7-8 4.3-11.9 3.2-7.5 7.2-14.7 11.8-21.4 1.1-1.6 2.5-2.9 3.6-4.4 1.2-1.5 2.3-2.9 3.6-4.2 1.1-1 2.4-3 4-3.2 0.7-0.1 1.5 0.2 1.9 0.7 0.2 0.3 0.4 0.7 0.3 0.9 0 0.3-0.5 0.7 0.2 0.6 0.3-0.1 0.8-0.6 1-0.8 0.4-0.3 0.8-0.6 1.1-0.9 0.7-0.6 1.4-1.3 2.1-1.8 1.5-1 3.2-2.1 4.8-2.9 3.1-1.3 7.4-1 10.2 0.8 1.8 1.1 3.3 2.7 4.5 4.4 0.6 0.8 0.8 1.7 1.3 2.6 0.4 0.9 1 1.5 1.2 2.5 0.2 0.8 0.6 1.5 0.7 2.3 0.1 1.2 0.1 2.4 0.4 3.5 0.2 1.1 0.1 1.7-0.3 2.7-0.3 0.7-0.1 1.6-0.1 2.3 0.7-1.3 1.7-2.4 2.8-3.4 0.4-0.4 0.9-0.7 1.4-1 0.6-0.4 1.3-0.6 1.8-1.1 1.2-1.2 2-2.8 3.1-4.1 1-1.2 2.1-2.3 3.2-3.3 2.4-2.3 4.7-4.7 7.5-6.7 1.3-0.9 2.6-1.8 4.1-2.6 1.4-0.7 2.7-1.6 4.3-2.1 0.7-0.2 1.4-0.4 2-0.7 0.4-0.2 0.5-0.3 0.9-0.3s0.7-0.1 1.1-0.2c1.6-0.3 3.2-0.5 4.8-0.4 1.5 0.1 3.1 0.6 4.4 1.3 0.5 0.2 0.9 0.4 1.4 0.6 0.7 0.3 1.1 0.8 1.6 1.4 1 1 2.1 2 2.7 3.3s0.9 2.8 1.4 4.2c0.3 0.7 0.6 1.5 0.6 2.3 0 0.9 0 1.6 0.3 2.4 0.5 1.6 0.3 3.3 0.2 4.9-0.2 1.8-0.3 3.5-0.7 5.3-0.4 1.6-0.5 3.1-1 4.7-0.5 1.5-0.5 3-1 4.5l-1.8 4.8c-2.3 6.3-5.2 12.4-8.7 18.1-1.7 2.9-3.7 5.5-5.8 8.1s-4.3 5-7 6.9c-1.3 0.9-2.8 1.4-4.2 2.1-1.3 0.7-2 1.9-3.1 2.8-2.2 1.8-5.1 3.1-8 3.1-1.4 0-2.6-0.7-3.9-1.3-1.4-0.7-2.4-1.6-3.2-2.9-0.4-0.7-0.8-1.4-1.1-2.2-0.3-0.7-0.3-1.6-0.6-2.2-0.5-1-1.9-1.6-2.7-2.4-1.8-1.9-2.6-4.5-3.1-7-0.7-3.2-0.8-6.7-0.5-10 0.1-0.6 0.2-1.3 0.4-1.8 0.2-0.3 0.5-0.7 0.4-1-0.1-0.2-0.5-0.5-0.7-0.6-0.5 1.4-1.6 3.2-1.5 4.7 0 1.6 0.1 3.5-0.6 5-0.7 1.6-1.6 3.2-2.4 4.7-0.2 1.6-1.4 2.8-1.9 4.5 2 0 0.5-1.8 0 0zm-21.9-36.1c0.6 0 0.2-0.4 0.4-0.7 0.1-0.3 0.8-0.8 1.1-1.1 0.9-1.2 1.8-2.3 2.8-3.5 0.8-1 1.6-1.9 2.5-2.8 0.9-1 1.5-2.2 2.4-3.2 0.7-0.8 1.5-1.8 2.5-2.3 0.5-0.2 0.9-0.3 1.4-0.3 0.1 0 0.8 0 0.9 0.2 0.1 0.1 0 0.9 0 1.1-0.1 0.9-1.8 2.1-2.4 2.8-0.9 1-1.7 2.1-2.5 3.2-1.6 2.3-3.2 4.5-4.6 6.9-1.3 2.3-2.8 4.4-4.1 6.6-0.6 1.1-1.2 2.1-1.7 3.2-0.3 0.6-0.7 1.2-1 1.7s-0.3 1.1-0.6 1.7c-0.2 0.5-0.7 1-1 1.5s-0.5 1-0.7 1.5c-0.5 1.2-0.8 2.3-1.2 3.5-0.2 0.6-0.4 1.3-0.7 1.9s-0.7 1.2-0.8 1.8c-0.3 1.4-0.7 2.8-1 4.2-0.3 1.5-0.6 3.1-0.8 4.6-0.2 1.6 0 3.2 0 4.9 1.1-0.4 2.2-0.4 3.3-0.7 1.3-0.3 2.5-0.4 3.8-0.6s2.6-0.3 4-0.4c0.5 0 1.6-0.3 1.9 0 0.4 0.3 0.7 1.3 0.9 1.7-2.6 1.5-5.8 1.5-8.7 1.9 0.8 0.3 1.6 0.6 2.4 0.3 0.4-0.1 0.8-0.3 1.2-0.3h1.3c0.8-0.1 1.4-0.5 2.3-0.5s1.5 0.1 2.2-0.5c1.6-1.4 3-3 4.3-4.7 4.5-5.7 8-12.3 10.4-19.2 0.2 0.1 0.8 0.3 1 0.5s0.3 0.6 0.3 0.8c0.3 0.6 0.1 1.1-0.2 1.8-0.5 1.1-1.2 2.1-1.5 3.3-0.4 1.1-0.6 2.3-1.2 3.4-0.3 0.5-0.6 0.9-0.9 1.4-0.4 0.6-0.3 0.9-0.3 1.6 1.1-1 1.6-2.4 2.3-3.6 0.9-1.6 1.9-3.1 2.6-4.8 0.3-0.6 0.3-1.2 0.7-1.7 0.4-0.8 1-1.4 1.4-2.2 0.3-0.7 0.8-1.3 1-2 0.2-0.6 0.1-1.2 0.5-1.7 0.2-0.4 0.6-0.7 0.7-1.1 0.1-0.3 0-0.5 0.1-0.8l0.6-1.2c0.6-1.4 0.8-2.9 1.3-4.4 1.1-3.3 1.7-6.6 2.3-10 0.3-2 0.1-4.2-0.1-6.1-0.1-0.8-0.2-1.7-0.4-2.5-0.2-0.7-0.3-1.4-0.6-2-0.3-0.8-0.9-1.4-1.3-2.2-0.3-0.7-0.7-1.4-1.2-2-0.5-0.5-1.2-0.9-1.8-1.3-1.3-0.9-2.9-1.1-4.4-0.7-1.5 0.5-3.2 1.1-4.5 2-1.4 1-2.7 2.2-3.9 3.4-2.9 2.9-5.6 5.8-7.9 9.2-1.1 1.6-2.1 3.2-3.2 4.8-0.4 0.7-0.9 1.3-1.1 2.1-0.1 0.2-0.1 0.5-0.2 0.6s-0.3 0.1-0.3 0.3 0.1 0.4 0 0.7c-0.1-0.1-0.5 0.2-0.3 0.4 0.2-0.2 0.3-0.3 0.3-0.4 0.7-0.1 0 0.1 0 0zm60.4 26.4c0.8 0.6 2.4-2.4 2.8-3 0.8-1.2 1.8-2.3 2.6-3.6 0.4-0.6 0.7-1.3 1-1.9 0.4-0.6 0.8-1.2 1.1-1.9 0.8-1.4 1.7-2.8 2.4-4.3s1.3-3 1.9-4.6c0.6-1.5 1.4-3 1.9-4.5s0.7-3.2 1-4.8c0.3-1.7 0.8-3.3 1.2-5 0.4-1.6 0.5-3.4 0.7-5.1s0-3.5-0.4-5.1c-0.6-2.5-1.3-5.5-3.5-7.1-0.5-0.4-1.1-0.4-1.7-0.6-0.8-0.3-1.3-0.3-2.1 0-0.5 0.2-1.3 0.2-2 0.4-0.8 0.2-1.5 0.5-2.2 1-2.9 1.7-5.4 3.8-7.6 6.4-1.1 1.3-2.3 2.6-3.4 4-1 1.3-1.7 2.6-2.7 3.9-0.9 1.3-1.6 2.7-2.4 4.1-0.7 1.4-1.6 2.7-2.2 4.2-0.3 0.7-0.6 1.4-0.7 2.2v1c0.1 0.5 0.3 0.8 0.2 1.3-0.2 0.6-0.9 1.2-1.2 1.8-0.4 0.7-0.5 1.6-0.8 2.3-0.5 1.5-0.8 3-1.4 4.5-0.2 0.6-0.5 1.2-0.7 1.9-0.1 0.3-0.1 0.6-0.1 0.9 0 0.5-0.2 0.8-0.3 1.3-0.5 1.4-0.6 3.1-0.8 4.6-0.2 1.6-0.2 3.3-0.2 5s0.4 3.4 0.9 5c0.6 1.6 1.7 2.4 3 3.5 0.7 0.5 1 0.6 1.9 0.6 0.6 0 1.2-0.1 1.8-0.2 1.1-0.2 2.1-0.8 2.9-1.5 1.1-1 2.1-2.1 3-3.3 1-1.2 2.1-2.4 3-3.8 0.8-1.3 1.4-2.7 2.4-3.9 1-1.3 1.4-2.8 2.2-4.2 0.7-1.4 1.3-2.8 2-4.2 0.4-0.8 0.7-1.5 1.1-2.3 0.3-0.7 0.6-2 1.2-2.5 0.2-0.2 0.5-0.2 0.9-0.2 0.6 0 0.6-0.1 0.8 0.3 0.2 0.2 0.2 0.6 0.3 0.9 0.2 0.6 0.1 0.7-0.1 1.2-0.7 1.6-1.5 3.1-2 4.7-1 2.8-2.4 5.5-3.9 8.1-0.7 1.3-1.5 2.6-2.1 4 0.4-0.8 0.5-0.7 0.3-1.5-0.1 0.1-0.1 0.3-0.1 0.4 0-0.1 0.1-0.2 0.1-0.4 0.1 0.1-0.2 0.6 0 0zm-65.9 20.3c2.5-1.3 5.2-2.6 7.2-4.7-1 0.2-2.1 0.3-3.1 0.6-1.3 0.3-2.5 0.8-3.8 0.9-0.6 0-1 0.2-1.5 0.3s-0.8-0.1-1 0.3c-0.6 1.2 1.5 2.1 2.2 2.6 1.4-0.7-0.8-0.6 0 0zm50.8-0.6c0.6-0.3 1.1-0.7 1.7-1 0.5-0.3 1-0.4 0.9-1-1.6 0.5-3.6 0.2-5.2-0.2-1.4-0.4-2.5-1.3-4-1.4 1.1 1 2.1 1.9 3.2 2.9 0.6 0.5 0.8 0.8 1.5 0.8 0.7-0.1 1.3-0.1 1.9-0.1 1-0.6-0.7 0 0 0z"/>
	<path class="st1" d="m212.4 175.7c0.8-0.2 1.5-0.1 2.3-0.2s1.4-0.5 2.3-0.5c0.8 0 1.4-0.2 2.2-0.4s1.6-0.2 2.4-0.3c1.8-0.2 3.6-0.8 5.5-0.9 0.8-0.1 1.5 0 2.2-0.3 0.8-0.3 1.5 0 2.3-0.1 0.7-0.1 1.2-0.4 2-0.4s1.5-0.4 2.3-0.5c1.9-0.1 3.6-0.4 5.4-0.8s3.6-0.6 5.4-0.9c0.7-0.1 1.4 0.1 2.1-0.1 0.4-0.1 0.6-0.4 0.9-0.5s0.9 0 1.3 0c1-0.1 2.1-0.1 3.1-0.2s1.9-0.5 2.9-0.6c2.1-0.2 4.2 0.1 6.3-0.1-0.4 0.3-0.7 0.8-1.1 1.1-0.5 0.3-1 0.2-1.6 0.3-1.3 0.2-2.5 0.3-3.7 0.5s-2.3 0.8-3.5 1c-0.5 0.1-1 0-1.6 0.1s-1.1 0.4-1.6 0.5c-0.6 0.1-1.4 0.1-2 0.2l-1.8 0.3c-1.4 0.3-2.7 0.4-4.1 0.6-2.6 0.5-5.1 1.4-7.7 1.7-2.6 0.2-5.3 0.7-7.8 1.3-1.2 0.3-2.3 0.9-3.5 1-1.4 0.2-2.8 0.3-4.2 0.5-1.3 0.2-2.5 0.4-3.8 0.6-1.4 0.2-2.6 0.6-4 0.9-2.5 0.6-4.9 0.9-7.4 1.4-1.5 0.3-3 0.5-4.5 0.8s-2.9 0.9-4.4 1.2c-0.7 0.1-1.4 0.1-2 0.4-0.7 0.3-0.7 0.7-0.7 1.4v0.7c0.1 0.3 0 0.5-0.4 0.4-0.2 0-0.5 0.1-0.7 0.1-0.8 0.1-1.5 0.3-2.3 0.4 0-0.6 0.1-1.2 0-1.8-0.1-0.5 0-0.3-0.3-0.4s-0.7-0.1-1 0c-0.5 0.1-0.8 0.3-1.3 0.5s-0.8 0.1-1.3 0.1c-0.3 0.1-0.6 0.3-0.9 0.4-0.1 0-0.3-0.1-0.4-0.1s-0.3 0.2-0.4 0.3c-0.4 0.2-0.8 0-1.2 0-0.5 0.1-0.9 0.3-1.5 0.4-2.4 0.4-4.8 0.9-7.2 1.4-1.3 0.3-2.5 0.6-3.7 0.9-1.2 0.4-2.4 0.5-3.6 0.7s-2.4 0.5-3.6 0.7c-1.2 0.3-2.7 0.4-3.8 0.8-2 0.9-4.2 0.9-6.3 1.6-0.5 0.2-1 0.4-1.6 0.4-0.5 0-1 0-1.5 0.2-1 0.4-2.1 0.7-3.2 1.1-0.5 0.2-1 0.4-1.5 0.5-0.4 0-0.8-0.1-1.2 0-0.3 0.1-0.4 0.3-0.7 0.4-0.2 0.1-0.6 0.1-0.8 0.1-0.7 0.1-1.4 0.2-2.1 0.4-0.7 0.1-1.4 0.2-2.1 0.4-0.7 0.1-1.2 0.4-1.9 0.7-1.2 0.5-2.6 0.7-3.9 1s-2.7 0.5-4 0.8c-1 0.2-2.5 0.5-3.3 1.1-3.9 0.9-7.9 1.6-11.7 2.9-1.8 0.6-3.7 0.9-5.6 1.4-0.5 0.1-0.9 0.3-1.4 0.4-0.2 0.1-0.5 0.2-0.7 0.3-0.1 0-0.2-0.1-0.3-0.1-0.4 0.2-0.4 0.7-0.7 0.9-0.1 0.1-0.2 0-0.3 0-0.1 0.1-0.3 0.2-0.5 0.3l-1.2 0.6c-0.9 0.4-1.8 0.6-2.7 0.8s-1.7 0.6-2.6 0.8c-1 0.2-2 0.1-3 0.2-0.9 0.2-1.7 0.4-2.7 0.4-0.5 0-1 0-1.6-0.1-0.4-0.1-1.5-0.2-1.8-0.5-0.1-0.1 0-0.5-0.1-0.6s-0.4-0.1-0.5-0.1c-0.5-0.1-0.9-0.1-1.4 0-1 0.1-1.8 0.6-2.7 0.8-0.7 0.2-1.5 0.1-2.1-0.3-0.3-0.2-0.6-0.4-0.9-0.7-0.4-0.4-0.5-0.6-0.4-1.1 0.2-1.4 0.9-2.7 2.1-3.5 1.4-1 3.4-1.3 5.1-1.8 0.9-0.3 1.9-0.4 2.8-0.7s1.7-0.8 2.7-1.1c2-0.6 4.1-1.1 6.2-1.7 2-0.5 3.8-1.3 5.8-1.8 1.9-0.5 4-0.6 5.8-1.5 1.9-0.8 4-1.1 6-1.6 2.1-0.5 4.2-1.1 6.3-1.6 0.9-0.3 1.9-0.6 2.8-0.8 0.5-0.1 1.1 0 1.5-0.1 0.1 0 0.2-0.3 0.3-0.3 0.2-0.1 0.4-0.1 0.6-0.1 0.3 0 0.5 0 0.8-0.1s0.5-0.3 0.8-0.4 0.7 0 1 0c0.5 0 0.7-0.3 1.2-0.5 0.8-0.4 1.6-0.3 2.5-0.4s1.6-0.6 2.5-0.7 1.7-0.4 2.6-0.5c1-0.2 2-0.3 3-0.5 0.9-0.2 1.7-0.7 2.7-1 0.9-0.2 1.8-0.4 2.8-0.6 2-0.5 4.1-0.8 6.1-1.2 0.5-0.1 1-0.1 1.4-0.2 0.3-0.1 0.6-0.4 1-0.5 0.8-0.2 1.5-0.2 2.3-0.5 0.9-0.4 1.6-0.2 2.6-0.3 0.4 0 0.8-0.3 1.3-0.4 0.4-0.1 0.9 0 1.3-0.1 1.6-0.5 3.3-0.5 4.9-1 4-1.3 8.2-1.6 12.3-2.4 2-0.4 3.8-1.1 5.9-1.2 0.3 0 1.2 0.1 1.5-0.1 0.2-0.1 0.4-0.6 0.5-0.8 0.3-0.5 0.5-0.6 0.4-1.3-0.1-0.5 0-1.1 0-1.6 0.1-1 0.3-1.9 0.4-2.9s0.1-1.9 0.3-2.9c0.1-0.4 0.2-2.6-0.6-1.6-0.4 0.6-0.6 2.1-0.6 2.8 0 1.2 1 4.5-1.1 4.5-0.5 0-1-0.2-1.5-0.2-0.2 0-0.5 0-0.7-0.1-0.6-0.2-0.2 0-0.5-0.4-0.4-0.7-0.6-1.8-0.8-2.6-0.2-1-0.2-2-0.3-3.1s-0.2-2.3-0.3-3.4c-0.1-2.1 0-4.3 0-6.4 0-4.3 0.5-8.7 0.4-13-0.1-2.1 0.3-4.2 0.4-6.4 0-1 0.1-1.9 0.2-2.9 0.1-1.1 0.1-2.2 0.2-3.4 0.1-0.9 0.4-1.7 0.4-2.6 0.1-1 0-2 0.2-3-0.8 0.5-1.2 0.5-2.1 0.6-1 0.1-2 0.4-2.9 0.7-1.9 0.6-3.7 1.4-5.6 2.1-3.9 1.3-7.8 2.5-11.6 4-1.7 0.6-3.3 1.5-5 1.9-0.8 0.2-1.4 0.4-2.1 0.9s-1.5 0.8-2.3 1.2c-1.8 0.8-3.7 1.4-5.4 2.3s-3.4 1.9-5 2.8c-0.9 0.5-1.8 0.8-2.7 1.3l-2.4 1.5c-0.9 0.6-1.9 1-2.8 1.6-0.8 0.5-1.9 0.9-2.2 1.9 1.7-0.5 3.2-1.4 4.9-1.9s3.4-0.8 5-1.4c3.4-1.3 7-2.2 10.5-3.4 1.8-0.6 3.6-1.2 5.5-1.6 1.7-0.4 3.3-1.1 5-1.5 3.5-0.8 7.1-1.5 10.6-2.4 0.4-0.1 0.7-0.3 1-0.4 0.4-0.2 1-0.1 1.4-0.2 0.5-0.1 1-0.1 1.5-0.2 0.4 0 1.1-0.3 1.5-0.2 0.6 0.2 0.9 1.4 0.9 2 0 0.8-0.1 1.7 0.4 2.5-0.8 0.5-1.6 1-2.5 1.4s-1.9 0.6-2.8 0.9c-2 0.6-4 1.1-6 1.6s-3.9 1.5-5.9 1.9c-1 0.2-1.9 0.4-2.8 0.7-1 0.3-2 0.4-3 0.7-4.2 1.3-8.4 2.6-12.6 4-2.1 0.7-4.2 1.4-6.3 2.2-2 0.7-4 1.3-5.9 2-0.8 0.3-1.4 0.7-2.1 1.1-0.4 0.2-0.8 0.3-1.2 0.4-0.5 0.2-0.7 0.4-1.2 0.8-1.3 1.2-3.2 2.1-4.8 2.8s-3.5 1.3-5.3 1.4c-0.7 0-1.4-0.1-2.1-0.5-0.3-0.2-0.7-0.5-0.8-0.9-0.2-0.5 0.1-0.8 0.4-1.1 0.5-0.5 1-1.1 1.5-1.4 0.1-0.1 0.4-0.2 0.5-0.3 0.3-0.3 0.2 0.2 0.2-0.4 0-0.5-0.4-0.9-0.4-1.4 0-0.2 0.3-0.6 0.4-0.8 0.3-0.4 0.5-0.4 1-0.6 0.8-0.4 1.6-0.9 2.3-1.3s1.3-0.8 2.1-1.1c0.4-0.2 0.8-0.2 1.2-0.4 0.5-0.2 1-0.7 1.4-1 1.7-1.4 3.5-2.7 5.3-4 1.9-1.4 3.8-2.7 5.8-3.9s3.9-2.6 6-3.7c1-0.5 2.1-1 3.1-1.5 0.9-0.4 1.7-1 2.6-1.4 1-0.5 2-0.7 3-1 0.4-0.1 0.5-0.5 0.8-0.7 0.4-0.2 1.2-0.1 1.7-0.2-0.2-0.3-0.3-0.6-0.5-0.9-0.3 0.3-0.6 0.5-0.9 0.8-0.4 0.4-0.6 0.4-1.2 0.5-1.2 0.2-2.3 0.6-3.5 0.9-2.2 0.7-4.4 1.6-6.6 2.3-1 0.3-2.1 0.4-3 0.8-1.1 0.4-2.2 0.9-3.4 1.3-1 0.3-2 0.6-3 0.6-1.1 0.1-2.3-0.1-3.4 0-0.7 0-0.8 0-1.1-0.6-0.2-0.5-0.3-0.7 0.1-1.1 0.5-0.6 1.2-0.9 1.9-1.3 0.2-0.1 0.7-0.3 0.8-0.5 0.3-0.6-0.3-1.1 0.2-1.5 0.6-0.5 1.5-0.4 2.2-1 0.5-0.5 0.2-0.6-0.2-1.1s-0.3-0.7 0.1-1.2c0.5-0.7 1.2-1 2-1.3 2.2-0.8 4.4-1.3 6.6-2.1 4.3-1.4 8.4-3.2 12.7-4.3 4.5-1.2 8.8-2.9 13.2-4.4 2.1-0.7 4.2-1.5 6.3-1.9 1.7-0.3 3.3 0.3 5 0.1 1.1-0.2 2.2-0.6 3.3-0.7 0.5-0.1 1-0.1 1.5-0.2s1.7-0.1 2.1-0.4c0.5-0.3 0.2-2.2 0.2-2.8 0.1-0.8 0.1-2.6 0.7-3.2 0.4-0.4 1.1-0.5 1.5-0.8 0.5-0.4 0.2-0.7 0.3-1.3 0.1-0.5 0.4-0.8 0.8-1.2 0.3-0.2 0.3-0.3 0.7-0.3 0.3 0 0.8 0.1 1 0 0.3-0.2 0.2-0.7 0.2-1 0-0.5 0.1-0.9 0.3-1.4s0.2-0.9 0.3-1.5 0.3-1.1 0.4-1.6c0.1-1 0.4-1.8 0.8-2.8s1.1-1.8 1.6-2.8c0.2-0.4 0.4-0.8 0.5-1.2 0.1-0.3-0.1-1.5 0.1-1.7 0.1-0.2 1.2-0.3 1.5-0.4 0.2 0 0.5-0.2 0.7-0.2 0.5 0 0.6 0.1 1 0.4s1.1 0.6 1.2 1.1c0.1 0.4-0.2 1.1-0.3 1.6-0.2 1-0.2 2.1-0.4 3.1-0.2 1.1-0.6 2.1-0.9 3.1-0.2 0.7-0.2 0.1 0.1 0.5 0.1 0.2 0.5 0.3 0.7 0.5 0.6 0.4 0.4 0.7 0.4 1.4-0.1 1-0.2 1.8-0.5 2.8-0.3 0.9-0.1 1.8-0.5 2.6-0.1 0.3-0.2 0.4-0.3 0.8-0.1 0.2 0 0.6-0.1 0.8 0 0.5-0.1 1.1-0.1 1.6-0.1 1.3-0.2 2.6-0.4 3.9-0.2 0.9-0.1 1.7-0.2 2.6 0 0.5-0.3 0.7-0.5 1.2-0.1 0.4 0.1 1.1 0.1 1.6 0 2.3-0.5 4.5-0.5 6.7 0 1.2-0.4 2.3-0.4 3.4s0.1 2-0.2 3.1-0.3 2.3-0.2 3.5c0.1 1.1-0.1 2.2-0.3 3.3s-0.1 2.3-0.1 3.4v1.8c0 0.3-0.1 1.7 0.3 1.1 0.3-0.4 0.4-1.3 0.6-1.7 0.2-0.5 0.3-1 0.5-1.5 0.4-1.2 0.7-2.4 1-3.6 0.7-2.3 1.6-4.4 2.3-6.7 0.3-1 0.6-2.1 0.9-3.1 0.4-1.1 0.9-2.1 1.3-3.2 0.9-2.1 1.7-4.3 2.5-6.4 0.8-2 1.4-4.1 2.4-6.1 0.5-0.9 0.8-1.7 1.1-2.6 0.3-1 1-1.9 1.5-2.8 1-2 1.8-4 3.1-5.9 0.6-0.9 1.1-1.7 1.5-2.7 0.4-0.9 0.7-1.8 1.5-2.5 0.3-0.3 0.6-0.5 0.9-0.7 0.4-0.3 0.6-0.4 1.1-0.3 0.3 0.1 1.2 0.8 1.5 0.8 0.3-0.1 1-1.3 1.2-1.5 2.8-3.7 5.5-7.4 8.2-11.2 1.3-1.9 2.7-3.8 4.1-5.7 0.6 0.5 1.2 0.7 1.6-0.1 0 0.5 0.1 0.9 0.1 1.4s-0.1 0.7-0.4 1.2c-0.5 0.8-1.1 1.6-1.7 2.3-1.2 1.5-2.2 3.1-3.2 4.6-1.1 1.6-2.4 3.1-3.4 4.8-0.3 0.4-0.2 0.8-0.4 1.1-0.2 0-0.3 0-0.4 0.2-0.1 0.1-0.1 0.2-0.1 0.3v0.4c-0.2 0-0.3 0-0.4 0.2s0 0.5 0 0.7c-0.1-0.1-0.5 0.1-0.3 0.4 0.2-0.2 0.5-0.4 0.7-0.6 0.1-0.2 0.1-0.6 0.2-0.7 0 0 0.2-0.1 0.3-0.2s0-0.3 0-0.4c0.1-0.2 0-0.2 0.1-0.3 0.1-0.2 0.4-0.3 0.6-0.4 0.6-0.5 1-1.2 1.5-1.9s1.2-1.4 1.7-2.1c1.3-1.7 2.6-3.3 4-4.9 0.4-0.4 0.7-0.8 1.1-1.2 0.4-0.5 0.6-0.9 1.3-0.9 1 0 1.9-0.1 2.9 0.1 0.5 0.1 0.9 0.2 1.2 0.7 0.1 0.1 0.3 0.5 0.3 0.6 0.2 0.5 0.2 0.3 0 0.7-0.4 0.9-0.9 1.8-1.3 2.7-1 1.9-2.3 3.5-3.6 5.2-0.5 0.7-1 1.9-1.8 2.4-0.7 0.5-1.5 0.5-2.2 1-1.3 1-2.3 2.5-3.3 3.9-2.6 3.6-4.9 7.5-7.1 11.4-2.1 3.8-4.4 7.6-6.2 11.5-1.9 4-3.9 8.1-5.5 12.3-0.8 2-1.7 3.8-2.5 5.8-0.8 1.9-1.3 3.9-2 5.8-1.9 4.5-3.3 9.2-4.9 13.8-0.8 2.3-2 4.4-2.1 6.9v1.7c0 0.3 0 0.4 0.1 0.6 0.3 0.6 0.3 0.1 0.2 0.7-0.1 0.5-0.3 0.9-0.3 1.4s0.1 1 0 1.5c2.2-0.6 4.5-1.1 6.8-1.4 1.2-0.1 2.4-0.2 3.5-0.6 1.1-0.3 2.2-0.3 3.3-0.5 1-0.2 2.1-0.4 3.1-0.6 1.2-0.2 2.4-0.5 3.6-0.6 1.2-0.2 2.4-0.3 3.6-0.2 0.7 0 0.9 0.2 1.3 0.7 0.4 0.4 0.7 0.8 1.1 1.2-1.1 0.3-2.1 0.9-3.2 1.1s-2.1-0.1-3 0.5c-1 0.6-2.1 0.6-3.2 0.8-0.8-0.2-2-0.4-2.1 0.5-0.1-0.3-0.4-0.2-0.8-0.2s-1.1-0.1-1.5 0.1c-0.7 0.3 0 0.2 0.4 0.2 0.7 0 1.3 0 1.9-0.1 1.1-0.4-0.8 0.1 0 0zm-28.4-56.3c-0.2-0.2-0.7-0.8-0.7-0.1 0 0.4 0.4 0.7 0.7 0.9 0.7 0.5 1.5 0.8 1.8 1.7 0.1-0.5 0.2-0.9 0.3-1.4 0.1-0.3 0.3-1 0.3-1.2-0.4-0.9-1.9-0.1-2.4 0.1-0.2-0.2 0.7-0.3 0 0zm22.8 56.6c0.8 0.3 1.7 0.5 2.5 0h-2.5zm-50.2-43.7v-0.4c-0.3 0-1 0-1.2 0.3 0 0.2 1.1 0.1 1.2 0.1 0-0.1-0.4 0 0 0zm49.4 44.5c0.4 0 0-1 0 0 0.1 0 0-0.1 0 0z"/>
	<path class="st1" d="m328.6 117.6c-0.3 0.2-0.6 0.5-1 0.7-0.5 0.2-0.9 0.1-1.4 0.1s-1.2 0-1.6-0.2c-0.7-0.3-0.2-0.9 0-1.4-0.7-0.2-1.5 0.3-2.2 0.6s-1.4 0.6-2.1 0.8c-1.5 0.5-2.9 1.3-4.3 1.9-1.5 0.6-3 1.1-4.4 1.8-0.7 0.3-1.5 0.7-2.2 0.9s-1.4 0.2-2 0.8h5.8c1.7 0 3.5-0.2 5.2-0.1s3.4 0.5 5.1 0.5h5.3c0.8 0 1.7-0.1 2.5 0.2 0.7 0.2 1.2 0.3 1.9 0.3 0.9-0.1 1.6 0 2.4 0.2s1.7 0 2.5 0.2c1.5 0.3 3.3 0.4 4.8 1 0.8 0.3 1.5 0.9 2.1 1.5 0.1 0.1 0.8 0.7 0.8 0.9s-0.5 0.8-0.5 0.9c0.7 0.2 1.3 0.4 2 0.5 0.6 0.2 0.7 0.2 1 0.7 0.2 0.3 0.3 0.6 0.4 0.9 0.3 0.7 0.5 1.5 0.6 2.3 0.1 0.7 0.6 2 0.4 2.6-0.1 0.5-1.9 0.9-2.4 1.1-0.9 0.3-1.7 0.7-2.6 1-1.8 0.6-3.6 1.2-5.4 1.6 0.2 0.5 0.4 1.1 0.6 1.6 0.1 0.2 0.1 0.4 0.2 0.6 0.2 0.5 0.2 0.4 0 0.8-0.5 0.8-1.7 1.3-2.6 1.6-1 0.3-2 0.5-3 0.8-0.6 0.2-1.2 0.3-1.8 0.4-0.7 0.1-0.8 0.2-1.2 0.8-0.3 0.4-0.5 1.1-0.9 1.5-0.3 0.3-1.2 0.5-1.6 0.7-1.1 0.5-2.3 0.9-3.4 1.4-1.1 0.4-2.2 0.8-3.2 1.2-1.1 0.4-2 1-3.1 1.4-2.3 0.9-4.4 2.1-6.7 3-1 0.4-1.9 0.7-2.8 1.3-1 0.7-2 1.1-3.1 1.6-4.3 1.9-8.5 4.2-12.7 6.4-2.4 1.2-4.8 2.4-7.1 3.8-1.1 0.6-2.1 1.3-3.2 1.9-0.5 0.2-1 0.5-1.6 0.4-0.2 0-0.4-0.1-0.6-0.2-0.6-0.1-0.3-0.2-0.9 0.3 0-0.4 0-0.8-0.1-1.2-0.5 0.1-1 0.2-1.6 0.4-0.8 0.2-1 0.4-1.5-0.3-0.3-0.5-0.7-0.9-1-1.4-0.5-0.6-0.2-0.7 0.2-1.4h-1.4c-0.7 0-0.7 0-0.7-0.7v-2.9c0-0.4 0-0.6 0.2-0.9 0.3-0.3 0.8-0.6 1.1-0.8 0.6-0.4 1.5-0.6 2-1.1 0.5-0.4 0.7-0.9 1.3-1.3 0.7-0.5 1.3-1.1 1.9-1.8 1.4-1.4 2.8-2.9 4.2-4.3 2.4-2.4 4.8-4.7 6.9-7.2 0.6-0.7 1.3-1.4 1.9-2 0.5-0.5 0.7-1 1.1-1.5s1-0.7 1.7-0.8c0.6 0 0.6-0.1 1 0.3 0.3 0.3 0.5 0.9 0.7 1.3 0.6-0.6 1.3-1.1 1.9-1.7 0.2-0.2 0.6-0.7 0.9-0.8s0.5 0.1 0.8 0.3c0.2 0.1 0.8 0.3 0.9 0.5s0 0.9 0 1.1c0 0.8-0.3 1.2-0.8 1.9-1.8 2.4-3.9 4.7-6.1 6.7 0.8 0.2 1.3-0.2 2-0.6 0.8-0.4 1.7-0.8 2.5-1.3 1.7-0.8 3.4-1.7 5-2.5 3.4-1.7 6.7-3.4 10.1-5.1 6.8-3.4 13.7-6.9 20.5-10.3-1-0.1-2-0.3-3-0.5s-2.1-0.1-3.1-0.1c-2.4 0-4.9-0.3-7.3-0.4s-4.9 0-7.3 0.1c-2.4 0-4.9 0-7.3-0.1-2.3 0-4.5 0.6-6.9 0.4-2.3-0.2-4.6 0-6.8 0.4-2.1 0.4-4.1 0.3-6 1.2-0.9 0.4-1.8 0.6-2.8 0.6-0.5 0-1-0.1-1.5-0.2-0.4-0.1-1.4-0.2-1.7-0.4-0.6-0.4-0.6-2.7-0.7-3.5-0.1-0.7 0.2-0.7 0.7-1.2 0.3-0.3 0.6-0.7 1-1s0.8-0.5 1.1-0.8c0.4-0.3 0.5-0.6 0.8-1.1l0.9-1.8c0.1-0.1 0.3-0.5 0.3-0.5 0.1-0.1 0.5-0.1 0.2-0.4-0.3 0.4-0.2 0.3-0.6 0.3-0.2 0-0.4 0-0.7 0.1-0.5 0.1-1 0.4-1.5 0.6-1.2 0.6-2.4 1.1-3.7 1.5-1.2 0.4-2.3 0.7-3.5 1.2-0.5 0.2-1 0.3-1.4 0.5-0.6 0.3-1.2 0.7-1.8 1-1.1 0.5-2.2 0.8-3.4 1.2-1.3 0.5-2.5 1.1-3.8 1.5-2.5 0.9-4.7 2.2-7.2 3.2-1.1 0.4-2.1 1.2-3.2 1.7-1.2 0.6-2.3 1-3.5 1.6-2.3 1.1-4.5 2.4-6.7 3.6-1.1 0.6-2.1 1.1-3.2 1.6-1.2 0.6-2.2 1.5-3.3 2.2-1 0.6-2.1 0.9-3.1 1.5s-2 1.3-3 1.9c-0.6 0.3-1.3 0.4-1.8 0.8-0.5 0.3-0.8 0.8-1.3 1.1-1 0.6-2.1 1-3 1.6-1.2 0.9-2.4 1.6-3.6 2.4l-1.8 1.2c-0.4 0.3-1 0.7-1.3 1.1 1.5-0.2 2.8-0.8 4.1-1.4 1.5-0.7 3.1-1.2 4.6-1.7s2.9-1.2 4.3-1.7 2.9-0.7 4.3-1.2c0.6-0.2 1.2-0.6 1.7-0.9 0.7-0.3 1.4-0.5 2.1-0.7 1.5-0.5 3-1.3 4.5-1.6 1.3-0.3 2.5-1.1 3.8-1.3 0.6-0.1 1.2-0.3 1.8-0.6 0.7-0.3 1.5-0.5 2.2-0.7 3-1.1 6.1-2 9.1-3.1 1.6-0.5 3.2-1 4.9-1.5 1.4-0.4 3-0.5 4.3-1.1s2.7-0.7 4.1-1c0.7-0.1 1.4-0.1 2-0.1 0.7 0 1.3-0.4 2-0.3 0.4 0.1 0.8 0.5 1.2 0.5 0.3 0 0.4-0.1 0.7-0.3s0.5-0.2 0.9-0.2c0.6 0 0.9-0.3 1.4-0.4 0.8-0.1 1.5-0.2 2.2-0.4 0.3-0.1 0.9-0.5 1.2-0.5s0.8 0.5 1 0.7c0.2 0.1 1 0.5 1 0.7 0 0.1-0.1 0.6-0.1 0.7 0 0.4 0.3 0.9 0.1 1.3-0.3 0.6-1.4 0.6-2 0.7-3.5 0.8-6.8 2.2-10.3 3 0.3 0.4 0.7 0.8 0.9 1.2s0.2 0.8 0.2 1.3v1c0 0.6 0.1 0.4-0.4 0.7s-1.4 0.3-2 0.5c-2.5 0.6-5 1.3-7.5 2-4.7 1.3-9.5 2.5-14.3 3.9-4.9 1.4-9.6 3.2-14.5 4.8-2.3 0.8-4.5 1.7-6.7 2.8-2.1 1-4.3 1.7-6.3 2.8-2.3 1.3-4.7 2.5-6.8 4-0.5 0.3-1.1 1-1.7 1.2-0.4 0.1-0.1 0.2-0.5 0.1-0.2-0.1-0.6-0.4-0.8-0.5-0.1-0.1-0.5-0.3-0.6-0.4-0.3-0.1-0.4-0.3-0.2-0.6 0-0.1 0-0.2 0.1-0.3 0.2-0.7 0.3-1.4 0.5-2.1-0.4 0-0.8-0.1-1.2 0-0.4 0.2-0.8 0.5-1.2 0.8-0.8 0.5-1.7 1-2.5 1.6-0.7 0.5-1.7 1.3-2.5 1.5-1 0.2-2 0-2.5-0.9-1-1.8 1.8-3 3-3.7 0.8-0.5 1.7-1 2.4-1.6 0.8-0.6 1.6-1 1.9-1.9-0.6 0-1.4 0-2-0.1-0.5-0.1-0.4-0.2-0.6-0.7-0.1-0.4-0.3-0.9-0.2-1.2 0.2-0.5 1-1 1.4-1.4 0.5-0.5 1.1-1.1 1.7-1.5 0.5-0.4 1.2-0.7 1.7-1 0.6-0.4 1.2-1 1.8-1.4 1.2-0.9 2.4-1.6 3.7-2.4s2.5-1.5 3.7-2.4c1.1-0.8 2.4-1.4 3.6-2.2 2.4-1.7 5.2-3 7.8-4.5 1.7-1 3.5-1.9 5.2-2.9 0.8-0.5 1.7-0.9 2.5-1.4 0.7-0.4 1.5-0.7 2-1.4v0.2c0.3 0 0.9 0 1.1-0.1 0.4-0.3-0.2-0.3-0.5-0.3-0.8 0.1-1.6 0.5-2.4 0.7-1.5 0.4-3.1 0.8-4.7 1.3s-3 1.4-4.7 1.8-3.4 1.1-5.1 1.7c-3.6 1.2-7 2.6-10.6 3.7-1.6 0.5-3.2 1.1-4.8 1.6-0.8 0.3-1.5 0.7-2.3 0.8s-1.4-0.4-2.2-0.5c-0.4 0-0.9 0.1-1.2-0.2-0.2-0.2-0.4-0.9-0.4-1.2-0.1-0.7 0.6-1.3 1.2-1.6 0.6-0.4 1.3-0.8 1.9-1.1 0.8-0.4 1.7-0.6 2.4-1.3v0.2c0.4-0.1 0.9-0.1 1.3-0.2-0.5-0.6-1-0.1-1.5 0-0.7 0.2-2 0.3-2.5-0.2-0.6-0.6-0.1-1.1 0.2-1.8 0.3-0.6 0.7-1.2 1.1-1.7 0.9-1.2 2-1.4 3.4-1.8 1.6-0.5 3-1.3 4.6-1.9 3.2-1.3 6.3-2.7 9.6-3.6 1.3-0.4 2.5-1.2 3.8-1.5 0.7-0.2 1.4-0.3 2.1-0.6s1.4-0.7 2.2-0.8h0.8c0.3-0.1 0.6-0.4 0.8-0.5 0.7-0.4 1.5-0.7 2.3-0.9 1.5-0.4 3-0.8 4.5-1.3 0.7-0.2 1.2-0.7 1.9-0.9 0.7-0.3 1.5-0.4 2.3-0.7 1.5-0.6 3.1-0.9 4.7-1.4s3.1-1.2 4.8-1.6 3.2-1 4.9-1.5 3.3-1 4.9-1.6c0.8-0.3 1.5-0.4 2.3-0.5 0.9-0.1 1.7-0.4 2.5-0.7 1.8-0.7 3.6-1.3 5.5-1.7 0.9-0.2 1.9-0.2 2.8-0.4 0.8-0.2 1.5-0.8 2.3-0.8 0.4 0 0.9 0.2 1.3 0.3 0.3 0.1 1.4 0.3 1.5 0.5s-0.1 1-0.2 1.3c-0.1 0.4 0 1-0.2 1.4-0.1 0.3-0.5 0.5-0.8 0.8-0.2 0.1-0.4 0.3-0.6 0.4-0.3 0.3-0.2 0.1-0.1 0.6 0.2 1 0.8 2 1.2 3 0.7-0.4 1.3-0.9 2-1.3 0.8-0.4 1.6-0.5 2.3-1.1 1.5-1.2 3.4-1.7 5.2-2.4 1.8-0.6 3.5-1.7 5.4-2.2 2-0.5 3.9-1.5 5.9-2.1 0.9-0.3 1.8-0.4 2.7-0.7s1.8-0.7 2.6-1 1.6-0.4 2.3-0.8c0.5-0.2 0.7-0.4 1.2-0.5 0.6-0.1 1.2-0.1 1.8-0.3 2-0.5 4-1.4 6-2 2.1-0.6 4.2-1.1 6.3-1.7 0.9-0.2 1.8-0.6 2.5-1.2 0.7-0.7 1.2-1.6 1.9-2.3 0.3-0.3 0.7-0.6 0.8-1.1 0.2-0.5 0.2-1.1 0.4-1.7 0.3-1.3 0.5-2.5 0.8-3.8 0.5 1.5-0.1 2.9-0.3 4.4 0.7-0.7 1.4-1.4 2-2.2 0.6-0.9 1.3-1.7 2.2-2.4 0.4-0.4 0.9-0.7 1.4-1s0.9-0.3 1.5-0.3h1.7c0.4 0 0.6 0 1-0.2 0.2-0.2 0.4-0.5 0.6-0.7 0.4-0.2 1.3 0 1.7 0 0.3 0 0.7 0.1 1 0 0.6-0.1 0.2 0 0.5-0.3 0.4-0.4 0.4-1.1 0.8-1.5s0.1-0.2 0.5-0.3 0.9 0 1.3 0c0.3 0 0.7-0.1 1 0 0.6 0.1 0.3-0.1 0.4 0.4s-0.1 1.2-0.3 1.6c-0.4 1-1.1 1.9-1.7 2.8-0.7 0.9-1.3 1.9-1.9 2.7-0.3 0.4-0.8 0.7-1.1 1.1l-1.2 1.5c-0.7 0.9-1.3 1.9-2 2.7-0.4 0.5-0.8 0.9-1.1 1.4-0.1 0.2-0.2 0.6-0.3 0.7-0.2 0.3-0.5 0.5-0.7 0.7-0.7 0.7-1.3 1.5-1.8 2.4-0.7 1-1.5 1.9-2.2 2.9-1.5 2.2-3.2 4.3-4.7 6.5-0.5 0.6-0.9 1.3-1.3 1.9s-0.6 1-1.3 1.2c-0.5 0.1-0.5 0.2-0.9-0.1-0.2-0.2-0.3-0.7-0.5-0.8-0.4-0.2-1.3 0-1.7-0.1-0.8-0.1-1.7-0.2-2.4-0.6-0.5-0.3-0.6-0.3-0.3-0.8 0.4-0.7 0.7-1.1 0.6-1.7 0.1 0.1 0.5-0.1 0.3-0.4-0.1 0.1-0.2 0.3-0.3 0.4-0.3 0.2 0.1-0.1 0 0z"/>
	<path class="st1" d="m42.8 187.7c-0.8 0.1-1.1 0.3-1.7 0.7 0-1.1-0.1-2.2-0.1-3.3-0.2 0.5-0.6 0.9-0.8 1.4s-0.2 0.8-0.3 1.3c-0.2 0.7-0.9 1-1.1 1.7-0.4 1.1-0.6 2.2-1.2 3.2-0.5 0.9-0.9 1.9-1.5 2.8-0.3 0.4-0.7 0.9-1.1 1.1-0.5 0.3-1.1 0.3-1.6 0.2-1.2-0.1-1.1-1.4-0.9-2.4 0.1-0.6 0.3-1.1 0.5-1.7 0.1-0.2 0.3-0.6 0.3-0.8-0.1-0.4-0.4-0.2-0.3-0.5 0-0.3 0.5-0.9 0.6-1.2 0.2-0.5 0.2-1.1 0-1.6-0.3 0.8-0.6 1.6-0.9 2.4-0.1 0.2-0.2 0.9-0.4 0.9-0.1 0-0.7-0.2-0.8-0.2-0.6-0.2-1.2-0.5-1.5-1-0.2-0.4-0.2-0.4-0.1-0.8 0.1-0.3 0.2-0.6 0.2-0.9 0.4-1.5 1.3-2.6 2-4 0.4-0.7 0.5-1.5 0.9-2.1 0.3-0.6 0.8-1.2 1.2-1.9 1.8-2.9 3.2-6 4.9-8.8 0.8-1.4 1.8-2.7 2.5-4.1 0.7-1.3 1.4-2.5 2.1-3.7-0.7 0.1-1.5 0-2.1-0.3-0.3-0.1-0.7-0.4-0.9-0.7-0.2-0.4-0.1-0.5 0.3-0.8 0.5-0.5 1.2-0.6 1.9-0.9l1.2-0.6c0.4-0.3 0.4-0.4 0.5-0.9-1.4 0-2.3 1-3.5 1.6-1.4 0.6-2.9 1.3-4.3 2 0.3-3.9 4.7-5.5 7.6-6.9 0.9-0.4 1.8-0.9 2.7-1.3s2.2-0.8 2.7-1.7c1.1-1.9 2.2-3.9 3.4-5.8 2.3-3.8 4.5-7.8 6.8-11.7 1.1-1.9 2.1-3.8 3.2-5.6 0.6-0.9 1.1-1.9 1.7-2.8 0.5-0.8 0.8-1.8 1.3-2.6 0.3-0.5 0.6-0.8 1-1.2s0.6-0.8 0.8-1.3c0.6-1.2 1.2-2.3 1.8-3.5 0.3-0.5 0.5-1.4 0.9-1.8 0.3-0.3 1.1-0.4 1.6-0.6s0.8-0.3 1.3 0c0.3 0.2 0.3 0.1 0.5 0.5 0.1 0.3 0.1 0.6 0.2 0.9 1.4-1.1 2.2-2.6 3.4-3.8 0.5-0.5 1.3-1.3 2-1.4 0.4 0 0.9 0.4 1.4 0.4 0.3 0 0.6-0.1 0.8 0.1 0.1 0.1 0.3 0.6 0.3 0.7 0.8-0.7 1.7-2.1 2.9-2.2 0.4 0 1 0.3 1.1 0.8 0.1 0.2 0 0.3 0 0.5 0 0.1-0.1 0.2-0.1 0.3s-0.1 0.2-0.1 0.3l0.2 0.2c-0.1 0.5-0.8 1.1-1.2 1.5-0.6 0.7-1.2 1.4-1.7 2.1-1 1.4-2 2.7-3.1 4.1-4.2 5.3-8.2 10.9-11.9 16.5-1.1 1.6-2.1 3.2-3.1 4.9-0.5 0.8-1 1.6-1.4 2.4-0.4 0.7-1.3 1.7-1.1 2.6 0.8-0.7 1.9-0.9 2.9-1.4s1.9-1.1 3-1.5c1-0.4 2.1-0.6 3.1-1.2s2-1.1 3.1-1.5c2.2-0.8 4.3-1.9 6.5-2.8 1-0.4 2.1-0.7 3.1-1.3 0.4-0.2 0.8-0.5 1.3-0.7s1.1-0.2 1.5-0.4c0.7-0.3 0.6-1.5 1-2.2 0.6-1 1.2-1.9 1.7-2.9 1.1-2.2 2.3-4.3 3.6-6.4s2.4-4.4 3.6-6.6c0.3-0.5 0.5-0.9 0.8-1.4 0.4-0.6 0.3-0.9 1.1-0.9 0.5 0 1.2 0.1 1.7 0 0.6-0.1 0.2 0 0.6-0.3 0.3-0.3 0.6-0.7 0.8-1.1 0.4-0.5 0.7-0.9 1.1-1.4 0.3-0.4 0.8-1.3 1.2-1.6 0.3-0.2 1.3-0.2 1.7-0.2 0.7-0.1 1.3-0.2 2-0.3 0.6-0.1 0.9 0 1.2-0.6 0.1-0.2 0.3-0.9 0.4-1h0.6c0.5 0 1.2-0.1 1.7 0 0.7 0.2 0.2-0.1 0.4 0.3 0.1 0.3 0 0.9-0.1 1.2-0.3 0.5-0.8 1-1.2 1.5-0.2 0.2-0.5 0.5-0.6 0.8-0.3 0.6-0.2 0.1 0 0.6 0.1 0.4 0.9 1 0.9 1.5 0 0.4-1.2 1.6-1.5 1.9-1.6 2-3.2 4.1-4.7 6.2-1.5 2.2-2.9 4.6-4.4 6.8-1.4 2.1-2.4 4.3-3.8 6.4-1.3 2-2.5 4.1-3.6 6.2-1.2 2.2-2.5 4.4-3.7 6.6-2.7 5.2-5.1 10.5-7.7 15.8-0.6 1.3-1.3 2.6-1.9 3.9-0.3 0.6-0.6 1.5-1.1 1.9-0.4 0.4-1.5 0.2-2.1 0.2-0.4 0-0.6-0.1-0.8 0.2-0.2 0.2-0.2 0.8-0.3 1.1-0.2 0.5-0.3 1.1-0.6 1.5-0.6 0.7-1 0.8-1.8 0.8-0.1 0-0.7 0.1-0.8 0-0.3-0.2-0.6-1-0.8-1.3-0.5 1.4-1 2.9-1.6 4.2s-1.4 3.1-3 3.4c-0.3 0.1-0.5 0-0.8-0.2-0.4-0.2-0.4-0.2-0.4-0.6 0-0.8 0.6-1.7 0.9-2.4 0.6-1.5 1.2-2.9 1.8-4.4s1.3-2.8 1.9-4.3c0.7-1.7 1.3-3.3 2.1-5 1.4-3.1 2.9-6.1 4.4-9.2 0.8-1.7 1.8-3.3 2.6-5 0.7-1.6 1.7-3.1 2.5-4.6-1.8 1.1-4 1.6-5.9 2.6-0.9 0.4-1.7 0.9-2.6 1.4s-2 0.7-2.9 1.2c-3.4 1.8-7 3.3-10.6 4.9-0.9 0.4-1.6 0.9-2.4 1.4-0.3 0.2-0.7 0.3-0.9 0.6s-0.2 0.8-0.3 1.2c-0.3 0.7-0.9 1.2-1.2 1.9-0.4 0.8-0.5 1.6-0.9 2.4-0.4 0.7-0.5 1.6-0.9 2.3-0.2 0.4-0.5 0.7-0.7 1-0.3 0.5-0.5 1.1-0.7 1.6-0.9 2-1.9 4-2.8 5.9l-3 6.6c-1.3 2-2.1 4.2-3.6 6-0.2 0 1.4-1.6 0 0zm28.2-40.5c-0.3 0.1-0.7-0.1-1.1 0l-0.1 0.1c0 0.3-0.1 0.3-0.4 0.2-0.2 0.1-0.5 0-0.7 0.1-0.6 0.1-0.7 0.6-1.2 0.8-0.2 0.1-0.7 0-1 0.1s-0.5 0.3-0.8 0.4l-1.5 0.9c-0.5 0.3-0.9 1-1.4 1-1.1 0.2-2-0.2-2.7 1.1 1.2-0.4 2.4-1.2 3.6-1.4 1.3-0.2 2.3-1.2 3.4-1.9 0.5-0.3 0.8-0.2 1.4-0.3 0.5-0.1 0.8-0.7 1.3-0.8 0.3-0.1 0.6 0.1 0.9 0 0 0.1 0.4-0.4 0.3-0.3 0.2-0.2 0.5-0.1 0.3-0.4-0.2 0.1-0.3 0.3-0.3 0.4-0.5 0.2 0-0.2 0 0zm1.7-1c0-0.3-1 0 0 0 0-0.1-0.1 0 0 0z"/>
	<path class="st1" d="m75.1 106.9c1.1-0.2 2.6-0.5 2.8 0.9v0.8c0 0.5 0 0.4-0.3 0.7-0.5 0.4-1.3 0.7-1.9 1-2.8 1.3-5.6 2.3-8.5 3.4-2.8 1.1-5.5 2.4-8.3 3.5-1.1 0.4-2.3 0.6-3.4 1.2-0.3 0.2-0.8 0.6-0.7 1 0 0.4 0.1 0.3 0.5 0.4s0.8 0.1 1.2 0.2c-1.1 0.2-1.8 1-2.4 1.8l-2.4 3.6c-1.6 2.5-3.2 5-4.9 7.4-1.6 2.3-3.1 4.8-4.6 7.2s-3.1 4.7-4.4 7.1c-0.6 1.2-1.4 2.2-2.2 3.3s-1.4 2.3-2.1 3.4c-0.7 1.2-1.4 2.3-2.1 3.5-0.6 1.2-1.5 2.3-2 3.5-1.2 2.5-2.8 4.8-4 7.2-0.6 1.1-1.1 2.2-1.8 3.2-0.7 1.2-1.7 2.3-2.3 3.6-1.3 3-3 5.8-4.6 8.6-0.4 0.6-0.7 1.4-1.1 1.9s-0.9 0.6-1.4 1c-1 0.7-1.6 2-2 3.1-0.2-0.8-0.2-1.6-0.5-2.4-0.3-1 0.3-1.8 0.7-2.6 0.4-1 0.8-1.9 1.2-2.9 0.3-0.7 0.3-0.7-0.2-1.2-0.5-0.6-0.5-0.5 0-1.1h-1.3c0.3-1 0.5-1.9 0.3-2.9-0.1-0.4-0.5-1-0.5-1.4s0.6-1.2 0.8-1.6c0.3-0.9 0.6-1.7 1.1-2.5 0.5-0.9 1.1-1.5 1.5-2.5 1.3-4.2 4.2-7.9 6.3-11.8 2.2-4 5-7.8 7.5-11.7 2.5-4 5.1-8 7.8-11.9 0.7-1 1.4-2 2.1-3.1 0.3-0.5 0.7-1.1 1-1.6 0.3-0.6 0.6-0.8 1.1-1.2 0.9-0.7 1.7-1.2 2.6-1.8 0.5-0.3 0.9-0.8 1.4-1.2s0.4-0.5 0.5-1.2c-1.6 0.7-3.3 1.3-4.9 2.1-0.9 0.4-1.8 0.9-2.7 1.2-0.7 0.3-1.5 0.4-2.3 0.8s-1.5 0.9-2.3 1.2l-2.4 0.9c-1.7 0.7-3.3 1.6-5.1 2.3s-3.4 1.6-5.2 2.4c-1.6 0.7-3.4 1.3-4.8 2.4-0.7 0.5-1.6 0.3-2.5 0.3-1 0-1.7 0.3-2.6 0.6s-1.8 0.2-2.6 0.4-1.5 0.6-2.2 0.9c-0.1-0.4-0.2-0.7-0.3-1.1-0.1 0.1-0.2 0.2-0.4 0.3 0-0.8-0.1-1.3 0.5-1.9 0.5-0.5 1.1-0.8 1.7-1.1 1-0.4 3-0.6 3.6-1.6 0.2-0.4 0-0.4 0.1-0.9 0-0.3 0.2-0.5 0.3-0.8 0.2-0.6 0.3-0.7 0.9-1 0.3-0.2 0.9-0.5 0.8-1-0.1-0.3-0.6-0.2-0.8-0.5-0.2-0.2 0.1-0.9 0.4-1.2 0.4-0.6 1.5-0.9 2.2-1.2 0.8-0.4 1.7-0.8 2.5-1.2l4.8-2.4c3.1-1.6 6.3-3.2 9.4-4.8 3-1.5 6.1-2.7 9.1-4.2 1.5-0.7 3-1.5 4.6-2 0.6-0.2 1-0.3 1.5-0.6 0.6-0.4 1.1-0.8 1.8-1.1s1.5-0.4 2.2-0.6c0.8-0.3 1.5-0.6 2.2-1 1.5-0.8 3.1-1.4 4.7-2.1 1.6-0.6 3.1-1.4 4.6-2 0.7-0.3 1.5-0.6 2.3-0.8s1.4-0.6 2.1-1c1.5-0.8 3.3-1.3 5-1.9 1.8-0.6 3.5-1.5 5.2-2.1 0.9-0.3 1.8-0.6 2.7-1 0.4-0.2 0.8-0.3 1.3-0.5 0.4-0.2 1-0.6 1.4-0.6 0.6 0 1 1 1.6 1.2 0.2 0.1 0.5-0.1 0.6 0.2 0.1 0.2-0.5 1.3-0.6 1.5-0.4-0.4-1.1-0.2-1.6 0.1-0.3 0.2-0.4 0.1-0.3 0.4 0 0.5 0.5 0.3 1 0.4 0.5 0 0.6 0.1 0.9 0.4 0.3 0.2 0.4 0.5 0.7 0.6 0.5 0.1 1.5-0.3 1.7 0.2-0.4 0.1-1 0.1-1.4 0.2-0.4 0.2-0.4 0.8-0.7 1.1-0.5 0.7-2.1 1-3 1.4-1.9 0.9-4.1 1.8-6.2 2.8 0.2 0 0.2-0.1 0.2-0.2-0.2 0-0.9 0-0.8 0.3 0 0.2 0.5 0.1 0.6-0.1 0.9-0.2-0.1 0.2 0 0zm-40.3 18.9v-0.4c-0.2 0-0.6 0-0.7 0.1s-0.3 0.3 0 0.3c0.4 0 0.6-0.5 0.7-0.7 0 0.4 0.2 0.5 0.6 0.3 0 0 0.7-0.3 0.2-0.3-0.4-0.1-0.6 0.4-0.8 0.7 0-0.1 0.3-0.7 0 0zm4.8-2.5c-0.6 0.2-1.1-0.3-1.3 0.6 0-0.4-1-0.1-1.4-0.1 0.1 0.2 0.1 0.5 0.2 0.7 0.7-0.3 1-0.8 1.7-0.8h0.5c0.2-0.1 0.3-0.3 0.3-0.4h0.4c0.5-0.2 0.4-0.4 1.1-0.4 0.4 0 0.4 0 0.7-0.2 0-0.2 0.1-0.3 0.4-0.3h0.6c0-0.1 0-0.8-0.1-0.8 0 0-0.7 0-0.7 0.1-0.1 0.1 0.1 0.5 0 0.7s-0.2 0.1-0.5 0.1c-0.1 0-0.3-0.1-0.5 0s-0.2 0.4-0.4 0.5c-0.5 0-0.9-0.4-1 0.3-0.4 0.1 0.1-0.7 0 0zm-7.4 2.7v0.4c0.2 0 1.8-0.2 1.1-0.5-0.4-0.2-1 0.4-1.1 0.7 0-0.4-0.2-0.5-0.6-0.3 0 0-0.7 0.3-0.2 0.3 0.5 0.1 0.7-0.3 0.8-0.6 0 0.1-0.2 0.7 0 0zm14-5.8c0.6-0.2 1.1 0.3 1.3-0.6 0 0.4 1 0.1 1.4 0.1-0.1-0.2-0.1-0.5-0.2-0.7-0.5 0.3-1 0.8-1.5 0.9-0.3 0-0.4-0.1-0.7 0-0.2 0-0.3 0.2-0.3 0.3h-0.3c-0.2 0.1-0.4 0.1-0.5 0.2 0 0.2 0 0.3-0.2 0.3h-0.2c-0.6 0.1-0.8 0-0.9 0.7 0-0.4-0.2-0.5-0.6-0.3-0.2 0-0.3 0-0.3 0.2s0.1 0.2 0.2 0.1c0.2 0 0.3-0.2 0.5-0.3s0.3-0.1 0.6-0.1c0.1 0 0.3 0.1 0.5 0s0.2-0.4 0.4-0.5c0.3 0 0.7 0.4 0.8-0.3 0.4-0.1-0.1 0.7 0 0zm-9.7 3.9c-0.2 0-0.4 0.7-0.2 0.9 0.3 0.3 0.2-0.7 0.2-0.9-0.1 0 0 0.3 0 0zm13-5.6c-0.3 0 0 0.9 0 0-0.1 0 0 0.1 0 0zm0.9-0.5c-0.4 0 0 1 0 0-0.1 0 0 0.2 0 0z"/>
	<path class="st1" d="m222.8 126c-1.1-0.7-0.5-1.6-0.9-2.6-0.2-0.6-0.4-0.5-1.1-0.5-0.6 0-0.4 0.1-0.6-0.4-0.2-0.4 0-1-0.1-1.4-0.3-1 0.1-0.1-0.2-0.4-0.2-0.3-0.3 0.1-0.6-0.4-0.2-0.4 0-1 0.2-1.5 0.6-1.3 1.5-1.6 2.6-2.3 1-0.6 2-1.3 3.1-1.8l1.5-0.6c0.7-0.2 1-0.6 1.6-0.9 1-0.6 2.1-0.8 3.1-1.1 1.3-0.4 2.5-1.1 3.8-1.6 1.2-0.4 2.4-0.8 3.6-1.1 1.4-0.4 2.8-1 4.2-1.5 2.7-1 5.5-1.5 8.1-2.4 2.8-1 5.7-1.7 8.7-2.3 1.1-0.2 2.1-0.8 3.2-1.1 1.5-0.4 3-0.8 4.6-1.2 2.8-0.7 5.5-1.6 8.2-2.3 1.3-0.4 2.7-0.5 4.1-0.8 1.4-0.4 2.8-1 4.3-1.3 0.6-0.1 1.1-0.3 1.7-0.5 0.6-0.1 1 0 1.5 0.2 0.2 0 0.9 0.1 1 0.3 0.1 0.1 0 0.8 0 0.9 0 0.6 0.1 1.5-0.2 2-0.1 0.2-0.5 0.4-0.6 0.7-0.1 0.2 0 0.4 0 0.6-0.1 0.5-0.8 0.7-1.4 0.9-1.4 0.3-2.8 0.2-4.1 0.5-0.4 0.1-1.6 0.5-1.8 0.9v0.5c0 0.6-0.1 0.4 0.3 0.7 0.1 0 0.2 0 0.4 0.1 0.4-0.1 0.5 0.1 0.5 0.4 0.1 0.2 0.1 0.6 0.2 0.7 0 0.2 0.3 0.9 0.3 1.1-0.1 0.2-0.6 0.6-0.8 0.7-2 1.5-4.8 1.7-7.1 2.3-5.6 1.5-11.2 3.5-16.7 5.4-3.1 1-6 2.3-9.1 3.1-1.5 0.4-2.9 1-4.4 1.5-1.4 0.5-3 0.8-4.4 1.2-1.5 0.4-2.8 1.1-4.3 1.6s-3 0.7-4.4 1.2c-0.8 0.3-1.4 0.6-2.2 0.7-0.6 0.1-1.3 0.3-1.9 0.6-0.6 0.2-1.2 0.5-1.9 0.6-0.8 0.1-1.3 0.1-2 0.6-1.3-0.9 0.2-0.2 0 0z"/>
	<path class="st1" d="m162.2 98.5c-1.8 1.3-3.8 1.9-5.2 3.7-0.4 0.5-0.9 0.6-1.6 0.9s-1.4 0.5-2 0.8c-1.2 0.5-2.3 1.2-3.4 1.9-1 0.7-2.3 1-3.4 1.6-1.2 0.6-2.3 1.4-3.4 2-1.2 0.6-2.3 1.4-3.4 2.1-1.3 0.8-2.7 1.4-4.1 2 1.1 1.2 2.1 2.3 3.2 3.5 0.3 0.3 0.8 0.7 1 1.1 0.1 0.3 0 0.8 0 1.1v1c0 0.6 0 0.7 0.5 1 0.5 0.4 1.7 1 1.7 1.6 0 0.3-0.2 0.7-0.4 1-0.2 0.2-1 0.9-1.3 0.9-0.2 0-0.5-0.4-0.7-0.4-0.1 0.1-0.3 0.2-0.4 0.3l-0.4-0.4c-0.1 0.4-0.4 0.7-0.8 0.9-0.2 0.1-0.5 0.3-0.7 0.3-0.4 0.1 0.1 0.3-0.5-0.2-1-1-1.9-2.4-2.7-3.6-0.4-0.5-0.8-1.3-1.2-1.6s0.1-0.3-0.6-0.1c-0.2 0.1-0.5 0.4-0.7 0.4-0.4 0-1-0.9-1.3-1.3-0.2-0.3-0.4-0.5-0.6-0.8-0.4-0.5-0.3-0.6-0.9-0.4s-1.2 0.8-1.7 1.1c-0.6 0.4-1.1 0.7-1.7 1.1-1.2 0.8-2.4 1.5-3.5 2.3-2.3 1.5-4.6 2.9-6.8 4.5l-6.6 4.8c-0.9 0.7-1.9 1.8-3.1 1.8-0.3 0-1.6 0.2-1.9 0-0.2-0.1-0.5-1.4-0.5-1.6 0-0.5 0.2-0.9 0.3-1.3 0-0.6-0.1-1 0.4-1.4 0.9-0.8 2-1.3 2.9-2 0.9-0.8 1.8-1.5 2.8-2.2 0.9-0.6 1.7-1.4 2.6-1.9 0.4-0.2 0.9-0.2 1.2-0.5 0.5-0.3 0.9-0.8 1.4-1.2 1-0.8 2.1-1.4 3.2-2 2.1-1.3 4-2.9 6.2-4.1 0.5-0.3 1-0.5 1.4-0.9 0.1-0.1 0.5-0.5 0.5-0.6s-0.4-0.5-0.5-0.6c-1-1.2-1.9-2.3-2.9-3.5-0.9-1.1-1.7-2.1-2.6-3.2-0.4-0.5-0.9-1-1.3-1.6-0.4-0.5-1-1-1.3-1.6-0.1-0.3-0.4-1.1-0.4-1.4l0.3-0.6c0.3-0.4-0.2-0.2 0.4-0.4 0.5-0.1 1.3 0 1.8 0 0.8 0 1.2-0.3 1.9-0.7 0.6-0.3 0.8-0.2 1.5 0 0.4 0.2 0.9 0.3 1.3 0.6 1.1 0.6 1.9 1.7 2.7 2.6 0.4 0.5 0.8 0.9 1.3 1.4 0.4 0.4 1 0.9 1.3 1.4 0.2 0.3-0.1 0.3 0.2 0.6 0.3 0.2 0.5 0.1 0.7 0.4 0.1 0.2 0 0.3 0.2 0.5 0.2 0.1 0.4 0.1 0.6 0.2 0.2 0.2 0.2 0.6 0.4 0.9 0.1 0.2 0.4 0.5 0.6 0.6 0.4 0.2 0.4 0.1 0.9-0.1 2.6-1.3 5-3.1 7.5-4.5 2.6-1.4 5.2-2.7 7.9-4 1.2-0.6 2.4-1.3 3.7-1.7 1.4-0.5 2.5-0.5 3.9-0.5 0.5 0 0.9-0.1 1.4-0.3 0.3-0.1 0.5-0.3 0.7-0.4 0.1-0.1 0.5-0.6 0.6-0.6 0.4-0.2 1.4 0.2 1.8 0.3 0.5 0.1 1.1 0.5 1.6 1-1.9 1.5-1.1-1.1 0 0z"/>
	<path class="st1" d="m104 174.5c-0.4 0.4-0.5 0.5-1.2 0.5-0.4 0-1 0.1-1.4 0-0.6-0.2-0.3 0.1-0.4-0.5v-0.9c0-0.5 0.2-1.5-0.4-0.9-0.7 0.8-0.9 1.9-1.4 2.7-0.4 0.6 0.1 0.2-0.3 0.4-0.2 0.1-0.5 0-0.6 0h-0.8c-0.4-0.1-0.3 0-0.5-0.4-0.5-0.9 0.1-1 0.4-1.8 0.2-0.6 0.5-1.5 0.5-2s-0.2-1-0.3-1.6c0-0.6 0.1-0.8 0.3-1.4 0.5-1.1 1-2.3 1.5-3.4 4-8.9 8.6-17.5 13.3-26 2.5-4.5 5.2-8.9 7.9-13.3 0.3-0.5 0.6-1 1-1.5 0.2-0.3 0.3-0.6 0.5-0.9 0.3-0.3 0-0.3 0.6-0.3 0.5-0.1 0.9 0.1 1.4 0 0.6-0.1 1-0.6 1.5-1.1 0.3-0.3 0.7-0.9 1.1-1.1 0.5-0.3 0.3-0.3 0.8 0 0.3 0.1 0.5 0.3 0.8 0.4 0.5 0.3 0.7 0.3 1.2 0.1s1.4-0.7 1.9-0.7c1.1 0 1.2 1.8 0.9 2.6-0.4 1.1-1.4 2.2-2 3.2l-4.2 6.3c-2.7 4.1-5.2 8.3-7.7 12.5-2.7 4.7-5.3 9.4-7.9 14.2-1.3 2.4-2.5 4.8-3.8 7.2-1.3 2.5-2.5 4.9-2.7 7.7-0.2 0.1 0.1-1.8 0 0z"/>
	<path class="st1" d="m154.5 162.4c0.4-0.1 0.8 0 1.2 0 0.5 0 0.8-0.2 1.2-0.4 0.7-0.3 1.5-0.1 2.2-0.1-1.1 0.9-2.2 1.9-3.5 2.4-0.7 0.2-1.3 0.2-2 0.3-0.9 0.1-1.9 0.6-2.7 0.9-1.6 0.6-3.3 1.2-5 1.7-0.8 0.2-1.5 0.4-2.3 0.6-0.7 0.3-1.4 0.7-2.1 1-3.4 1.4-7 2.4-10.5 3.6-3.3 1.2-6.6 2.2-9.9 3.4-1.5 0.6-3.2 1.7-4.8 1.1-0.2-0.1-0.8-0.3-0.9-0.5s0-0.8 0-1c0-0.4-0.1-0.9 0.1-1.1 0.2-0.3 0.9-0.7 1.1-0.9-0.3-0.2-1.3-0.6-1.4-0.9s0.2-1.2 0.3-1.5c0.1-0.5 0.1-1.2 0.4-1.5 0.4-0.4 1.3-0.7 1.8-1 2-1.1 4.1-1.4 6.1-2.3 1.1-0.5 2.1-1 3.1-1.4 1.2-0.4 2.4-0.7 3.5-1.2 2-0.9 4.1-1.4 6.2-2.2 4.5-1.8 9-3.3 13.6-4.7 1-0.3 2-0.5 3.1-0.7s2-0.7 3-1.1c2-0.8 4.3-1.6 6.4-2 1.2-0.2 2.3-0.5 3.4-1 0.9-0.4 2.3-1 3.1-0.3 0.3 0.3 0.4 0.6 0.4 1 0 0.2 0.1 1 0 1.1-0.2 0.3-1.5 0.5-1.9 0.6-0.6 0.2-1 0.5-1.4 0.1-0.1 0.2-0.5 0.8-0.6 0.9-0.2 0.1-0.6 0-0.8 0-0.4 0-1 0.1-1 0.7 0-0.2-1.5-0.1-1.7-0.1 0 0.5 1.9 0 2.3-0.1s0.6-0.2 1-0.3c0.3-0.1 0.5-0.1 0.9-0.1 1 0 1.9-0.4 2.8-0.7 0.2-0.1 0.5-0.2 0.7-0.3 0.3-0.3 0.4-0.2 0.5 0.1 0.2 0.2 0.3 0.6 0.3 0.9 0.1 0.4 0.1 0.9 0.1 1.3 0 0.7-0.2 0.7-0.8 0.9-0.9 0.3-1.8 0.6-2.7 0.9-1.9 0.6-3.9 0.9-5.7 1.7-0.9 0.4-1.7 0.7-2.7 0.9-0.9 0.2-1.8 0.3-2.7 0.6-0.3 0.1-0.6 0.2-0.9 0.2s-0.5-0.1-0.8 0c0.2 0.2 0.1 0.4 0 0.5h-0.7c-0.4 0-0.7 0.1-1.1 0.2-0.7 0.3-1.3 1-2 1.1-0.4 0.1-0.7 0-1.1 0.1l-0.3 0.3h-0.5c-0.3 0-0.6 0-0.9 0.1s-0.3 0.3-0.6 0.4c-0.4 0.1-1-0.1-1 0.6 0-0.2-1.5-0.1-1.7-0.1 0 0.4 2 0 2.4-0.1 0.2 0 0.3-0.1 0.4-0.2 0.3-0.2 0-0.2 0.5-0.3 0.2-0.1 0.5 0.1 0.8 0 0.2-0.1 0.3-0.2 0.5-0.3 0.4-0.2 0.9 0 1.4-0.2 0.4-0.2 0.5-0.4 1-0.4 1.1 0.1 2.1-0.4 2.9-1.2 0.8-0.1-0.9 1 0 0zm-10.7 2.8c-0.3 0.4-0.9 0.5-0.8 1.2 0.4 0 0.9-0.1 1.3-0.1-0.2-0.4-0.4-0.7-0.5-1.1-0.4 0.5 0.2 0.5 0 0zm-2.8 2v-0.4c-0.3 0-1.6 0-1.6 0.2 0 0.3 1.3 0.2 1.6 0.2 0-0.2-0.6 0 0 0zm19.3-10.8v0.4c0.5 0 1.1-0.1 1.6-0.1-0.1-0.5-1.2-0.3-1.6-0.3 0 0.1 0.5 0 0 0zm-18.8 10v0.4c0.9-0.2 0.9-0.4 0-0.4 0.1 0.2 0.3 0 0 0zm-3.4 0.9v0.4c0.8-0.2 0.9-0.4 0-0.4 0 0.1 0.2 0 0 0z"/>
	<path class="st1" d="m3.8 138.8c-1.1 0.8-2.5 0.5-3.8 0.6 0-0.3-0.2-1.3 0-1.6s1.1-0.4 1.4-0.4c1-0.2 2.1-0.4 2.9-1.2-0.1 0.9-0.3 1.7-0.5 2.6-1.2 0.8 0.2-0.9 0 0z"/>
	<path class="st1" d="m12.2 191.3c0 0.7 0.1 1.6 0 2.4-0.1 0.5-0.1 0.4-0.6 0.6-0.2 0.1-0.7 0.3-0.9 0.3s-0.6-0.3-0.7-0.4c-0.4-0.3-0.3-0.4-0.3-0.9v-2.4c0.8 0.1 1.6 0.3 2.5 0.4 0 0.9-0.9-0.1 0 0z"/>
	<path class="st1" d="m236.7 75.8c0.3 0.5 1 1.4 1 1.9 0 0.2-0.4 1.1-0.6 1.2s-0.9 0-1 0c-0.6-0.1-1.5-0.3-1.8-0.8-0.5-0.8 1.1-1.1 0.5-1.6 0.5-0.3 1.2-0.5 1.9-0.7 0.3 0.6-0.9 0.2 0 0z"/>
	<path class="st1" d="m354.8 88.9c0-0.5-0.2-1.9 0.2-2.1 0.3-0.1 0.9 0 1.2 0h0.4c0.3-0.1 0.4 0 0.4 0.2 0.3 0.6-0.2 1-0.6 1.3-0.7 0.4-0.8 0.6-1.6 0.6 0-0.8 0.4 0 0 0z"/>
	<path class="st1" d="m238 59.5c0.1-0.4 0.2-0.7 0.3-1.1 0.3 0.7 0.2 0.6-0.3 1.1 0.2-0.6 0.4-0.3 0 0z"/>
	<path class="st1" d="m184 119.4c0.5-0.2 2.1-1 2.3-0.2 0.1 0.2-0.2 0.8-0.2 1.1l-0.3 1.5c-0.3-0.9-1.2-1.1-1.8-1.7-0.2-0.2-0.6-0.5-0.6-0.8-0.2-0.6 0.3-0.2 0.6 0.1 0.7-0.3-0.2-0.2 0 0z"/>
	<path class="st1" d="m206.8 176h2.5c-0.8 0.5-1.6 0.3-2.5 0z"/>
	<path class="st1" d="m212.4 175.8h-1.5c-0.2 0-1.3 0.1-1.1-0.2s2.3-0.1 2.6-0.1v0.3c-0.8 0 0-0.1 0 0z"/>
	<path class="st1" d="m153.3 133.4c0.5-0.4 0.9-0.8 1.4-1.2 0.2 0.3 0.3 0.6 0.5 0.9-0.7 0.1-1.3 0.2-1.9 0.3 0.6-0.6 0.8-0.1 0 0z"/>
	<path class="st1" d="m156.6 132.3c-0.1 0-1.3 0.1-1.2-0.1s0.8-0.2 1.2-0.3v0.4c-0.4 0 0-0.1 0 0z"/>
	<path class="st1" d="m225.5 95.4c-0.1 0.3 0.2 0.8-0.4 0.9 0-0.3-0.3-0.9 0.4-0.9z"/>
	<path class="st1" d="m225 96.3c-0.1 0.3 0.2 0.8-0.4 0.9 0.1-0.4-0.2-0.9 0.4-0.9z"/>
	<path class="st1" d="m224.7 97.2c-0.2 0.2-0.2 0.4-0.4 0.2 0-0.1 0.2-0.4 0.4-0.2-0.1 0.1-0.1 0 0 0z"/>
	<path class="st1" d="m206 176.8c0-0.9 0.3 0 0 0 0-0.1 0.1 0 0 0z"/>
	<path class="st1" d="m246.8 136c0.3 0 1.3-0.2 1.3 0.1s-1 0.3-1.3 0.3v-0.4c0.4 0 0 0.1 0 0z"/>
	<path class="st1" d="m214.6 141.7c0.5-0.1 0.9-0.2 1.3 0.2-0.4 0.1-0.9 0.1-1.3 0.2v-0.4c0.2-0.1 0 0.1 0 0z"/>
	<path class="st1" d="m328.6 117.6c0.2-0.2 0.2-0.4 0.4-0.2-0.1 0.1-0.3 0.3-0.4 0.2 0.1-0.1 0 0 0 0z"/>
	<path class="st1" d="m286.4 123.2c0.1-0.1 0.2-0.2 0.3-0.4 0.2 0.3-0.2 0.6-0.3 0.4 0.1-0.1 0 0.1 0 0z"/>
	<path class="st1" d="m67.5 148.5c-1.2 1.2-2.7 1.9-4.4 2.2 0.6-0.6 1.4-1 2.1-1.4 0.9-0.5 1.3-0.7 2.3-0.8-0.9 0.8-0.4 0.1 0 0z"/>
	<path class="st1" d="m63.2 151c-1 0.3-1.9 0.7-2.9 1 0.6-1.2 1.8-1.1 2.9-1z"/>
	<path class="st1" d="m69.7 147.6c-0.5 0.8-1.3 0.9-2.2 0.9 0.5-0.8 1.3-0.9 2.2-0.9z"/>
	<path class="st1" d="m71 147.2c-0.2 0.8-0.9 0.3-1.3 0.4 0.2-0.8 0.8-0.2 1.3-0.4z"/>
	<path class="st1" d="m70.9 147.2c0.2-0.2 0.2-0.4 0.4-0.2-0.1 0.1-0.2 0.3-0.4 0.2 0.1-0.2 0 0 0 0z"/>
	<path class="st1" d="m72.7 146.2c-0.9 0 0-0.3 0 0-0.1 0 0-0.1 0 0z"/>
	<path class="st1" d="m47.5 119.6l1.2-0.6c0.1 0.2 0.1 0.5 0.2 0.7-0.5 0.1-0.9 0.1-1.4 0.2v-0.3c0.3-0.2 0 0.1 0 0z"/>
	<path class="st1" d="m41.8 122.4c0-0.5-0.1-0.8 0.4-0.9s0.4 0.3 0.5 0.8c-0.3 0.1-0.6 0.1-0.9 0.1 0-0.3 0.3 0 0 0z"/>
	<path class="st1" d="m38.3 123.9l-1.2 0.6c-0.1-0.2-0.1-0.5-0.2-0.7 0.5-0.1 0.9-0.1 1.4-0.2v0.3c-0.4 0.2 0-0.1 0 0z"/>
	<path class="st1" d="m44 121.1c0.2-0.8 0.9-0.3 1.3-0.4-0.2 0.8-0.9 0.2-1.3 0.4z"/>
	<path class="st1" d="m47.5 119.8c-0.2 0.8-0.9 0.3-1.3 0.4 0.2-0.8 0.8-0.2 1.3-0.4z"/>
	<path class="st1" d="m32.2 126c0.3 0 1.3-0.2 1.3 0.1s-1 0.3-1.3 0.3v-0.4c0.4-0.1 0 0.1 0 0z"/>
	<path class="st1" d="m41.8 122.4c-0.2 0.8-0.9 0.3-1.3 0.4 0.2-0.8 0.9-0.2 1.3-0.4z"/>
	<path class="st1" d="m38.3 123.7c0.2-0.8 0.9-0.3 1.3-0.4-0.2 0.8-0.9 0.2-1.3 0.4z"/>
	<path class="st1" d="m75.3 107.1c-0.2 0-0.8 0.2-0.9-0.1 0-0.3 0.6-0.3 0.8-0.3 0.1 0.1 0.1 0.2 0.1 0.4-0.3 0 0-0.2 0 0z"/>
	<path class="st1" d="m32.2 126.7c-0.2 0-0.8 0.2-0.9-0.1 0-0.3 0.6-0.3 0.8-0.3 0.1 0.1 0.1 0.2 0.1 0.4-0.2 0 0-0.2 0 0z"/>
	<path class="st1" d="m34.8 125.8c-0.2 0-0.8 0.2-0.9-0.1 0-0.3 0.6-0.3 0.8-0.3 0.1 0.1 0.1 0.3 0.1 0.4-0.2 0 0-0.1 0 0z"/>
	<path class="st1" d="m36.5 124.1c0 0.1 0.1 1.1-0.2 0.9-0.2-0.1-0.1-0.9 0.2-0.9 0 0.3-0.1 0 0 0z"/>
	<path class="st1" d="m40.5 122.8c0 0.7-0.5 0.4-0.9 0.4 0.1-0.6 0.6-0.3 0.9-0.4z"/>
	<path class="st1" d="m34.8 125.1c0.2 0 0.8-0.2 0.9 0.1 0 0.3-0.6 0.3-0.8 0.3-0.1-0.1-0.1-0.3-0.1-0.4 0.3 0 0 0.1 0 0z"/>
	<path class="st1" d="m44 121.4c-0.2 0-0.8 0.2-0.9-0.1 0-0.3 0.6-0.3 0.8-0.3 0.1 0.2 0.1 0.3 0.1 0.4-0.3 0.1 0-0.1 0 0z"/>
	<path class="st1" d="m46.2 120.2c0 0.7-0.5 0.4-0.9 0.4 0-0.6 0.5-0.3 0.9-0.4z"/>
	<path class="st1" d="m49.5 118.5c0 0.9-0.3 0 0 0 0 0.1-0.1 0 0 0z"/>
	<path class="st1" d="m50.4 118c0 1-0.4 0 0 0 0 0.2-0.1 0 0 0z"/>
	<path class="st1" d="m151 163.7c1-0.9 2.1-1.4 3.5-1.3-0.9 1-2.1 1.5-3.5 1.3z"/>
	<path class="st1" d="m143.8 165.2c0.1 0.3 0.3 0.7 0.4 1-0.4 0-0.9 0.1-1.3 0.1 0-0.6 0.6-0.7 0.9-1.1 0.2 0.5-0.4 0.5 0 0z"/>
	<path class="st1" d="m146.3 165.4c-0.4 0-1.7 0.1-1.7-0.2 0.3 0 1.7-0.2 1.7 0.2-0.6 0 0-0.1 0 0z"/>
	<path class="st1" d="m141 167.2c-0.3 0-1.6 0.1-1.6-0.1s1.3-0.2 1.6-0.2v0.3c-0.6 0 0-0.2 0 0z"/>
	<path class="st1" d="m165.8 155.5c-0.6 0.5-0.9 0.4-1.7 0.4 0.6-0.5 1-0.4 1.7-0.4-0.1 0.1-0.4 0 0 0z"/>
	<path class="st1" d="m164.1 156.2c-0.4 0-1.7 0.1-1.7-0.2 0.4 0 1.7-0.1 1.7 0.2-0.6 0 0 0 0 0z"/>
	<path class="st1" d="m160.3 156.4c0.4 0 1.6-0.2 1.6 0.3-0.5 0-1.1 0.1-1.6 0.1v-0.4c0.5 0 0 0.1 0 0z"/>
	<path class="st1" d="m149.3 164.2c0.6-0.5 0.9-0.4 1.7-0.4-0.6 0.5-0.9 0.4-1.7 0.4 0.2-0.2 0.4 0 0 0z"/>
	<path class="st1" d="m147.6 164.6c0.6-0.5 0.9-0.4 1.7-0.4-0.6 0.5-0.9 0.4-1.7 0.4 0.1-0.1 0.4 0 0 0z"/>
	<path class="st1" d="m146.3 165.1c0.2-0.8 0.9-0.3 1.3-0.4-0.2 0.8-0.9 0.2-1.3 0.4z"/>
	<path class="st1" d="m141.5 166.4c0.9 0 0.9 0.2 0 0.4 0.1-0.1 0.1-0.2 0-0.4 0.3 0 0.1 0.2 0 0z"/>
	<path class="st1" d="m138.1 167.3c0.9 0 0.9 0.2 0 0.4v-0.4c0.2 0 0 0.1 0 0z"/>
</svg>
