<?xml version="1.0" encoding="utf-8"?>
<!-- Generator: Adobe Illustrator 19.0.0, SVG Export Plug-In . SVG Version: 6.00 Build 0)  -->
<svg version="1.1" id="Layer_1" xmlns="http://www.w3.org/2000/svg" xmlns:xlink="http://www.w3.org/1999/xlink" x="0px" y="0px"
	 viewBox="-20.9 228.6 230 336.7" style="enable-background:new -20.9 228.6 230 336.7;" xml:space="preserve">
<style type="text/css">
	.st0{fill:#FFB81C;}
	.st1{fill:#6F263D;}
	.st2{fill:#041E42;}
	.st3{fill:#FFFFFF;}
</style>
<g>
	<path class="st0" d="M87.3,559.2c-1.1-0.6-27.2-15.8-53.3-46.5c-24.2-28.4-52.9-76.2-52.9-142.4c0-1.9,0-4.1,0-6.7
		c0-1.1,0-3.6,0-3.6v-4.7c0.1-13.8,0.6-40.7,1.7-58.7c0.2-3.7,0.5-6.9,0.7-9.4l0.6-5.8l4.6-3.6c4.4-3.4,10-6.9,16.9-10.4
		c4.8-2.5,10.3-5,16.3-7.6c30.9-14.7,68.1-27.6,68.5-27.7l3.6-1.3l3.6,1.2c0.4,0.1,42.1,14.4,73.9,30.1c7.9,3.5,14.7,7,20.2,10.4
		c2.9,1.8,5.4,3.5,7.6,5.2l4.6,3.6l0.6,5.8c0.1,1.2,0.2,2.6,0.4,4.2c1.3,17.1,2,48.3,2.1,63.9v5.6v2.8c0,2.5,0,4.7,0,6.7
		c0,66.2-28.8,114-52.9,142.4c-26.2,30.8-52.2,45.8-53.3,46.5L94,563L87.3,559.2z"/>
	<path class="st1" d="M94,233.1l1.1,0.4l1.8,0.6c0.4,0.1,42.2,14.5,73.6,30c7.9,3.5,14.6,7,20,10.3c2.8,1.7,5.3,3.4,7.5,5.1l2.7,2.1
		l1.2,0.9l0.1,1.5l0.3,3.4c0.1,1.2,0.2,2.5,0.4,4.1c1.3,17,2,48.1,2.1,63.8c0,1.6,0,3.2,0,4.5v1.1c0,0.8,0,1.6,0,2.3v0.4
		c0,2.5,0,4.8,0,6.7c0,65.6-28.5,112.9-52.4,141c-25.8,30.4-51.7,45.4-52.7,46l-3.9,2.2l-1.7,1l-1.7-1l-3.9-2.2
		c-1.1-0.6-26.9-15.6-52.7-46c-23.9-28.1-52.4-75.5-52.4-141c0-1.9,0-4.1,0-6.7v-0.4c0-0.8,0-1.6,0-2.4v-0.9v-0.2c0-1.4,0-2.9,0-4.5
		c0.1-13.8,0.6-40.7,1.7-58.6c0.2-3.7,0.5-6.8,0.7-9.3l0.2-3.3l0.2-1.5l1.2-0.9l2.7-2.1c4.3-3.3,9.8-6.7,16.5-10.2
		c4.7-2.4,10.2-5,16.2-7.5c30.8-14.6,67.9-27.5,68.3-27.7l1.8-0.6L94,233.1 M94,228.6l-1.4,0.5l-1.1,0.4l-1.8,0.6
		c-0.3,0.1-37.9,13.2-68.7,27.8c-5.9,2.5-11.5,5.1-16.3,7.6c-6.9,3.6-12.7,7.1-17.2,10.6l-2.7,2.1l-1.2,0.9l-1.4,1.1L-18,282
		l-0.2,1.5l-0.3,3.4c-0.3,2.6-0.5,5.8-0.7,9.5c-1.1,18-1.6,45-1.7,58.8c0,1.6,0,3.2,0,4.5l0,0v0.2v0.8c0,0.8,0,1.7,0,2.5v0.4
		c0,2.5,0,4.7,0,6.6c0,66.9,29.1,115.1,53.4,143.8c26.3,31,52.8,46.3,53.9,46.9l3.9,2.2l1.7,1l2.1,1.2l2.1-1.2l1.7-1l3.9-2.2
		c1.1-0.6,27.5-15.9,53.9-46.9c24.4-28.7,53.4-76.9,53.4-143.8c0-1.9,0-4.2,0-6.7v-0.3v-0.3c0-0.7,0-1.4,0-2.1v-1.1
		c0-1.4,0-2.9,0-4.5c-0.1-15.7-0.8-47-2.1-64.1c-0.1-1.6-0.3-3-0.4-4.2l-0.3-3.4l-0.2-1.5l-0.2-1.8l-1.4-1.1l-1.2-0.9l-2.7-2.1
		c-2.3-1.8-4.9-3.6-7.8-5.4c-5.6-3.4-12.5-7-20.5-10.6c-31.3-15.4-72.2-29.5-74-30.1l-1.8-0.6l-1.1-0.4L94,228.6z"/>
	<path d="M201.2,360.8c0,0.8,0,1.5,0,2.3v0.5c0,2.5,0,4.8,0,6.7c0,64.5-28.1,111.1-51.6,138.8c-25.5,30-50.8,44.6-51.8,45.2
		l-3.9,2.2l-3.9-2.2c-1.1-0.6-26.4-15.3-51.8-45.2c-23.5-27.7-51.6-74.3-51.6-138.8c0-1.9,0-4.2,0-6.7v-0.4c0-0.8,0-1.6,0-2.3V360
		v-0.1c0-1.3,0-2.9,0-4.5c0.1-13.7,0.6-40.6,1.7-58.4c0.2-3.6,0.5-6.7,0.7-9.2l0.3-3.4l2.7-2.1c4.1-3.2,9.5-6.5,16-9.9
		c4.7-2.4,10.1-4.9,16-7.5c30.5-14.5,67.7-27.4,68-27.6l1.8-0.6l1.8,0.6c0.4,0.1,41.9,14.4,73.2,29.8c7.7,3.5,14.4,6.9,19.7,10.1
		c2.7,1.6,5.1,3.3,7.1,4.9l2.7,2.1l0.3,3.4c0.1,1.2,0.2,2.6,0.4,4.1c1.3,16.9,2,47.9,2.1,63.5c0,1.6,0,3.1,0,4.5v1.1L201.2,360.8
		L201.2,360.8z"/>
	<path class="st0" d="M82.3,418c1-1.1,2.2-2.2,3.4-3.3l-0.1,14.5l0,0l-0.2,20.5c-12.1,3.7-17.8,4.3-21.9,3.3l-0.5-0.2
		c-1.2-0.5-1.4-1.5-1.4-1.8C61.3,443,75.3,425.6,82.3,418 M107.1,421.1c-0.2,0.4,44.5-25.7,44.5-25.7v-8.9l-2.2-2.2
		c-12-11.4-29.9-11.5-48-6.6v-93.1c0-6.1,0.1-12-0.4-17.4c-0.5-5.5-1.6-10.9-4-15.8l-3-6.2l-2.9,6.3c-2.4,5.3-3.5,10.8-4.1,16.4
		c-0.5,5.5-0.5,11.4-0.6,17.5L86,383c-18.7,7.7-35.9,18.9-45,26.5l-10.1,15.6l12.5-3.1c-19.2,24.1-12.4,39.9-11.6,41.6
		c2,5.7,6.7,10.2,14.1,13.2c5.7,2.3,12.1,2.6,17.7,2.3c6.9-0.3,14.2-1.9,21.5-4.2v3.1c-6.3,3.4-11.3,9.4-14,16.6
		c-1,2.8-1.7,5.8-1.8,8.9c0,0.5,0,2.2-0.2,4.6c-0.2,2.2-0.5,5-1.3,7.7l-0.5,1.6l-1.6,3.9c0.2,0.7,4.6-0.8,6.6-1.6
		c0.3-0.1,0.8-0.3,1.4-0.6c1.1-0.6,2.5-1.6,4.2-3.2c1-1,2-2.1,2.7-3.2c0.8-1,1.4-2,2.1-2.9c0.9-1.2,1.7-2.4,2.5-3.6l0.1,10.4v6.9
		v1.8c-0.3,0.4-0.7,1-1.1,1.7c-0.9,1.7-3.2,7.2-3.4,10.3c-0.1,0.7,2.1,0.6,5.3,0.5c0.4,0,1.1-0.1,1.8-0.2c1.5-0.2,3.4-0.6,5.4-1.2
		c3.6-1.1,9.3-3.7,10.1-9.4l0.3-2.1l-0.6-0.4c7.6-6.7,9.7-14,9.4-20c-0.1-2.1-0.5-4-0.9-5.6l2.7,0.5l3.2,0.6l0.6-3.2
		c1.9-11-4.3-20.2-16.8-22v-6.4c12.2-5.8,23.7-13.4,32.7-21.3l0.4-0.4l3.6-18.3l-7.1,3.9c-11.4,5-21.8,9-29.7,11.8v-41.4
		c2.2-1.3,4.4-2.4,6.5-3.3c5.8-2.5,9.6-3.4,11.4-3.2c-0.5,1.5-1.3,3.4-2.4,5.6C116.8,402,107.5,420.4,107.1,421.1"/>
	<path class="st2" d="M148.9,394l-0.1-5.8l-29.3,17.9c-0.2,0.5-4,7.9-4.4,8.3L148.9,394z"/>
	<path class="st2" d="M38.8,420.1c3.2-0.8,6.8-1.7,10.4-2.5c2-2.4,4-4.5,5.8-6.3c-3.7,0.8-7.7,1.8-11.7,2.7
		C42.6,415,39.3,419.5,38.8,420.1"/>
	<path class="st2" d="M98.4,461.3c-1.5,0.7-3.1,1.4-4.6,2.1c-1,0.4-2,0.9-2.9,1.3c-0.7,0.3-1.4,0.5-2,0.8c-9.3,3.6-18.6,6-27.3,6.4
		c-5.4,0.2-11.3-0.1-16.3-2.1c-4.6-1.8-7.9-4.3-10-7c1.6,4.6,5.4,8.6,12.3,11.4c5,2,10.9,2.3,16.3,2.1c8-0.4,16.5-2.4,25-5.5
		c0.7-0.2,1.4-0.5,2-0.7c1-0.4,2-0.8,2.9-1.2c1.5-0.6,3.1-1.3,4.6-2c12.6-5.8,24.5-13.6,33.9-21.7l1.7-8
		C124.7,445.9,112,454.7,98.4,461.3"/>
	<path class="st1" d="M98.4,393.4c14-7.7,32.9-11.7,21.6,10.3l27.4-16.8c-11.8-11.2-30.4-10.4-49-4.6v0.7V393.4z"/>
	<path class="st1" d="M98.4,449.2c-1.7,0.6-3.2,1.1-4.6,1.6c-1.1,0.4-2.1,0.7-2.9,1c-0.8,0.3-1.5,0.5-2,0.6
		c-0.7,0.2-1.1,0.3-1.1,0.3c-51.5,16-35-17.4-11.5-42.5c2-2.2,7.3-7.1,13-11.3l0.1-13.5c-18.6,7.3-36.3,18.6-46,26.6
		c5.9-1.6,11.9-2.9,17.8-4.3c-51.1,48.9-21.5,74.7,27.5,55.1c0.7-0.3,1.3-0.6,2-0.9c1-0.4,1.9-0.8,2.9-1.3c1.5-0.7,3.1-1.4,4.6-2.2
		c11-5.4,22.6-13,34.3-22.9C118.9,441.8,106.6,446.4,98.4,449.2"/>
	<path class="st2" d="M104.6,392.5c-1.9,0.8-3.9,1.8-6.2,3.2v-2.3V383v-0.7v-97.5c0.1-12,0.3-22.9-4-31.7
		c-4.4,9.7-4.3,20.6-4.4,32.6l-0.5,99.8L89.4,399v0.3v2.3c-4.3,3.2-8.3,6.8-11.5,10.2c-6.6,7.1-21.9,25.7-21.6,35.4
		c0.1,2.5,1,4.3,2.4,5.5c-0.1-0.4-0.1-0.8-0.1-1.2c-0.2-9.7,15-28.3,21.7-35.4c2.6-2.8,5.7-5.6,9.1-8.3l-0.2,19l0,0L89,449
		c0.5-0.2,1.2-0.4,2-0.6l0.1-23.2l0,0l0.1-18.8v-6.1v-2.5l0.1-12.8l0.2-32.9l0.1-82.5c0.5,0.9,2.3,4.4,2.4,17l-0.1,97.5v12v2.4v6
		v18.4l0,0l0,0l-0.1,24.5c1.4-0.5,2.9-1,4.6-1.6V419l0,0v-17.6c3.2-1.9,5.9-3.4,8.5-4.5c6.1-2.6,11.3-4.2,14.1-3.3
		C121.5,386.8,114.1,388.5,104.6,392.5"/>
	<polygon class="st0" points="93.8,422.8 93.8,422.8 93.9,422.8 93.9,422.8 	"/>
	<polygon class="st0" points="93.8,422.8 93.8,422.8 93.9,422.8 	"/>
	<path class="st2" d="M112.8,493.7c-10.9-3-23.7-0.3-29.5,6.7c-2.4,2.9-4.6,7.2-8.8,11.5c0.9-5.3,0.9-7,1-8.9
		c0.7-8.4,5.1-15.5,13.9-19.8c0,0.3,0.1,0.7,0.3,1c0.4,0.6,1,1,1.9,1.2c0.8,0.1-0.5-0.2,0,0c0.1,0,0.3,0.1,0.4,0.1h0.1
		c0.1,0,0.2,0,0.4,0h0.1c0.1,0,0.2,0,0.3,0H93c0.1,0,0.3,0,0.5,0c0.1,0,0.3,0,0.4-0.1c0,0,0,0,0.1,0s0.3,0,0.4-0.1l0,0
		c0.3-0.1,0.5-0.2,0.8-0.3c0.9-0.3,1.7-0.8,2-1.4l0,0c0.1-0.1,0.2-0.3,0.2-0.4c3.2,0.7,5.9,2.3,7.1,4.2c-5.7-0.3-13.9,1.6-20.7,9.5
		c9.4-7.4,20.1-7.5,27-5.7c0.2-4.1-5.4-8.5-8.5-10.2C107.9,483,113.9,487.9,112.8,493.7 M103.9,516.8c2.9-6.1,3.7-16.7-2.9-21.5h2.3
		C109.9,500.7,106.9,514.4,103.9,516.8 M96.4,522.4c6.1-14.6,1.6-25.5,1.7-25.7C105.6,497.8,108.1,514.1,96.4,522.4 M93.1,525.4
		c0,1.2-2.5,1.2-2.5,0.3l0.1-28.1c0.2-0.2,1.9-1,2.6-1.1L93.1,525.4z M98.4,478.1v-7.8c-1.5,0.7-3.1,1.3-4.6,2v8.1
		c0,1.9-3.1,2.2-3,0.8v-7.7c-0.7,0.3-1.4,0.5-2.1,0.7l-0.1,6.1l-0.4,0.3c-6.1,2.9-11.2,8.5-13.7,15.2c0,0.1-0.1,0.2-0.1,0.3
		c-0.9,2.5-1.5,5.2-1.6,7.9c-0.1,1,0.1,7-1.7,13c0,0,1.6-0.2,4.7-3.2c1.7-1.6,3.2-4,4.5-5.6c2.8-3.9,5.1-7.8,8.4-9.5v3.5
		c0,6.6,0.1,24.5,0.1,24.6c0,0.1-2.8,3.1-3.2,8.2c0,0.2,13.9-0.8,14.8-8c0,0-2.7-1.8-2.6-1.8c19.5-13.6,8.7-29.8,8.7-29.8
		c4.7,0.7,7.4,1.1,8.6,1.4C116.9,486.8,111,478.7,98.4,478.1"/>
	<path d="M196.7,388.3c0,0-86.3-49.1-206.5,0c-0.7-10.9,7.2-104,7.2-104h195.5L196.7,388.3z"/>
	<path class="st3" d="M159.4,318.9h-5.6h-7.1c0.2,1.1,0.3,1.7,0.5,2.8c0,3.7,0,7.5,0,11.2c0,1.1,0,1.7,0,2.8c0,9.3,0,18.6,0.1,28
		c2.6,0.2,4,0.3,6.6,0.6c0.4,0,0.6,0.1,0.9,0.1c0-3.8,0-5.7,0-9.5c0-3.4,0-5.1,0-8.5c0.8-0.5,1.2-0.7,2-1.2c1.9,2.9,2.8,4.4,4.7,7.3
		c0,4.2,0,8.3,0,12.5c3,0.3,4.5,0.5,7.5,0.8c0-5.2,0-10.4,0-15.6c-2.1-2.9-4.1-5.8-6.2-8.7c2.5-1.6,3.7-2.4,6.2-4
		c0-3.9,0-7.8,0-11.7c-2.6-2.8-4-4.1-6.6-6.8h-3V318.9z M154.7,336.8c0-0.4,0-0.6,0-0.9c0-1.1,0-1.7,0-2.8v-6.6c0.4,0,0.6,0,0.9,0
		c1.9,0,2.8,0,4.7,0.1c0.4,0.4,0.6,0.6,0.9,1c0,2.3,0,3.5,0,5.8c0,0.4,0,0.6,0,1c-2.6,1.8-3.9,2.7-6.6,4.5
		C154.7,338,154.7,337.6,154.7,336.8"/>
	<path class="st3" d="M143.9,326.3c0-3,0-4.4,0-7.4h-10.4h-7.1c0.2,1.1,0.3,1.6,0.5,2.7c0,13.6,0.1,27.1,0.1,40.7
		c5.7,0.3,11.3,0.7,17,1.1c0-3,0-4.4,0-7.4c-3.8-0.2-5.7-0.3-9.4-0.5c0-4.4,0-8.8,0-13.2c3,0.1,4.5,0.2,7.5,0.3c0-2.6,0-3.9,0-6.5
		c-3-0.1-4.5-0.1-7.5-0.2c0-3.8,0-5.8,0-9.6C138.2,326.2,140.1,326.2,143.9,326.3"/>
	<path class="st3" d="M114.2,318.9c0.2,1.1,0.3,1.6,0.5,2.7c0,4.8,0,9.5,0,14.3c0,1.1,0,1.6,0,2.7c0,7.8,0,15.5,0,23.3
		c3,0.1,4.5,0.1,7.5,0.3c0-2.9,0-4.3,0-7.2c0-5.4,0-10.8,0-16.2c0-1.1,0-1.6,0-2.7c0-4.8,0-9.6,0-14.4c0.2-1.1,0.3-1.6,0.4-2.7h-8.4
		V318.9z"/>
	<path class="st3" d="M44.4,363.5c-2.2-14.9-4.4-29.7-6.5-44.6H25.6c0.2,1.2,0.3,1.7,0.5,2.9c-2.1,14.7-4.2,29.4-6.2,44.1
		c3-0.3,4.5-0.5,7.5-0.8c0.5-3.7,0.7-5.5,1.2-9.2c1.4-0.1,2.1-0.2,3.6-0.3c1.4-0.1,2.1-0.2,3.6-0.3c0.4,3.6,0.7,5.3,1.1,8.9
		C39.9,363.8,41.4,363.7,44.4,363.5 M29.6,348c0.9-7,1.8-14.1,2.7-21.1c0.9,6.9,1.7,13.9,2.6,20.8C32.7,347.8,31.7,347.9,29.6,348"
		/>
	<path class="st3" d="M89.7,361.5c-2.2-14.2-4.4-28.4-6.6-42.7H70.8c0.2,1.1,0.3,1.6,0.5,2.7c-2.1,13.5-4.1,27.1-6.2,40.6
		c3-0.1,4.5-0.2,7.5-0.3c0.5-3.4,0.7-5.1,1.1-8.5c1.4,0,2.1-0.1,3.6-0.1c1.4,0,2.1,0,3.6-0.1c0.5,3.4,0.7,5.1,1.1,8.4
		C85.2,361.6,86.7,361.5,89.7,361.5 M74.8,346.2c0.9-6.6,1.8-13.1,2.6-19.7c0.9,6.5,1.7,13.1,2.6,19.6
		C78,346.1,76.9,346.1,74.8,346.2"/>
	<path class="st3" d="M59.6,318.9c-1.6,12-3.2,24.1-4.8,36.1c-1.6-12-3.1-24.1-4.6-36.1h-7.5c1.8,12.9,3.5,25.9,5.3,38.8
		c1.7,2.1,2.5,3.2,4.2,5.2c3.3-0.2,5-0.3,8.3-0.5c2.2-14.5,4.4-29,6.7-43.6h-7.6L59.6,318.9L59.6,318.9z"/>
	<path class="st3" d="M17.6,330.7c0-2,0-3,0-4.9c-2.6-2.7-3.9-4.1-6.6-6.9H3c-2.6,2.9-4,4.3-6.6,7.3V369c2.6,2.5,3.9,3.8,6.6,6.2
		c3.2-0.5,4.8-0.8,8-1.2c2.6-3.2,3.9-4.8,6.6-7.8c0-5.6,0-8.3,0-13.9c-2.5,2.8-5.1,5.7-7.5,8.6c0,2.8,0,1.4,0,4.2
		c-0.4,0.4-0.6,0.7-0.9,1.1c-1.7,0.2-2.5,0.3-4.2,0.6c-0.4-0.4-0.6-0.5-0.9-0.9c0-12.6,0-25.2,0-37.8c0.4-0.4,0.6-0.6,0.9-1
		c1.7,0,2.5-0.1,4.2-0.1c0.4,0.4,0.6,0.6,0.9,1c0,3.7,0,7.4,0,11C12.6,336.2,15.1,333.4,17.6,330.7"/>
	<path class="st3" d="M193.3,339.6v-13.4c-2.6-3-4-4.4-6.6-7.3H181h-2.8c-2.6,2.8-3.9,4.2-6.6,6.9c0,1.6,0,2.4,0,3.9
		c0,4.1,0,6.2,0,10.3c4.8,4.3,9.5,8.6,14.1,13.1c0,4.3,0,8.5,0,12.8c-0.4,0.4-0.6,0.5-0.9,0.9c-1.9-0.3-2.8-0.4-4.7-0.6
		c-0.4-0.5-0.6-0.7-0.9-1.1c0-3.8,0-7.2,0-7.2l-7.5-5.6v13.9c0,0,4,4.6,6.6,7.8c2.3,0.3,3.4,0.5,5.6,0.9c1.1,0.2,1.7,0.3,2.8,0.5
		c2.6-2.4,3.9-3.7,6.6-6.2V365v-15.1c-4.6-4.5-9.3-8.9-14.1-13.3c0-3.4,0-5.1,0-8.5c0.4-0.4,0.6-0.6,0.9-1c1.9,0,2.8,0.1,4.7,0.1
		c0.4,0.4,0.6,0.6,0.9,1c0,3.5,0,5.9,0,5.9S190.3,337.3,193.3,339.6"/>
	<path class="st3" d="M91.6,318.9c0.4,0.9,0.6,1.3,0.9,2.2c0,4.9,0,9.8,0,14.7v2.7c0,7.7,0,15.4,0,23.1c5.8,0,11.6,0.1,17.5,0.2
		c0.6-2.8,0.8-4.3,1.4-7.1c-3.8-0.1-7.6-0.1-11.3-0.2c0-5.3,0-10.7,0-16c0-1.1,0-1.6,0-2.7c0-4.9,0-9.8,0-14.7
		c0.4-0.9,0.6-1.3,0.9-2.2C101,318.9,91.6,318.9,91.6,318.9z"/>
	<path class="st3" d="M144.5,292.9l-3.1-3.1h-7.1V311h7.3l2.9-2.9L144.5,292.9L144.5,292.9z M140.9,307.1l-0.4,0.4h-2.7v-14.1h0.4
		h2.2l0.4,0.4v13.3C140.8,307.1,140.9,307.1,140.9,307.1z"/>
	<polygon class="st3" points="75.1,293.4 75.1,289.9 70.3,289.9 67,289.9 67.2,291.2 67.2,311 75.1,311 75.1,307.5 70.7,307.5 
		70.7,301.1 74.3,301.1 74.3,298 70.7,298 70.7,293.4 	"/>
	<polygon class="st3" points="98.1,311 98.1,307.5 93.7,307.5 93.7,301.1 97.2,301.1 97.2,298 93.7,298 93.7,293.4 98.1,293.4 
		98.1,289.9 93.2,289.9 89.9,289.9 90.2,291.2 90.2,311 	"/>
	<polygon class="st3" points="99.9,299.6 99.9,311 108,311 108.7,307.5 103.4,307.5 103.4,299.6 103.4,298.2 103.4,291.2 
		103.6,289.9 99.6,289.9 99.9,291.2 99.9,298.2 	"/>
	<polygon class="st3" points="56.8,299.6 56.8,311 65,311 65.6,307.5 60.3,307.5 60.3,299.6 60.3,298.2 60.3,291.2 60.5,289.9 
		56.6,289.9 56.8,291.2 56.8,298.2 	"/>
	<path class="st3" d="M113.9,306.9h1.7h1.7l0.5,4.2h3.5l-3.1-21.2h-5.7l0.2,1.3l-2.9,19.9h3.5L113.9,306.9z M115.6,293.6l1.2,9.7
		h-2.5L115.6,293.6z"/>
	<polygon class="st3" points="80.2,289.9 76.7,289.9 79.2,308.4 81.2,311 85.1,311 88.2,289.9 84.6,289.9 82.4,307.3 	"/>
	<polygon class="st3" points="126.2,299.6 126.2,299.6 129.5,311 129.5,311 132.8,311 132.8,289.9 129.2,289.9 129.3,300.7 
		125.9,289.9 122.4,289.9 122.6,291.2 122.6,311 126.2,311 	"/>
	<polygon class="st3" points="55.2,295.1 55.2,292.9 52.1,289.8 48.4,289.8 45.3,292.9 45.3,308 48.4,311 52.1,311 55.2,308 
		55.2,302.3 51.7,305.9 51.7,307.1 51.3,307.5 49.3,307.5 48.8,307.1 48.8,293.8 49.3,293.4 51.3,293.4 51.7,293.8 51.7,298.7 	"/>
</g>
</svg>
