<?xml version="1.0" encoding="utf-8"?>
<!-- Generator: Adobe Illustrator 19.0.0, SVG Export Plug-In . SVG Version: 6.00 Build 0)  -->
<svg version="1.1" id="Layer_1" xmlns="http://www.w3.org/2000/svg" xmlns:xlink="http://www.w3.org/1999/xlink" x="0px" y="0px"
	 viewBox="0 0 357 208.2" style="enable-background:new 0 0 357 208.2;" xml:space="preserve">
<style type="text/css">
	.st0{fill:#FFFFFF;}
	.st1{fill:#EF3232;}
</style>
<g id="XMLID_22_">
	<path id="XMLID_2_" class="st0" d="M199.9,68c2,0,4.1,0,6.1,0c-0.2,0.3-0.4,1.1-0.6,1.3c-0.2,0.2-1.3,0.1-1.7,0.1
		c-1.4,0.2-2.7,0.7-4.1,0.8c-0.7,0-1.6,0.2-2.2,0.6c-0.5,0.2-0.4,0.5-0.7,1c-0.2,0.5-0.6,0.7-1,1.1c-2.2,2-4.2,4.3-6.4,6.3
		c-2,1.8-4.3,3.5-6.6,4.8c-4.8,2.8-10.4,4.6-15.6,1.8c-2.2-1.2-4.3-3.2-5.6-5.3c-0.4-0.5-0.5-1.2-0.9-1.7c-0.3-0.4,0.1-0.2-0.5-0.3
		c-0.3,0-0.8,0.1-1.1,0.1c-1.4,0.1-2.8,0.4-4.2,0.7c-2.6,0.5-5.1,1.3-7.7,2c-1.4,0.4-2.8,0.6-4.2,0.9c-1.5,0.3-2.9,0.9-4.3,1.4
		c-1.2,0.4-2.4,0.9-3.6,1.3c-1.3,0.4-2.6-0.1-3.8,0.7c-1,0.6-2,0.8-3.1,1.1c-1.4,0.4-2.8,0.7-4.2,1.1c-2.8,0.8-5.6,1.8-8.4,2.7
		c-0.6,0.2-1.2,0.3-1.6,0.7c-0.4,0.4-0.8,0.8-1.3,1.1c-1,0.7-2.3,1-3.5,1.1c-0.5,0-1-0.1-1.5,0c-0.6,0.1-1,0.5-1.6,0.4
		c-0.4-0.1-0.8-0.3-1.2-0.4c-0.5-0.3-1.3-0.9-1.9-0.9c-0.3,0-0.9,0.2-1.2,0.2c-0.3,0.1-0.7,0.2-1,0.2c-0.5,0-0.4,0.1-0.7-0.3
		c-0.3-0.4-0.7-0.8-0.8-1.3c-0.1-0.6-0.1-1.5,0.1-2c0.3-1.1,1.2-1.6,2.2-2c1.5-0.6,3-1.2,4.5-1.7c1.6-0.6,3.2-1.1,4.8-1.6
		c0.3-0.1,0.7-0.1,1-0.3c0.2-0.1,0.3-0.4,0.5-0.5c0.5-0.3,1.2-0.4,1.7-0.5c1.6-0.5,3.2-0.8,4.8-1.4c0.7-0.2,1.3-0.6,2-0.8
		c0.8-0.3,1.6-0.3,2.4-0.6c1.5-0.4,2.8-0.9,4.3-1.1c1.4-0.2,2.6-1,4-1.3c-0.3-0.4-0.6-0.8-0.8-1.2c-0.2-0.4-0.2-0.6-0.2-1.1
		c0-0.4-0.1-0.7,0-1.1c0-0.2,0.1-0.4,0.1-0.6c0.2-0.5,0.4-0.3,0.2-0.9c-0.3-1-0.9-1.6-0.7-2.7c0.2-1.1,0.7-2.3,1.1-3.3
		c0.3-1,0.8-2,1-3c0.2-0.8,0.7-1.4,1-2.2c0.3-0.9,0.4-1.8,0.7-2.7c0.3-0.8,0.8-1.4,0.9-2.2c0.1-0.6,0-0.6,0.3-1.1
		c0.2-0.3,0.5-0.6,0.6-1c0.3-0.7,0.5-1.6,0.7-2.3c0.6-2,1.5-3.9,2.3-5.8c0.4-0.9,0.7-1.8,1-2.7c0.3-1,0.7-1.8,1.2-2.7
		c1-1.7,1.2-3.6,2.2-5.3c1.1-2,1.7-4.1,2.6-6.2c0.4-1,1-1.9,1.4-2.8c0.4-1,0.8-2.1,1.2-3.1c-0.9,0.7-1.8,1.4-2.6,2.1
		c-0.4,0.3-0.7,0.6-1.1,0.9c-0.4,0.3-0.9,1-1.4,1.1c-0.4,0.1-1.3-0.2-1.7-0.3c-0.3-0.1-1.2-0.3-1.5-0.2c-0.4,0.1-0.8,0.8-1.1,1.1
		c-0.5,0.5-0.7,0.8-1.4,0.8c-0.9,0-1.6-0.4-2.3-0.8c-0.5-0.3-1.8-0.9-1.9-1.5c-0.2-0.7,0.8-1.8,1.3-2.2c0.9-0.7,1.9-1.4,2.7-2.1
		c1.8-1.4,3.5-2.9,5.3-4.2c1.7-1.2,3.5-2.4,5.1-3.8c1.5-1.2,3.2-2.2,4.8-3.3c0.8-0.6,1.6-1.2,2.3-1.9c0.2-0.2,0.7-1,0.9-1
		c0.3-0.1,1.1,0.6,1.3,0.7c0.5,0.3,0.6,0.3,1.2,0.2c0.6-0.2,0.7,0,1,0.6c0.4,0.8,0.4,1.7,0.6,2.6c0.1,0.4,0.1,0.9,0.3,1.2
		c0.3,0.4,0.8,0.8,1.1,1.1c0.4,0.3,0.7,0.7,1.1,1c0,0,0.6,0.5,0.6,0.5c0,0.1-0.6,0.6-0.6,0.7c-0.4,0.4-0.4,0.4,0,0.9
		c0.2,0.2,0.4,0.5,0.8,0.6c0.5,0.2,0.6,0,1,0.3c0.4,0.3,1,0.9,1.3,1.4c0.3,0.5,0.2,0.1,0,0.6c-0.1,0.2-0.3,0.5-0.4,0.7
		c-0.3,0.5-0.7,1.1-1,1.7c-0.5,0.9-1.1,1.8-1.7,2.6c-0.6,0.9-1.1,1.8-1.5,2.8c-0.5,0.9-1.2,1.7-1.7,2.6c-1.1,1.9-2.1,3.9-3.1,5.8
		c-1,2-1.9,4-2.9,6c-1.1,2.1-2.1,4.2-3,6.4c-0.9,2.2-2.4,4.2-2.9,6.5c-0.3,1.1-1,1.9-1.4,2.9c-0.5,1.1-0.9,2.2-1.4,3.3
		c-0.5,1.2-1.1,2.3-1.7,3.5c-0.5,1.2-0.9,2.4-1.5,3.6c-0.5,1-1.1,2-1.5,3c-0.4,1.1-0.7,2.5-1.5,3.3c1,0,1.5,0,2.4-0.3
		c0.9-0.4,1.9-0.5,2.8-0.6c0.8-0.1,1.5-0.4,2.2-0.6c0.8-0.2,1.7,0,2.5-0.2c0.9-0.2,1.6-0.5,2.5-0.6c0.7-0.1,1.3-0.5,2.1-0.7
		c0.8-0.2,1.7-0.3,2.5-0.6c0.9-0.3,1.6-0.2,2.6-0.2c0-3.2,0-6.4,0-9.6c-0.4,0.1-0.9,0.2-1.2,0.2c-0.4,0-0.5-0.1-0.8-0.4
		c-0.7-0.7-0.5-1.7-0.4-2.6c0.1-1,0.4-1.9,0.6-2.8c0.2-0.8,0.1-1.6,0.4-2.5c1.4-4,2.7-8,4.3-11.9c3.2-7.5,7.2-14.7,11.8-21.4
		c1.1-1.6,2.5-2.9,3.6-4.4c1.2-1.5,2.3-2.9,3.6-4.2c1.1-1,2.4-3,4-3.2c0.7-0.1,1.5,0.2,1.9,0.7c0.2,0.3,0.4,0.7,0.3,0.9
		c0,0.3-0.5,0.7,0.2,0.6c0.3-0.1,0.8-0.6,1-0.8c0.4-0.3,0.8-0.6,1.1-0.9c0.7-0.6,1.4-1.3,2.1-1.8c1.5-1,3.2-2.1,4.8-2.9
		c3.1-1.3,7.4-1,10.2,0.8c1.8,1.1,3.3,2.7,4.5,4.4c0.6,0.8,0.8,1.7,1.3,2.6c0.4,0.9,1,1.5,1.2,2.5c0.2,0.8,0.6,1.5,0.7,2.3
		c0.1,1.2,0.1,2.4,0.4,3.5c0.2,1.1,0.1,1.7-0.3,2.7c-0.3,0.7-0.1,1.6-0.1,2.3c0.7-1.3,1.7-2.4,2.8-3.4c0.4-0.4,0.9-0.7,1.4-1
		c0.6-0.4,1.3-0.6,1.8-1.1c1.2-1.2,2-2.8,3.1-4.1c1-1.2,2.1-2.3,3.2-3.3c2.4-2.3,4.7-4.7,7.5-6.7c1.3-0.9,2.6-1.8,4.1-2.6
		c1.4-0.7,2.7-1.6,4.3-2.1c0.7-0.2,1.4-0.4,2-0.7c0.4-0.2,0.5-0.3,0.9-0.3c0.4,0,0.7-0.1,1.1-0.2c1.6-0.3,3.2-0.5,4.8-0.4
		c1.5,0.1,3.1,0.6,4.4,1.3c0.5,0.2,0.9,0.4,1.4,0.6c0.7,0.3,1.1,0.8,1.6,1.4c1,1,2.1,2,2.7,3.3c0.6,1.3,0.9,2.8,1.4,4.2
		c0.3,0.7,0.6,1.5,0.6,2.3c0,0.9,0,1.6,0.3,2.4c0.5,1.6,0.3,3.3,0.2,4.9c-0.2,1.8-0.3,3.5-0.7,5.3c-0.4,1.6-0.5,3.1-1,4.7
		c-0.5,1.5-0.5,3-1,4.5c-0.6,1.6-1.2,3.2-1.8,4.8c-2.3,6.3-5.2,12.4-8.7,18.1c-1.7,2.9-3.7,5.5-5.8,8.1c-2.1,2.6-4.3,5-7,6.9
		c-1.3,0.9-2.8,1.4-4.2,2.1c-1.3,0.7-2,1.9-3.1,2.8c-2.2,1.8-5.1,3.1-8,3.1c-1.4,0-2.6-0.7-3.9-1.3c-1.4-0.7-2.4-1.6-3.2-2.9
		c-0.4-0.7-0.8-1.4-1.1-2.2c-0.3-0.7-0.3-1.6-0.6-2.2c-0.5-1-1.9-1.6-2.7-2.4c-1.8-1.9-2.6-4.5-3.1-7c-0.7-3.2-0.8-6.7-0.5-10
		c0.1-0.6,0.2-1.3,0.4-1.8c0.2-0.3,0.5-0.7,0.4-1c-0.1-0.2-0.5-0.5-0.7-0.6c-0.5,1.4-1.6,3.2-1.5,4.7c0,1.6,0.1,3.5-0.6,5
		c-0.7,1.6-1.6,3.2-2.4,4.7C201.6,65.1,200.4,66.3,199.9,68C201.9,68,200.4,66.2,199.9,68z M178,31.9c0.6,0,0.2-0.4,0.4-0.7
		c0.1-0.3,0.8-0.8,1.1-1.1c0.9-1.2,1.8-2.3,2.8-3.5c0.8-1,1.6-1.9,2.5-2.8c0.9-1,1.5-2.2,2.4-3.2c0.7-0.8,1.5-1.8,2.5-2.3
		c0.5-0.2,0.9-0.3,1.4-0.3c0.1,0,0.8,0,0.9,0.2c0.1,0.1,0,0.9,0,1.1c-0.1,0.9-1.8,2.1-2.4,2.8c-0.9,1-1.7,2.1-2.5,3.2
		c-1.6,2.3-3.2,4.5-4.6,6.9c-1.3,2.3-2.8,4.4-4.1,6.6c-0.6,1.1-1.2,2.1-1.7,3.2c-0.3,0.6-0.7,1.2-1,1.7c-0.3,0.5-0.3,1.1-0.6,1.7
		c-0.2,0.5-0.7,1-1,1.5c-0.3,0.5-0.5,1-0.7,1.5c-0.5,1.2-0.8,2.3-1.2,3.5c-0.2,0.6-0.4,1.3-0.7,1.9c-0.3,0.6-0.7,1.2-0.8,1.8
		c-0.3,1.4-0.7,2.8-1,4.2c-0.3,1.5-0.6,3.1-0.8,4.6c-0.2,1.6,0,3.2,0,4.9c1.1-0.4,2.2-0.4,3.3-0.7c1.3-0.3,2.5-0.4,3.8-0.6
		c1.3-0.2,2.6-0.3,4-0.4c0.5,0,1.6-0.3,1.9,0c0.4,0.3,0.7,1.3,0.9,1.7c-2.6,1.5-5.8,1.5-8.7,1.9c0.8,0.3,1.6,0.6,2.4,0.3
		c0.4-0.1,0.8-0.3,1.2-0.3c0.4,0,0.8,0,1.3,0c0.8-0.1,1.4-0.5,2.3-0.5c0.9,0,1.5,0.1,2.2-0.5c1.6-1.4,3-3,4.3-4.7
		c4.5-5.7,8-12.3,10.4-19.2c0.2,0.1,0.8,0.3,1,0.5c0.2,0.2,0.3,0.6,0.3,0.8c0.3,0.6,0.1,1.1-0.2,1.8c-0.5,1.1-1.2,2.1-1.5,3.3
		c-0.4,1.1-0.6,2.3-1.2,3.4c-0.3,0.5-0.6,0.9-0.9,1.4c-0.4,0.6-0.3,0.9-0.3,1.6c1.1-1,1.6-2.4,2.3-3.6c0.9-1.6,1.9-3.1,2.6-4.8
		c0.3-0.6,0.3-1.2,0.7-1.7c0.4-0.8,1-1.4,1.4-2.2c0.3-0.7,0.8-1.3,1-2c0.2-0.6,0.1-1.2,0.5-1.7c0.2-0.4,0.6-0.7,0.7-1.1
		c0.1-0.3,0-0.5,0.1-0.8c0.2-0.4,0.4-0.8,0.6-1.2c0.6-1.4,0.8-2.9,1.3-4.4c1.1-3.3,1.7-6.6,2.3-10c0.3-2,0.1-4.2-0.1-6.1
		c-0.1-0.8-0.2-1.7-0.4-2.5c-0.2-0.7-0.3-1.4-0.6-2c-0.3-0.8-0.9-1.4-1.3-2.2c-0.3-0.7-0.7-1.4-1.2-2c-0.5-0.5-1.2-0.9-1.8-1.3
		c-1.3-0.9-2.9-1.1-4.4-0.7c-1.5,0.5-3.2,1.1-4.5,2c-1.4,1-2.7,2.2-3.9,3.4c-2.9,2.9-5.6,5.8-7.9,9.2c-1.1,1.6-2.1,3.2-3.2,4.8
		c-0.4,0.7-0.9,1.3-1.1,2.1c-0.1,0.2-0.1,0.5-0.2,0.6c-0.1,0.1-0.3,0.1-0.3,0.3C178,31.4,178.1,31.6,178,31.9
		c-0.1-0.1-0.5,0.2-0.3,0.4C177.9,32.1,178,32,178,31.9C178.7,31.8,178,32,178,31.9z M238.4,58.3c0.8,0.6,2.4-2.4,2.8-3
		c0.8-1.2,1.8-2.3,2.6-3.6c0.4-0.6,0.7-1.3,1-1.9c0.4-0.6,0.8-1.2,1.1-1.9c0.8-1.4,1.7-2.8,2.4-4.3c0.7-1.5,1.3-3,1.9-4.6
		c0.6-1.5,1.4-3,1.9-4.5c0.5-1.5,0.7-3.2,1-4.8c0.3-1.7,0.8-3.3,1.2-5c0.4-1.6,0.5-3.4,0.7-5.1c0.2-1.7,0-3.5-0.4-5.1
		c-0.6-2.5-1.3-5.5-3.5-7.1c-0.5-0.4-1.1-0.4-1.7-0.6c-0.8-0.3-1.3-0.3-2.1,0C246.8,7,246,7,245.3,7.2c-0.8,0.2-1.5,0.5-2.2,1
		c-2.9,1.7-5.4,3.8-7.6,6.4c-1.1,1.3-2.3,2.6-3.4,4c-1,1.3-1.7,2.6-2.7,3.9c-0.9,1.3-1.6,2.7-2.4,4.1c-0.7,1.4-1.6,2.7-2.2,4.2
		c-0.3,0.7-0.6,1.4-0.7,2.2c0,0.3,0,0.7,0,1c0.1,0.5,0.3,0.8,0.2,1.3c-0.2,0.6-0.9,1.2-1.2,1.8c-0.4,0.7-0.5,1.6-0.8,2.3
		c-0.5,1.5-0.8,3-1.4,4.5c-0.2,0.6-0.5,1.2-0.7,1.9c-0.1,0.3-0.1,0.6-0.1,0.9c0,0.5-0.2,0.8-0.3,1.3c-0.5,1.4-0.6,3.1-0.8,4.6
		c-0.2,1.6-0.2,3.3-0.2,5c0,1.7,0.4,3.4,0.9,5c0.6,1.6,1.7,2.4,3,3.5c0.7,0.5,1,0.6,1.9,0.6c0.6,0,1.2-0.1,1.8-0.2
		c1.1-0.2,2.1-0.8,2.9-1.5c1.1-1,2.1-2.1,3-3.3c1-1.2,2.1-2.4,3-3.8c0.8-1.3,1.4-2.7,2.4-3.9c1-1.3,1.4-2.8,2.2-4.2
		c0.7-1.4,1.3-2.8,2-4.2c0.4-0.8,0.7-1.5,1.1-2.3c0.3-0.7,0.6-2,1.2-2.5c0.2-0.2,0.5-0.2,0.9-0.2c0.6,0,0.6-0.1,0.8,0.3
		c0.2,0.2,0.2,0.6,0.3,0.9c0.2,0.6,0.1,0.7-0.1,1.2c-0.7,1.6-1.5,3.1-2,4.7c-1,2.8-2.4,5.5-3.9,8.1c-0.7,1.3-1.5,2.6-2.1,4
		C238.5,59,238.6,59.1,238.4,58.3c-0.1,0.1-0.1,0.3-0.1,0.4C238.3,58.6,238.4,58.5,238.4,58.3C238.5,58.4,238.2,58.9,238.4,58.3z
		 M172.5,78.6c2.5-1.3,5.2-2.6,7.2-4.7c-1,0.2-2.1,0.3-3.1,0.6c-1.3,0.3-2.5,0.8-3.8,0.9c-0.6,0-1,0.2-1.5,0.3
		c-0.5,0.1-0.8-0.1-1,0.3C169.7,77.2,171.8,78.1,172.5,78.6C173.9,77.9,171.7,78,172.5,78.6z M223.3,78c0.6-0.3,1.1-0.7,1.7-1
		c0.5-0.3,1-0.4,0.9-1c-1.6,0.5-3.6,0.2-5.2-0.2c-1.4-0.4-2.5-1.3-4-1.4c1.1,1,2.1,1.9,3.2,2.9c0.6,0.5,0.8,0.8,1.5,0.8
		C222.1,78,222.7,78,223.3,78C224.3,77.4,222.6,78,223.3,78z"/>
	<path id="XMLID_3_" class="st1" d="M212.4,175.7c0.8-0.2,1.5-0.1,2.3-0.2c0.8-0.1,1.4-0.5,2.3-0.5c0.8,0,1.4-0.2,2.2-0.4
		c0.8-0.2,1.6-0.2,2.4-0.3c1.8-0.2,3.6-0.8,5.5-0.9c0.8-0.1,1.5,0,2.2-0.3c0.8-0.3,1.5,0,2.3-0.1c0.7-0.1,1.2-0.4,2-0.4
		c0.8,0,1.5-0.4,2.3-0.5c1.9-0.1,3.6-0.4,5.4-0.8c1.8-0.4,3.6-0.6,5.4-0.9c0.7-0.1,1.4,0.1,2.1-0.1c0.4-0.1,0.6-0.4,0.9-0.5
		c0.3-0.1,0.9,0,1.3,0c1-0.1,2.1-0.1,3.1-0.2c1-0.1,1.9-0.5,2.9-0.6c2.1-0.2,4.2,0.1,6.3-0.1c-0.4,0.3-0.7,0.8-1.1,1.1
		c-0.5,0.3-1,0.2-1.6,0.3c-1.3,0.2-2.5,0.3-3.7,0.5c-1.2,0.2-2.3,0.8-3.5,1c-0.5,0.1-1,0-1.6,0.1c-0.6,0.1-1.1,0.4-1.6,0.5
		c-0.6,0.1-1.4,0.1-2,0.2c-0.6,0.1-1.2,0.2-1.8,0.3c-1.4,0.3-2.7,0.4-4.1,0.6c-2.6,0.5-5.1,1.4-7.7,1.7c-2.6,0.2-5.3,0.7-7.8,1.3
		c-1.2,0.3-2.3,0.9-3.5,1c-1.4,0.2-2.8,0.3-4.2,0.5c-1.3,0.2-2.5,0.4-3.8,0.6c-1.4,0.2-2.6,0.6-4,0.9c-2.5,0.6-4.9,0.9-7.4,1.4
		c-1.5,0.3-3,0.5-4.5,0.8c-1.5,0.3-2.9,0.9-4.4,1.2c-0.7,0.1-1.4,0.1-2,0.4c-0.7,0.3-0.7,0.7-0.7,1.4c0,0.2,0,0.5,0,0.7
		c0.1,0.3,0,0.5-0.4,0.4c-0.2,0-0.5,0.1-0.7,0.1c-0.8,0.1-1.5,0.3-2.3,0.4c0-0.6,0.1-1.2,0-1.8c-0.1-0.5,0-0.3-0.3-0.4
		c-0.3-0.1-0.7-0.1-1,0c-0.5,0.1-0.8,0.3-1.3,0.5c-0.5,0.2-0.8,0.1-1.3,0.1c-0.3,0.1-0.6,0.3-0.9,0.4c-0.1,0-0.3-0.1-0.4-0.1
		c-0.1,0-0.3,0.2-0.4,0.3c-0.4,0.2-0.8,0-1.2,0c-0.5,0.1-0.9,0.3-1.5,0.4c-2.4,0.4-4.8,0.9-7.2,1.4c-1.3,0.3-2.5,0.6-3.7,0.9
		c-1.2,0.4-2.4,0.5-3.6,0.7c-1.2,0.2-2.4,0.5-3.6,0.7c-1.2,0.3-2.7,0.4-3.8,0.8c-2,0.9-4.2,0.9-6.3,1.6c-0.5,0.2-1,0.4-1.6,0.4
		c-0.5,0-1,0-1.5,0.2c-1,0.4-2.1,0.7-3.2,1.1c-0.5,0.2-1,0.4-1.5,0.5c-0.4,0-0.8-0.1-1.2,0c-0.3,0.1-0.4,0.3-0.7,0.4
		c-0.2,0.1-0.6,0.1-0.8,0.1c-0.7,0.1-1.4,0.2-2.1,0.4c-0.7,0.1-1.4,0.2-2.1,0.4c-0.7,0.1-1.2,0.4-1.9,0.7c-1.2,0.5-2.6,0.7-3.9,1
		c-1.3,0.3-2.7,0.5-4,0.8c-1,0.2-2.5,0.5-3.3,1.1c-3.9,0.9-7.9,1.6-11.7,2.9c-1.8,0.6-3.7,0.9-5.6,1.4c-0.5,0.1-0.9,0.3-1.4,0.4
		c-0.2,0.1-0.5,0.2-0.7,0.3c-0.1,0-0.2-0.1-0.3-0.1c-0.4,0.2-0.4,0.7-0.7,0.9c-0.1,0.1-0.2,0-0.3,0c-0.1,0.1-0.3,0.2-0.5,0.3
		c-0.4,0.2-0.8,0.4-1.2,0.6c-0.9,0.4-1.8,0.6-2.7,0.8c-0.9,0.2-1.7,0.6-2.6,0.8c-1,0.2-2,0.1-3,0.2c-0.9,0.2-1.7,0.4-2.7,0.4
		c-0.5,0-1,0-1.6-0.1c-0.4-0.1-1.5-0.2-1.8-0.5c-0.1-0.1,0-0.5-0.1-0.6c-0.1-0.1-0.4-0.1-0.5-0.1c-0.5-0.1-0.9-0.1-1.4,0
		c-1,0.1-1.8,0.6-2.7,0.8c-0.7,0.2-1.5,0.1-2.1-0.3c-0.3-0.2-0.6-0.4-0.9-0.7c-0.4-0.4-0.5-0.6-0.4-1.1c0.2-1.4,0.9-2.7,2.1-3.5
		c1.4-1,3.4-1.3,5.1-1.8c0.9-0.3,1.9-0.4,2.8-0.7c0.9-0.3,1.7-0.8,2.7-1.1c2-0.6,4.1-1.1,6.2-1.7c2-0.5,3.8-1.3,5.8-1.8
		c1.9-0.5,4-0.6,5.8-1.5c1.9-0.8,4-1.1,6-1.6c2.1-0.5,4.2-1.1,6.3-1.6c0.9-0.3,1.9-0.6,2.8-0.8c0.5-0.1,1.1,0,1.5-0.1
		c0.1,0,0.2-0.3,0.3-0.3c0.2-0.1,0.4-0.1,0.6-0.1c0.3,0,0.5,0,0.8-0.1c0.3-0.1,0.5-0.3,0.8-0.4c0.3-0.1,0.7,0,1,0
		c0.5,0,0.7-0.3,1.2-0.5c0.8-0.4,1.6-0.3,2.5-0.4c0.9-0.1,1.6-0.6,2.5-0.7c0.9-0.1,1.7-0.4,2.6-0.5c1-0.2,2-0.3,3-0.5
		c0.9-0.2,1.7-0.7,2.7-1c0.9-0.2,1.8-0.4,2.8-0.6c2-0.5,4.1-0.8,6.1-1.2c0.5-0.1,1-0.1,1.4-0.2c0.3-0.1,0.6-0.4,1-0.5
		c0.8-0.2,1.5-0.2,2.3-0.5c0.9-0.4,1.6-0.2,2.6-0.3c0.4,0,0.8-0.3,1.3-0.4c0.4-0.1,0.9,0,1.3-0.1c1.6-0.5,3.3-0.5,4.9-1
		c4-1.3,8.2-1.6,12.3-2.4c2-0.4,3.8-1.1,5.9-1.2c0.3,0,1.2,0.1,1.5-0.1c0.2-0.1,0.4-0.6,0.5-0.8c0.3-0.5,0.5-0.6,0.4-1.3
		c-0.1-0.5,0-1.1,0-1.6c0.1-1,0.3-1.9,0.4-2.9c0.1-1,0.1-1.9,0.3-2.9c0.1-0.4,0.2-2.6-0.6-1.6c-0.4,0.6-0.6,2.1-0.6,2.8
		c0,1.2,1,4.5-1.1,4.5c-0.5,0-1-0.2-1.5-0.2c-0.2,0-0.5,0-0.7-0.1c-0.6-0.2-0.2,0-0.5-0.4c-0.4-0.7-0.6-1.8-0.8-2.6
		c-0.2-1-0.2-2-0.3-3.1c-0.1-1.1-0.2-2.3-0.3-3.4c-0.1-2.1,0-4.3,0-6.4c0-4.3,0.5-8.7,0.4-13c-0.1-2.1,0.3-4.2,0.4-6.4
		c0-1,0.1-1.9,0.2-2.9c0.1-1.1,0.1-2.2,0.2-3.4c0.1-0.9,0.4-1.7,0.4-2.6c0.1-1,0-2,0.2-3c-0.8,0.5-1.2,0.5-2.1,0.6
		c-1,0.1-2,0.4-2.9,0.7c-1.9,0.6-3.7,1.4-5.6,2.1c-3.9,1.3-7.8,2.5-11.6,4c-1.7,0.6-3.3,1.5-5,1.9c-0.8,0.2-1.4,0.4-2.1,0.9
		c-0.7,0.5-1.5,0.8-2.3,1.2c-1.8,0.8-3.7,1.4-5.4,2.3c-1.7,0.9-3.4,1.9-5,2.8c-0.9,0.5-1.8,0.8-2.7,1.3c-0.8,0.5-1.6,1-2.4,1.5
		c-0.9,0.6-1.9,1-2.8,1.6c-0.8,0.5-1.9,0.9-2.2,1.9c1.7-0.5,3.2-1.4,4.9-1.9c1.7-0.5,3.4-0.8,5-1.4c3.4-1.3,7-2.2,10.5-3.4
		c1.8-0.6,3.6-1.2,5.5-1.6c1.7-0.4,3.3-1.1,5-1.5c3.5-0.8,7.1-1.5,10.6-2.4c0.4-0.1,0.7-0.3,1-0.4c0.4-0.2,1-0.1,1.4-0.2
		c0.5-0.1,1-0.1,1.5-0.2c0.4,0,1.1-0.3,1.5-0.2c0.6,0.2,0.9,1.4,0.9,2c0,0.8-0.1,1.7,0.4,2.5c-0.8,0.5-1.6,1-2.5,1.4
		c-0.9,0.4-1.9,0.6-2.8,0.9c-2,0.6-4,1.1-6,1.6c-2,0.5-3.9,1.5-5.9,1.9c-1,0.2-1.9,0.4-2.8,0.7c-1,0.3-2,0.4-3,0.7
		c-4.2,1.3-8.4,2.6-12.6,4c-2.1,0.7-4.2,1.4-6.3,2.2c-2,0.7-4,1.3-5.9,2c-0.8,0.3-1.4,0.7-2.1,1.1c-0.4,0.2-0.8,0.3-1.2,0.4
		c-0.5,0.2-0.7,0.4-1.2,0.8c-1.3,1.2-3.2,2.1-4.8,2.8c-1.6,0.7-3.5,1.3-5.3,1.4c-0.7,0-1.4-0.1-2.1-0.5c-0.3-0.2-0.7-0.5-0.8-0.9
		c-0.2-0.5,0.1-0.8,0.4-1.1c0.5-0.5,1-1.1,1.5-1.4c0.1-0.1,0.4-0.2,0.5-0.3c0.3-0.3,0.2,0.2,0.2-0.4c0-0.5-0.4-0.9-0.4-1.4
		c0-0.2,0.3-0.6,0.4-0.8c0.3-0.4,0.5-0.4,1-0.6c0.8-0.4,1.6-0.9,2.3-1.3c0.7-0.4,1.3-0.8,2.1-1.1c0.4-0.2,0.8-0.2,1.2-0.4
		c0.5-0.2,1-0.7,1.4-1c1.7-1.4,3.5-2.7,5.3-4c1.9-1.4,3.8-2.7,5.8-3.9c2-1.2,3.9-2.6,6-3.7c1-0.5,2.1-1,3.1-1.5
		c0.9-0.4,1.7-1,2.6-1.4c1-0.5,2-0.7,3-1c0.4-0.1,0.5-0.5,0.8-0.7c0.4-0.2,1.2-0.1,1.7-0.2c-0.2-0.3-0.3-0.6-0.5-0.9
		c-0.3,0.3-0.6,0.5-0.9,0.8c-0.4,0.4-0.6,0.4-1.2,0.5c-1.2,0.2-2.3,0.6-3.5,0.9c-2.2,0.7-4.4,1.6-6.6,2.3c-1,0.3-2.1,0.4-3,0.8
		c-1.1,0.4-2.2,0.9-3.4,1.3c-1,0.3-2,0.6-3,0.6c-1.1,0.1-2.3-0.1-3.4,0c-0.7,0-0.8,0-1.1-0.6c-0.2-0.5-0.3-0.7,0.1-1.1
		c0.5-0.6,1.2-0.9,1.9-1.3c0.2-0.1,0.7-0.3,0.8-0.5c0.3-0.6-0.3-1.1,0.2-1.5c0.6-0.5,1.5-0.4,2.2-1c0.5-0.5,0.2-0.6-0.2-1.1
		c-0.4-0.5-0.3-0.7,0.1-1.2c0.5-0.7,1.2-1,2-1.3c2.2-0.8,4.4-1.3,6.6-2.1c4.3-1.4,8.4-3.2,12.7-4.3c4.5-1.2,8.8-2.9,13.2-4.4
		c2.1-0.7,4.2-1.5,6.3-1.9c1.7-0.3,3.3,0.3,5,0.1c1.1-0.2,2.2-0.6,3.3-0.7c0.5-0.1,1-0.1,1.5-0.2c0.5-0.1,1.7-0.1,2.1-0.4
		c0.5-0.3,0.2-2.2,0.2-2.8c0.1-0.8,0.1-2.6,0.7-3.2c0.4-0.4,1.1-0.5,1.5-0.8c0.5-0.4,0.2-0.7,0.3-1.3c0.1-0.5,0.4-0.8,0.8-1.2
		c0.3-0.2,0.3-0.3,0.7-0.3c0.3,0,0.8,0.1,1,0c0.3-0.2,0.2-0.7,0.2-1c0-0.5,0.1-0.9,0.3-1.4c0.2-0.5,0.2-0.9,0.3-1.5
		c0.1-0.6,0.3-1.1,0.4-1.6c0.1-1,0.4-1.8,0.8-2.8c0.4-1,1.1-1.8,1.6-2.8c0.2-0.4,0.4-0.8,0.5-1.2c0.1-0.3-0.1-1.5,0.1-1.7
		c0.1-0.2,1.2-0.3,1.5-0.4c0.2,0,0.5-0.2,0.7-0.2c0.5,0,0.6,0.1,1,0.4c0.4,0.3,1.1,0.6,1.2,1.1c0.1,0.4-0.2,1.1-0.3,1.6
		c-0.2,1-0.2,2.1-0.4,3.1c-0.2,1.1-0.6,2.1-0.9,3.1c-0.2,0.7-0.2,0.1,0.1,0.5c0.1,0.2,0.5,0.3,0.7,0.5c0.6,0.4,0.4,0.7,0.4,1.4
		c-0.1,1-0.2,1.8-0.5,2.8c-0.3,0.9-0.1,1.8-0.5,2.6c-0.1,0.3-0.2,0.4-0.3,0.8c-0.1,0.2,0,0.6-0.1,0.8c0,0.5-0.1,1.1-0.1,1.6
		c-0.1,1.3-0.2,2.6-0.4,3.9c-0.2,0.9-0.1,1.7-0.2,2.6c0,0.5-0.3,0.7-0.5,1.2c-0.1,0.4,0.1,1.1,0.1,1.6c0,2.3-0.5,4.5-0.5,6.7
		c0,1.2-0.4,2.3-0.4,3.4c0,1.1,0.1,2-0.2,3.1c-0.3,1.1-0.3,2.3-0.2,3.5c0.1,1.1-0.1,2.2-0.3,3.3c-0.2,1.1-0.1,2.3-0.1,3.4
		c0,0.6,0,1.2,0,1.8c0,0.3-0.1,1.7,0.3,1.1c0.3-0.4,0.4-1.3,0.6-1.7c0.2-0.5,0.3-1,0.5-1.5c0.4-1.2,0.7-2.4,1-3.6
		c0.7-2.3,1.6-4.4,2.3-6.7c0.3-1,0.6-2.1,0.9-3.1c0.4-1.1,0.9-2.1,1.3-3.2c0.9-2.1,1.7-4.3,2.5-6.4c0.8-2,1.4-4.1,2.4-6.1
		c0.5-0.9,0.8-1.7,1.1-2.6c0.3-1,1-1.9,1.5-2.8c1-2,1.8-4,3.1-5.9c0.6-0.9,1.1-1.7,1.5-2.7c0.4-0.9,0.7-1.8,1.5-2.5
		c0.3-0.3,0.6-0.5,0.9-0.7c0.4-0.3,0.6-0.4,1.1-0.3c0.3,0.1,1.2,0.8,1.5,0.8c0.3-0.1,1-1.3,1.2-1.5c2.8-3.7,5.5-7.4,8.2-11.2
		c1.3-1.9,2.7-3.8,4.1-5.7c0.6,0.5,1.2,0.7,1.6-0.1c0,0.5,0.1,0.9,0.1,1.4c0,0.5-0.1,0.7-0.4,1.2c-0.5,0.8-1.1,1.6-1.7,2.3
		c-1.2,1.5-2.2,3.1-3.2,4.6c-1.1,1.6-2.4,3.1-3.4,4.8c-0.3,0.4-0.2,0.8-0.4,1.1c-0.2,0-0.3,0-0.4,0.2c-0.1,0.1-0.1,0.2-0.1,0.3
		c0,0.1,0,0.2,0,0.4c-0.2,0-0.3,0-0.4,0.2c-0.1,0.2,0,0.5,0,0.7c-0.1-0.1-0.5,0.1-0.3,0.4c0.2-0.2,0.5-0.4,0.7-0.6
		c0.1-0.2,0.1-0.6,0.2-0.7c0,0,0.2-0.1,0.3-0.2c0.1-0.1,0-0.3,0-0.4c0.1-0.2,0-0.2,0.1-0.3c0.1-0.2,0.4-0.3,0.6-0.4
		c0.6-0.5,1-1.2,1.5-1.9c0.5-0.7,1.2-1.4,1.7-2.1c1.3-1.7,2.6-3.3,4-4.9c0.4-0.4,0.7-0.8,1.1-1.2c0.4-0.5,0.6-0.9,1.3-0.9
		c1,0,1.9-0.1,2.9,0.1c0.5,0.1,0.9,0.2,1.2,0.7c0.1,0.1,0.3,0.5,0.3,0.6c0.2,0.5,0.2,0.3,0,0.7c-0.4,0.9-0.9,1.8-1.3,2.7
		c-1,1.9-2.3,3.5-3.6,5.2c-0.5,0.7-1,1.9-1.8,2.4c-0.7,0.5-1.5,0.5-2.2,1c-1.3,1-2.3,2.5-3.3,3.9c-2.6,3.6-4.9,7.5-7.1,11.4
		c-2.1,3.8-4.4,7.6-6.2,11.5c-1.9,4-3.9,8.1-5.5,12.3c-0.8,2-1.7,3.8-2.5,5.8c-0.8,1.9-1.3,3.9-2,5.8c-1.9,4.5-3.3,9.2-4.9,13.8
		c-0.8,2.3-2,4.4-2.1,6.9c0,0.6,0,1.2,0,1.7c0,0.3,0,0.4,0.1,0.6c0.3,0.6,0.3,0.1,0.2,0.7c-0.1,0.5-0.3,0.9-0.3,1.4
		c0,0.5,0.1,1,0,1.5c2.2-0.6,4.5-1.1,6.8-1.4c1.2-0.1,2.4-0.2,3.5-0.6c1.1-0.3,2.2-0.3,3.3-0.5c1-0.2,2.1-0.4,3.1-0.6
		c1.2-0.2,2.4-0.5,3.6-0.6c1.2-0.2,2.4-0.3,3.6-0.2c0.7,0,0.9,0.2,1.3,0.7c0.4,0.4,0.7,0.8,1.1,1.2c-1.1,0.3-2.1,0.9-3.2,1.1
		c-1.1,0.2-2.1-0.1-3,0.5c-1,0.6-2.1,0.6-3.2,0.8C213.7,175,212.5,174.8,212.4,175.7c-0.1-0.3-0.4-0.2-0.8-0.2
		c-0.4,0-1.1-0.1-1.5,0.1c-0.7,0.3,0,0.2,0.4,0.2C211.2,175.8,211.8,175.8,212.4,175.7C213.5,175.3,211.6,175.8,212.4,175.7z
		 M184,119.4c-0.2-0.2-0.7-0.8-0.7-0.1c0,0.4,0.4,0.7,0.7,0.9c0.7,0.5,1.5,0.8,1.8,1.7c0.1-0.5,0.2-0.9,0.3-1.4
		c0.1-0.3,0.3-1,0.3-1.2C186,118.4,184.5,119.2,184,119.4C183.8,119.2,184.7,119.1,184,119.4z M206.8,176c0.8,0.3,1.7,0.5,2.5,0
		C208.5,176,207.7,176,206.8,176z M156.6,132.3c0-0.1,0-0.3,0-0.4c-0.3,0-1,0-1.2,0.3C155.4,132.4,156.5,132.3,156.6,132.3
		C156.6,132.2,156.2,132.3,156.6,132.3z M206,176.8C206.4,176.8,206,175.8,206,176.8C206.1,176.8,206,176.7,206,176.8z"/>
	<path id="XMLID_123_" class="st1" d="M328.6,117.6c-0.3,0.2-0.6,0.5-1,0.7c-0.5,0.2-0.9,0.1-1.4,0.1c-0.5,0-1.2,0-1.6-0.2
		c-0.7-0.3-0.2-0.9,0-1.4c-0.7-0.2-1.5,0.3-2.2,0.6c-0.7,0.3-1.4,0.6-2.1,0.8c-1.5,0.5-2.9,1.3-4.3,1.9c-1.5,0.6-3,1.1-4.4,1.8
		c-0.7,0.3-1.5,0.7-2.2,0.9c-0.7,0.2-1.4,0.2-2,0.8c1.9,0,3.9,0,5.8,0c1.7,0,3.5-0.2,5.2-0.1c1.7,0.1,3.4,0.5,5.1,0.5
		c1.8,0,3.6,0,5.3,0c0.8,0,1.7-0.1,2.5,0.2c0.7,0.2,1.2,0.3,1.9,0.3c0.9-0.1,1.6,0,2.4,0.2c0.8,0.2,1.7,0,2.5,0.2
		c1.5,0.3,3.3,0.4,4.8,1c0.8,0.3,1.5,0.9,2.1,1.5c0.1,0.1,0.8,0.7,0.8,0.9c0,0.2-0.5,0.8-0.5,0.9c0.7,0.2,1.3,0.4,2,0.5
		c0.6,0.2,0.7,0.2,1,0.7c0.2,0.3,0.3,0.6,0.4,0.9c0.3,0.7,0.5,1.5,0.6,2.3c0.1,0.7,0.6,2,0.4,2.6c-0.1,0.5-1.9,0.9-2.4,1.1
		c-0.9,0.3-1.7,0.7-2.6,1c-1.8,0.6-3.6,1.2-5.4,1.6c0.2,0.5,0.4,1.1,0.6,1.6c0.1,0.2,0.1,0.4,0.2,0.6c0.2,0.5,0.2,0.4,0,0.8
		c-0.5,0.8-1.7,1.3-2.6,1.6c-1,0.3-2,0.5-3,0.8c-0.6,0.2-1.2,0.3-1.8,0.4c-0.7,0.1-0.8,0.2-1.2,0.8c-0.3,0.4-0.5,1.1-0.9,1.5
		c-0.3,0.3-1.2,0.5-1.6,0.7c-1.1,0.5-2.3,0.9-3.4,1.4c-1.1,0.4-2.2,0.8-3.2,1.2c-1.1,0.4-2,1-3.1,1.4c-2.3,0.9-4.4,2.1-6.7,3
		c-1,0.4-1.9,0.7-2.8,1.3c-1,0.7-2,1.1-3.1,1.6c-4.3,1.9-8.5,4.2-12.7,6.4c-2.4,1.2-4.8,2.4-7.1,3.8c-1.1,0.6-2.1,1.3-3.2,1.9
		c-0.5,0.2-1,0.5-1.6,0.4c-0.2,0-0.4-0.1-0.6-0.2c-0.6-0.1-0.3-0.2-0.9,0.3c0-0.4,0-0.8-0.1-1.2c-0.5,0.1-1,0.2-1.6,0.4
		c-0.8,0.2-1,0.4-1.5-0.3c-0.3-0.5-0.7-0.9-1-1.4c-0.5-0.6-0.2-0.7,0.2-1.4c-0.5,0-0.9,0-1.4,0c-0.7,0-0.7,0-0.7-0.7
		c0-1,0-1.9,0-2.9c0-0.4,0-0.6,0.2-0.9c0.3-0.3,0.8-0.6,1.1-0.8c0.6-0.4,1.5-0.6,2-1.1c0.5-0.4,0.7-0.9,1.3-1.3
		c0.7-0.5,1.3-1.1,1.9-1.8c1.4-1.4,2.8-2.9,4.2-4.3c2.4-2.4,4.8-4.7,6.9-7.2c0.6-0.7,1.3-1.4,1.9-2c0.5-0.5,0.7-1,1.1-1.5
		c0.4-0.5,1-0.7,1.7-0.8c0.6,0,0.6-0.1,1,0.3c0.3,0.3,0.5,0.9,0.7,1.3c0.6-0.6,1.3-1.1,1.9-1.7c0.2-0.2,0.6-0.7,0.9-0.8
		c0.3-0.1,0.5,0.1,0.8,0.3c0.2,0.1,0.8,0.3,0.9,0.5c0.1,0.2,0,0.9,0,1.1c0,0.8-0.3,1.2-0.8,1.9c-1.8,2.4-3.9,4.7-6.1,6.7
		c0.8,0.2,1.3-0.2,2-0.6c0.8-0.4,1.7-0.8,2.5-1.3c1.7-0.8,3.4-1.7,5-2.5c3.4-1.7,6.7-3.4,10.1-5.1c6.8-3.4,13.7-6.9,20.5-10.3
		c-1-0.1-2-0.3-3-0.5c-1-0.2-2.1-0.1-3.1-0.1c-2.4,0-4.9-0.3-7.3-0.4c-2.4-0.1-4.9,0-7.3,0.1c-2.4,0-4.9,0-7.3-0.1
		c-2.3,0-4.5,0.6-6.9,0.4c-2.3-0.2-4.6,0-6.8,0.4c-2.1,0.4-4.1,0.3-6,1.2c-0.9,0.4-1.8,0.6-2.8,0.6c-0.5,0-1-0.1-1.5-0.2
		c-0.4-0.1-1.4-0.2-1.7-0.4c-0.6-0.4-0.6-2.7-0.7-3.5c-0.1-0.7,0.2-0.7,0.7-1.2c0.3-0.3,0.6-0.7,1-1c0.4-0.3,0.8-0.5,1.1-0.8
		c0.4-0.3,0.5-0.6,0.8-1.1c0.3-0.6,0.6-1.2,0.9-1.8c0.1-0.1,0.3-0.5,0.3-0.5c0.1-0.1,0.5-0.1,0.2-0.4c-0.3,0.4-0.2,0.3-0.6,0.3
		c-0.2,0-0.4,0-0.7,0.1c-0.5,0.1-1,0.4-1.5,0.6c-1.2,0.6-2.4,1.1-3.7,1.5c-1.2,0.4-2.3,0.7-3.5,1.2c-0.5,0.2-1,0.3-1.4,0.5
		c-0.6,0.3-1.2,0.7-1.8,1c-1.1,0.5-2.2,0.8-3.4,1.2c-1.3,0.5-2.5,1.1-3.8,1.5c-2.5,0.9-4.7,2.2-7.2,3.2c-1.1,0.4-2.1,1.2-3.2,1.7
		c-1.2,0.6-2.3,1-3.5,1.6c-2.3,1.1-4.5,2.4-6.7,3.6c-1.1,0.6-2.1,1.1-3.2,1.6c-1.2,0.6-2.2,1.5-3.3,2.2c-1,0.6-2.1,0.9-3.1,1.5
		c-1,0.6-2,1.3-3,1.9c-0.6,0.3-1.3,0.4-1.8,0.8c-0.5,0.3-0.8,0.8-1.3,1.1c-1,0.6-2.1,1-3,1.6c-1.2,0.9-2.4,1.6-3.6,2.4
		c-0.6,0.4-1.2,0.8-1.8,1.2c-0.4,0.3-1,0.7-1.3,1.1c1.5-0.2,2.8-0.8,4.1-1.4c1.5-0.7,3.1-1.2,4.6-1.7c1.5-0.5,2.9-1.2,4.3-1.7
		c1.4-0.5,2.9-0.7,4.3-1.2c0.6-0.2,1.2-0.6,1.7-0.9c0.7-0.3,1.4-0.5,2.1-0.7c1.5-0.5,3-1.3,4.5-1.6c1.3-0.3,2.5-1.1,3.8-1.3
		c0.6-0.1,1.2-0.3,1.8-0.6c0.7-0.3,1.5-0.5,2.2-0.7c3-1.1,6.1-2,9.1-3.1c1.6-0.5,3.2-1,4.9-1.5c1.4-0.4,3-0.5,4.3-1.1
		c1.3-0.6,2.7-0.7,4.1-1c0.7-0.1,1.4-0.1,2-0.1c0.7,0,1.3-0.4,2-0.3c0.4,0.1,0.8,0.5,1.2,0.5c0.3,0,0.4-0.1,0.7-0.3
		c0.3-0.2,0.5-0.2,0.9-0.2c0.6,0,0.9-0.3,1.4-0.4c0.8-0.1,1.5-0.2,2.2-0.4c0.3-0.1,0.9-0.5,1.2-0.5c0.3,0,0.8,0.5,1,0.7
		c0.2,0.1,1,0.5,1,0.7c0,0.1-0.1,0.6-0.1,0.7c0,0.4,0.3,0.9,0.1,1.3c-0.3,0.6-1.4,0.6-2,0.7c-3.5,0.8-6.8,2.2-10.3,3
		c0.3,0.4,0.7,0.8,0.9,1.2c0.2,0.4,0.2,0.8,0.2,1.3c0,0.3,0,0.6,0,1c0,0.6,0.1,0.4-0.4,0.7c-0.5,0.3-1.4,0.3-2,0.5
		c-2.5,0.6-5,1.3-7.5,2c-4.7,1.3-9.5,2.5-14.3,3.9c-4.9,1.4-9.6,3.2-14.5,4.8c-2.3,0.8-4.5,1.7-6.7,2.8c-2.1,1-4.3,1.7-6.3,2.8
		c-2.3,1.3-4.7,2.5-6.8,4c-0.5,0.3-1.1,1-1.7,1.2c-0.4,0.1-0.1,0.2-0.5,0.1c-0.2-0.1-0.6-0.4-0.8-0.5c-0.1-0.1-0.5-0.3-0.6-0.4
		c-0.3-0.1-0.4-0.3-0.2-0.6c0-0.1,0-0.2,0.1-0.3c0.2-0.7,0.3-1.4,0.5-2.1c-0.4,0-0.8-0.1-1.2,0c-0.4,0.2-0.8,0.5-1.2,0.8
		c-0.8,0.5-1.7,1-2.5,1.6c-0.7,0.5-1.7,1.3-2.5,1.5c-1,0.2-2,0-2.5-0.9c-1-1.8,1.8-3,3-3.7c0.8-0.5,1.7-1,2.4-1.6
		c0.8-0.6,1.6-1,1.9-1.9c-0.6,0-1.4,0-2-0.1c-0.5-0.1-0.4-0.2-0.6-0.7c-0.1-0.4-0.3-0.9-0.2-1.2c0.2-0.5,1-1,1.4-1.4
		c0.5-0.5,1.1-1.1,1.7-1.5c0.5-0.4,1.2-0.7,1.7-1c0.6-0.4,1.2-1,1.8-1.4c1.2-0.9,2.4-1.6,3.7-2.4c1.3-0.8,2.5-1.5,3.7-2.4
		c1.1-0.8,2.4-1.4,3.6-2.2c2.4-1.7,5.2-3,7.8-4.5c1.7-1,3.5-1.9,5.2-2.9c0.8-0.5,1.7-0.9,2.5-1.4c0.7-0.4,1.5-0.7,2-1.4
		c0,0.1,0,0.1,0,0.2c0.3,0,0.9,0,1.1-0.1c0.4-0.3-0.2-0.3-0.5-0.3c-0.8,0.1-1.6,0.5-2.4,0.7c-1.5,0.4-3.1,0.8-4.7,1.3
		c-1.6,0.5-3,1.4-4.7,1.8c-1.7,0.4-3.4,1.1-5.1,1.7c-3.6,1.2-7,2.6-10.6,3.7c-1.6,0.5-3.2,1.1-4.8,1.6c-0.8,0.3-1.5,0.7-2.3,0.8
		c-0.8,0.1-1.4-0.4-2.2-0.5c-0.4,0-0.9,0.1-1.2-0.2c-0.2-0.2-0.4-0.9-0.4-1.2c-0.1-0.7,0.6-1.3,1.2-1.6c0.6-0.4,1.3-0.8,1.9-1.1
		c0.8-0.4,1.7-0.6,2.4-1.3c0,0.1,0,0.1,0,0.2c0.4-0.1,0.9-0.1,1.3-0.2c-0.5-0.6-1-0.1-1.5,0c-0.7,0.2-2,0.3-2.5-0.2
		c-0.6-0.6-0.1-1.1,0.2-1.8c0.3-0.6,0.7-1.2,1.1-1.7c0.9-1.2,2-1.4,3.4-1.8c1.6-0.5,3-1.3,4.6-1.9c3.2-1.3,6.3-2.7,9.6-3.6
		c1.3-0.4,2.5-1.2,3.8-1.5c0.7-0.2,1.4-0.3,2.1-0.6c0.7-0.3,1.4-0.7,2.2-0.8c0.3,0,0.5,0,0.8,0c0.3-0.1,0.6-0.4,0.8-0.5
		c0.7-0.4,1.5-0.7,2.3-0.9c1.5-0.4,3-0.8,4.5-1.3c0.7-0.2,1.2-0.7,1.9-0.9c0.7-0.3,1.5-0.4,2.3-0.7c1.5-0.6,3.1-0.9,4.7-1.4
		c1.6-0.5,3.1-1.2,4.8-1.6c1.7-0.4,3.2-1,4.9-1.5c1.7-0.5,3.3-1,4.9-1.6c0.8-0.3,1.5-0.4,2.3-0.5c0.9-0.1,1.7-0.4,2.5-0.7
		c1.8-0.7,3.6-1.3,5.5-1.7c0.9-0.2,1.9-0.2,2.8-0.4c0.8-0.2,1.5-0.8,2.3-0.8c0.4,0,0.9,0.2,1.3,0.3c0.3,0.1,1.4,0.3,1.5,0.5
		c0.1,0.2-0.1,1-0.2,1.3c-0.1,0.4,0,1-0.2,1.4c-0.1,0.3-0.5,0.5-0.8,0.8c-0.2,0.1-0.4,0.3-0.6,0.4c-0.3,0.3-0.2,0.1-0.1,0.6
		c0.2,1,0.8,2,1.2,3c0.7-0.4,1.3-0.9,2-1.3c0.8-0.4,1.6-0.5,2.3-1.1c1.5-1.2,3.4-1.7,5.2-2.4c1.8-0.6,3.5-1.7,5.4-2.2
		c2-0.5,3.9-1.5,5.9-2.1c0.9-0.3,1.8-0.4,2.7-0.7c0.9-0.3,1.8-0.7,2.6-1c0.8-0.3,1.6-0.4,2.3-0.8c0.5-0.2,0.7-0.4,1.2-0.5
		c0.6-0.1,1.2-0.1,1.8-0.3c2-0.5,4-1.4,6-2c2.1-0.6,4.2-1.1,6.3-1.7c0.9-0.2,1.8-0.6,2.5-1.2c0.7-0.7,1.2-1.6,1.9-2.3
		c0.3-0.3,0.7-0.6,0.8-1.1c0.2-0.5,0.2-1.1,0.4-1.7c0.3-1.3,0.5-2.5,0.8-3.8c0.5,1.5-0.1,2.9-0.3,4.4c0.7-0.7,1.4-1.4,2-2.2
		c0.6-0.9,1.3-1.7,2.2-2.4c0.4-0.4,0.9-0.7,1.4-1c0.5-0.3,0.9-0.3,1.5-0.3c0.6,0,1.1,0,1.7,0c0.4,0,0.6,0,1-0.2
		c0.2-0.2,0.4-0.5,0.6-0.7c0.4-0.2,1.3,0,1.7,0c0.3,0,0.7,0.1,1,0c0.6-0.1,0.2,0,0.5-0.3c0.4-0.4,0.4-1.1,0.8-1.5
		c0.4-0.4,0.1-0.2,0.5-0.3c0.4-0.1,0.9,0,1.3,0c0.3,0,0.7-0.1,1,0c0.6,0.1,0.3-0.1,0.4,0.4c0.1,0.5-0.1,1.2-0.3,1.6
		c-0.4,1-1.1,1.9-1.7,2.8c-0.7,0.9-1.3,1.9-1.9,2.7c-0.3,0.4-0.8,0.7-1.1,1.1c-0.4,0.5-0.8,1-1.2,1.5c-0.7,0.9-1.3,1.9-2,2.7
		c-0.4,0.5-0.8,0.9-1.1,1.4c-0.1,0.2-0.2,0.6-0.3,0.7c-0.2,0.3-0.5,0.5-0.7,0.7c-0.7,0.7-1.3,1.5-1.8,2.4c-0.7,1-1.5,1.9-2.2,2.9
		c-1.5,2.2-3.2,4.3-4.7,6.5c-0.5,0.6-0.9,1.3-1.3,1.9c-0.4,0.6-0.6,1-1.3,1.2c-0.5,0.1-0.5,0.2-0.9-0.1c-0.2-0.2-0.3-0.7-0.5-0.8
		c-0.4-0.2-1.3,0-1.7-0.1c-0.8-0.1-1.7-0.2-2.4-0.6c-0.5-0.3-0.6-0.3-0.3-0.8C328.4,118.6,328.7,118.2,328.6,117.6
		c0.1,0.1,0.5-0.1,0.3-0.4C328.8,117.3,328.7,117.5,328.6,117.6C328.3,117.8,328.7,117.5,328.6,117.6z"/>
	<path id="XMLID_5_" class="st1" d="M42.8,187.7c-0.8,0.1-1.1,0.3-1.7,0.7c0-1.1-0.1-2.2-0.1-3.3c-0.2,0.5-0.6,0.9-0.8,1.4
		c-0.2,0.5-0.2,0.8-0.3,1.3c-0.2,0.7-0.9,1-1.1,1.7c-0.4,1.1-0.6,2.2-1.2,3.2c-0.5,0.9-0.9,1.9-1.5,2.8c-0.3,0.4-0.7,0.9-1.1,1.1
		c-0.5,0.3-1.1,0.3-1.6,0.2c-1.2-0.1-1.1-1.4-0.9-2.4c0.1-0.6,0.3-1.1,0.5-1.7c0.1-0.2,0.3-0.6,0.3-0.8c-0.1-0.4-0.4-0.2-0.3-0.5
		c0-0.3,0.5-0.9,0.6-1.2c0.2-0.5,0.2-1.1,0-1.6c-0.3,0.8-0.6,1.6-0.9,2.4c-0.1,0.2-0.2,0.9-0.4,0.9c-0.1,0-0.7-0.2-0.8-0.2
		c-0.6-0.2-1.2-0.5-1.5-1c-0.2-0.4-0.2-0.4-0.1-0.8c0.1-0.3,0.2-0.6,0.2-0.9c0.4-1.5,1.3-2.6,2-4c0.4-0.7,0.5-1.5,0.9-2.1
		c0.3-0.6,0.8-1.2,1.2-1.9c1.8-2.9,3.2-6,4.9-8.8c0.8-1.4,1.8-2.7,2.5-4.1c0.7-1.3,1.4-2.5,2.1-3.7c-0.7,0.1-1.5,0-2.1-0.3
		c-0.3-0.1-0.7-0.4-0.9-0.7c-0.2-0.4-0.1-0.5,0.3-0.8c0.5-0.5,1.2-0.6,1.9-0.9c0.4-0.2,0.8-0.4,1.2-0.6c0.4-0.3,0.4-0.4,0.5-0.9
		c-1.4,0-2.3,1-3.5,1.6c-1.4,0.6-2.9,1.3-4.3,2c0.3-3.9,4.7-5.5,7.6-6.9c0.9-0.4,1.8-0.9,2.7-1.3c0.9-0.4,2.2-0.8,2.7-1.7
		c1.1-1.9,2.2-3.9,3.4-5.8c2.3-3.8,4.5-7.8,6.8-11.7c1.1-1.9,2.1-3.8,3.2-5.6c0.6-0.9,1.1-1.9,1.7-2.8c0.5-0.8,0.8-1.8,1.3-2.6
		c0.3-0.5,0.6-0.8,1-1.2c0.4-0.4,0.6-0.8,0.8-1.3c0.6-1.2,1.2-2.3,1.8-3.5c0.3-0.5,0.5-1.4,0.9-1.8c0.3-0.3,1.1-0.4,1.6-0.6
		c0.5-0.2,0.8-0.3,1.3,0c0.3,0.2,0.3,0.1,0.5,0.5c0.1,0.3,0.1,0.6,0.2,0.9c1.4-1.1,2.2-2.6,3.4-3.8c0.5-0.5,1.3-1.3,2-1.4
		c0.4,0,0.9,0.4,1.4,0.4c0.3,0,0.6-0.1,0.8,0.1c0.1,0.1,0.3,0.6,0.3,0.7c0.8-0.7,1.7-2.1,2.9-2.2c0.4,0,1,0.3,1.1,0.8
		c0.1,0.2,0,0.3,0,0.5c0,0.1-0.1,0.2-0.1,0.3c0,0.1-0.1,0.2-0.1,0.3c0.1,0.1,0.1,0.1,0.2,0.2c-0.1,0.5-0.8,1.1-1.2,1.5
		c-0.6,0.7-1.2,1.4-1.7,2.1c-1,1.4-2,2.7-3.1,4.1c-4.2,5.3-8.2,10.9-11.9,16.5c-1.1,1.6-2.1,3.2-3.1,4.9c-0.5,0.8-1,1.6-1.4,2.4
		c-0.4,0.7-1.3,1.7-1.1,2.6c0.8-0.7,1.9-0.9,2.9-1.4c1-0.5,1.9-1.1,3-1.5c1-0.4,2.1-0.6,3.1-1.2c1-0.6,2-1.1,3.1-1.5
		c2.2-0.8,4.3-1.9,6.5-2.8c1-0.4,2.1-0.7,3.1-1.3c0.4-0.2,0.8-0.5,1.3-0.7c0.5-0.2,1.1-0.2,1.5-0.4c0.7-0.3,0.6-1.5,1-2.2
		c0.6-1,1.2-1.9,1.7-2.9c1.1-2.2,2.3-4.3,3.6-6.4c1.3-2.1,2.4-4.4,3.6-6.6c0.3-0.5,0.5-0.9,0.8-1.4c0.4-0.6,0.3-0.9,1.1-0.9
		c0.5,0,1.2,0.1,1.7,0c0.6-0.1,0.2,0,0.6-0.3c0.3-0.3,0.6-0.7,0.8-1.1c0.4-0.5,0.7-0.9,1.1-1.4c0.3-0.4,0.8-1.3,1.2-1.6
		c0.3-0.2,1.3-0.2,1.7-0.2c0.7-0.1,1.3-0.2,2-0.3c0.6-0.1,0.9,0,1.2-0.6c0.1-0.2,0.3-0.9,0.4-1c0.1,0,0.6,0,0.6,0
		c0.5,0,1.2-0.1,1.7,0c0.7,0.2,0.2-0.1,0.4,0.3c0.1,0.3,0,0.9-0.1,1.2c-0.3,0.5-0.8,1-1.2,1.5c-0.2,0.2-0.5,0.5-0.6,0.8
		c-0.3,0.6-0.2,0.1,0,0.6c0.1,0.4,0.9,1,0.9,1.5c0,0.4-1.2,1.6-1.5,1.9c-1.6,2-3.2,4.1-4.7,6.2c-1.5,2.2-2.9,4.6-4.4,6.8
		c-1.4,2.1-2.4,4.3-3.8,6.4c-1.3,2-2.5,4.1-3.6,6.2c-1.2,2.2-2.5,4.4-3.7,6.6c-2.7,5.2-5.1,10.5-7.7,15.8c-0.6,1.3-1.3,2.6-1.9,3.9
		c-0.3,0.6-0.6,1.5-1.1,1.9c-0.4,0.4-1.5,0.2-2.1,0.2c-0.4,0-0.6-0.1-0.8,0.2c-0.2,0.2-0.2,0.8-0.3,1.1c-0.2,0.5-0.3,1.1-0.6,1.5
		c-0.6,0.7-1,0.8-1.8,0.8c-0.1,0-0.7,0.1-0.8,0c-0.3-0.2-0.6-1-0.8-1.3c-0.5,1.4-1,2.9-1.6,4.2c-0.6,1.3-1.4,3.1-3,3.4
		c-0.3,0.1-0.5,0-0.8-0.2c-0.4-0.2-0.4-0.2-0.4-0.6c0-0.8,0.6-1.7,0.9-2.4c0.6-1.5,1.2-2.9,1.8-4.4c0.6-1.5,1.3-2.8,1.9-4.3
		c0.7-1.7,1.3-3.3,2.1-5c1.4-3.1,2.9-6.1,4.4-9.2c0.8-1.7,1.8-3.3,2.6-5c0.7-1.6,1.7-3.1,2.5-4.6c-1.8,1.1-4,1.6-5.9,2.6
		c-0.9,0.4-1.7,0.9-2.6,1.4c-0.9,0.5-2,0.7-2.9,1.2c-3.4,1.8-7,3.3-10.6,4.9c-0.9,0.4-1.6,0.9-2.4,1.4c-0.3,0.2-0.7,0.3-0.9,0.6
		c-0.2,0.3-0.2,0.8-0.3,1.2c-0.3,0.7-0.9,1.2-1.2,1.9c-0.4,0.8-0.5,1.6-0.9,2.4c-0.4,0.7-0.5,1.6-0.9,2.3c-0.2,0.4-0.5,0.7-0.7,1
		c-0.3,0.5-0.5,1.1-0.7,1.6c-0.9,2-1.9,4-2.8,5.9c-1,2.2-2,4.4-3,6.6C45.1,183.7,44.3,185.9,42.8,187.7
		C42.6,187.7,44.2,186.1,42.8,187.7z M71,147.2c-0.3,0.1-0.7-0.1-1.1,0c0,0-0.1,0.1-0.1,0.1c0,0.3-0.1,0.3-0.4,0.2
		c-0.2,0.1-0.5,0-0.7,0.1c-0.6,0.1-0.7,0.6-1.2,0.8c-0.2,0.1-0.7,0-1,0.1c-0.3,0.1-0.5,0.3-0.8,0.4c-0.5,0.3-1,0.6-1.5,0.9
		c-0.5,0.3-0.9,1-1.4,1c-1.1,0.2-2-0.2-2.7,1.1c1.2-0.4,2.4-1.2,3.6-1.4c1.3-0.2,2.3-1.2,3.4-1.9c0.5-0.3,0.8-0.2,1.4-0.3
		c0.5-0.1,0.8-0.7,1.3-0.8c0.3-0.1,0.6,0.1,0.9,0C70.7,147.6,71.1,147.1,71,147.2c0.2-0.2,0.5-0.1,0.3-0.4
		C71.1,146.9,71,147.1,71,147.2C70.5,147.4,71,147,71,147.2z M72.7,146.2C72.7,145.9,71.7,146.2,72.7,146.2
		C72.7,146.1,72.6,146.2,72.7,146.2z"/>
	<path id="XMLID_6_" class="st1" d="M75.1,106.9c1.1-0.2,2.6-0.5,2.8,0.9c0,0.2,0,0.5,0,0.8c0,0.5,0,0.4-0.3,0.7
		c-0.5,0.4-1.3,0.7-1.9,1c-2.8,1.3-5.6,2.3-8.5,3.4c-2.8,1.1-5.5,2.4-8.3,3.5c-1.1,0.4-2.3,0.6-3.4,1.2c-0.3,0.2-0.8,0.6-0.7,1
		c0,0.4,0.1,0.3,0.5,0.4c0.4,0.1,0.8,0.1,1.2,0.2c-1.1,0.2-1.8,1-2.4,1.8c-0.8,1.2-1.6,2.4-2.4,3.6c-1.6,2.5-3.2,5-4.9,7.4
		c-1.6,2.3-3.1,4.8-4.6,7.2c-1.5,2.4-3.1,4.7-4.4,7.1c-0.6,1.2-1.4,2.2-2.2,3.3c-0.8,1.1-1.4,2.3-2.1,3.4c-0.7,1.2-1.4,2.3-2.1,3.5
		c-0.6,1.2-1.5,2.3-2,3.5c-1.2,2.5-2.8,4.8-4,7.2c-0.6,1.1-1.1,2.2-1.8,3.2c-0.7,1.2-1.7,2.3-2.3,3.6c-1.3,3-3,5.8-4.6,8.6
		c-0.4,0.6-0.7,1.4-1.1,1.9c-0.4,0.5-0.9,0.6-1.4,1c-1,0.7-1.6,2-2,3.1c-0.2-0.8-0.2-1.6-0.5-2.4c-0.3-1,0.3-1.8,0.7-2.6
		c0.4-1,0.8-1.9,1.2-2.9c0.3-0.7,0.3-0.7-0.2-1.2c-0.5-0.6-0.5-0.5,0-1.1c-0.4,0-0.9,0-1.3,0c0.3-1,0.5-1.9,0.3-2.9
		c-0.1-0.4-0.5-1-0.5-1.4c0-0.4,0.6-1.2,0.8-1.6c0.3-0.9,0.6-1.7,1.1-2.5c0.5-0.9,1.1-1.5,1.5-2.5c1.3-4.2,4.2-7.9,6.3-11.8
		c2.2-4,5-7.8,7.5-11.7c2.5-4,5.1-8,7.8-11.9c0.7-1,1.4-2,2.1-3.1c0.3-0.5,0.7-1.1,1-1.6c0.3-0.6,0.6-0.8,1.1-1.2
		c0.9-0.7,1.7-1.2,2.6-1.8c0.5-0.3,0.9-0.8,1.4-1.2c0.5-0.4,0.4-0.5,0.5-1.2c-1.6,0.7-3.3,1.3-4.9,2.1c-0.9,0.4-1.8,0.9-2.7,1.2
		c-0.7,0.3-1.5,0.4-2.3,0.8c-0.8,0.4-1.5,0.9-2.3,1.2c-0.8,0.3-1.6,0.6-2.4,0.9c-1.7,0.7-3.3,1.6-5.1,2.3c-1.8,0.7-3.4,1.6-5.2,2.4
		c-1.6,0.7-3.4,1.3-4.8,2.4c-0.7,0.5-1.6,0.3-2.5,0.3c-1,0-1.7,0.3-2.6,0.6c-0.9,0.3-1.8,0.2-2.6,0.4c-0.8,0.2-1.5,0.6-2.2,0.9
		c-0.1-0.4-0.2-0.7-0.3-1.1c-0.1,0.1-0.2,0.2-0.4,0.3c0-0.8-0.1-1.3,0.5-1.9c0.5-0.5,1.1-0.8,1.7-1.1c1-0.4,3-0.6,3.6-1.6
		c0.2-0.4,0-0.4,0.1-0.9c0-0.3,0.2-0.5,0.3-0.8c0.2-0.6,0.3-0.7,0.9-1c0.3-0.2,0.9-0.5,0.8-1c-0.1-0.3-0.6-0.2-0.8-0.5
		c-0.2-0.2,0.1-0.9,0.4-1.2c0.4-0.6,1.5-0.9,2.2-1.2c0.8-0.4,1.7-0.8,2.5-1.2c1.6-0.8,3.2-1.6,4.8-2.4c3.1-1.6,6.3-3.2,9.4-4.8
		c3-1.5,6.1-2.7,9.1-4.2c1.5-0.7,3-1.5,4.6-2c0.6-0.2,1-0.3,1.5-0.6c0.6-0.4,1.1-0.8,1.8-1.1c0.7-0.3,1.5-0.4,2.2-0.6
		c0.8-0.3,1.5-0.6,2.2-1c1.5-0.8,3.1-1.4,4.7-2.1c1.6-0.6,3.1-1.4,4.6-2c0.7-0.3,1.5-0.6,2.3-0.8c0.8-0.2,1.4-0.6,2.1-1
		c1.5-0.8,3.3-1.3,5-1.9c1.8-0.6,3.5-1.5,5.2-2.1c0.9-0.3,1.8-0.6,2.7-1c0.4-0.2,0.8-0.3,1.3-0.5c0.4-0.2,1-0.6,1.4-0.6
		c0.6,0,1,1,1.6,1.2c0.2,0.1,0.5-0.1,0.6,0.2c0.1,0.2-0.5,1.3-0.6,1.5c-0.4-0.4-1.1-0.2-1.6,0.1c-0.3,0.2-0.4,0.1-0.3,0.4
		c0,0.5,0.5,0.3,1,0.4c0.5,0,0.6,0.1,0.9,0.4c0.3,0.2,0.4,0.5,0.7,0.6c0.5,0.1,1.5-0.3,1.7,0.2c-0.4,0.1-1,0.1-1.4,0.2
		c-0.4,0.2-0.4,0.8-0.7,1.1c-0.5,0.7-2.1,1-3,1.4C79.4,105,77.2,105.9,75.1,106.9c0.2,0,0.2-0.1,0.2-0.2c-0.2,0-0.9,0-0.8,0.3
		C74.5,107.2,75,107.1,75.1,106.9C76,106.7,75,107.1,75.1,106.9z M34.8,125.8c0-0.1,0-0.3,0-0.4c-0.2,0-0.6,0-0.7,0.1
		c-0.1,0.1-0.3,0.3,0,0.3c0.4,0,0.6-0.5,0.7-0.7c0,0.4,0.2,0.5,0.6,0.3c0,0,0.7-0.3,0.2-0.3C35.2,125,35,125.5,34.8,125.8
		C34.8,125.7,35.1,125.1,34.8,125.8z M39.6,123.3c-0.6,0.2-1.1-0.3-1.3,0.6c0-0.4-1-0.1-1.4-0.1c0.1,0.2,0.1,0.5,0.2,0.7
		c0.7-0.3,1-0.8,1.7-0.8c0.2,0,0.3,0,0.5,0C39.5,123.6,39.6,123.4,39.6,123.3c0.1,0,0.2,0,0.4,0c0.5-0.2,0.4-0.4,1.1-0.4
		c0.4,0,0.4,0,0.7-0.2c0-0.2,0.1-0.3,0.4-0.3c0.2,0,0.4,0,0.6,0c0-0.1,0-0.8-0.1-0.8c0,0-0.7,0-0.7,0.1c-0.1,0.1,0.1,0.5,0,0.7
		c-0.1,0.2-0.2,0.1-0.5,0.1c-0.1,0-0.3-0.1-0.5,0c-0.2,0.1-0.2,0.4-0.4,0.5C40.1,123,39.7,122.6,39.6,123.3
		C39.2,123.4,39.7,122.6,39.6,123.3z M32.2,126c0,0.1,0,0.3,0,0.4c0.2,0,1.8-0.2,1.1-0.5c-0.4-0.2-1,0.4-1.1,0.7
		c0-0.4-0.2-0.5-0.6-0.3c0,0-0.7,0.3-0.2,0.3C31.9,126.7,32.1,126.3,32.2,126C32.2,126.1,32,126.7,32.2,126z M46.2,120.2
		c0.6-0.2,1.1,0.3,1.3-0.6c0,0.4,1,0.1,1.4,0.1c-0.1-0.2-0.1-0.5-0.2-0.7c-0.5,0.3-1,0.8-1.5,0.9c-0.3,0-0.4-0.1-0.7,0
		C46.3,119.9,46.2,120.1,46.2,120.2c-0.1,0-0.2,0-0.3,0c-0.2,0.1-0.4,0.1-0.5,0.2c0,0.2,0,0.3-0.2,0.3c-0.1,0-0.1,0-0.2,0
		c-0.6,0.1-0.8,0-0.9,0.7c0-0.4-0.2-0.5-0.6-0.3c-0.2,0-0.3,0-0.3,0.2c0,0.2,0.1,0.2,0.2,0.1c0.2,0,0.3-0.2,0.5-0.3
		c0.2-0.1,0.3-0.1,0.6-0.1c0.1,0,0.3,0.1,0.5,0c0.2-0.1,0.2-0.4,0.4-0.5C45.7,120.5,46.1,120.9,46.2,120.2
		C46.6,120.1,46.1,120.9,46.2,120.2z M36.5,124.1c-0.2,0-0.4,0.7-0.2,0.9C36.6,125.3,36.5,124.3,36.5,124.1
		C36.4,124.1,36.5,124.4,36.5,124.1z M49.5,118.5C49.2,118.5,49.5,119.4,49.5,118.5C49.4,118.5,49.5,118.6,49.5,118.5z M50.4,118
		C50,118,50.4,119,50.4,118C50.3,118,50.4,118.2,50.4,118z"/>
	<path id="XMLID_111_" class="st1" d="M222.8,126c-1.1-0.7-0.5-1.6-0.9-2.6c-0.2-0.6-0.4-0.5-1.1-0.5c-0.6,0-0.4,0.1-0.6-0.4
		c-0.2-0.4,0-1-0.1-1.4c-0.3-1,0.1-0.1-0.2-0.4c-0.2-0.3-0.3,0.1-0.6-0.4c-0.2-0.4,0-1,0.2-1.5c0.6-1.3,1.5-1.6,2.6-2.3
		c1-0.6,2-1.3,3.1-1.8c0.5-0.2,1-0.4,1.5-0.6c0.7-0.2,1-0.6,1.6-0.9c1-0.6,2.1-0.8,3.1-1.1c1.3-0.4,2.5-1.1,3.8-1.6
		c1.2-0.4,2.4-0.8,3.6-1.1c1.4-0.4,2.8-1,4.2-1.5c2.7-1,5.5-1.5,8.1-2.4c2.8-1,5.7-1.7,8.7-2.3c1.1-0.2,2.1-0.8,3.2-1.1
		c1.5-0.4,3-0.8,4.6-1.2c2.8-0.7,5.5-1.6,8.2-2.3c1.3-0.4,2.7-0.5,4.1-0.8c1.4-0.4,2.8-1,4.3-1.3c0.6-0.1,1.1-0.3,1.7-0.5
		c0.6-0.1,1,0,1.5,0.2c0.2,0,0.9,0.1,1,0.3c0.1,0.1,0,0.8,0,0.9c0,0.6,0.1,1.5-0.2,2c-0.1,0.2-0.5,0.4-0.6,0.7c-0.1,0.2,0,0.4,0,0.6
		c-0.1,0.5-0.8,0.7-1.4,0.9c-1.4,0.3-2.8,0.2-4.1,0.5c-0.4,0.1-1.6,0.5-1.8,0.9c0,0.1,0,0.5,0,0.5c0,0.6-0.1,0.4,0.3,0.7
		c0.1,0,0.2,0,0.4,0.1c0.4-0.1,0.5,0.1,0.5,0.4c0.1,0.2,0.1,0.6,0.2,0.7c0,0.2,0.3,0.9,0.3,1.1c-0.1,0.2-0.6,0.6-0.8,0.7
		c-2,1.5-4.8,1.7-7.1,2.3c-5.6,1.5-11.2,3.5-16.7,5.4c-3.1,1-6,2.3-9.1,3.1c-1.5,0.4-2.9,1-4.4,1.5c-1.4,0.5-3,0.8-4.4,1.2
		c-1.5,0.4-2.8,1.1-4.3,1.6c-1.5,0.5-3,0.7-4.4,1.2c-0.8,0.3-1.4,0.6-2.2,0.7c-0.6,0.1-1.3,0.3-1.9,0.6c-0.6,0.2-1.2,0.5-1.9,0.6
		C224,125.5,223.5,125.5,222.8,126C221.5,125.1,223,125.8,222.8,126z"/>
	<path id="XMLID_110_" class="st1" d="M162.2,98.5c-1.8,1.3-3.8,1.9-5.2,3.7c-0.4,0.5-0.9,0.6-1.6,0.9c-0.7,0.3-1.4,0.5-2,0.8
		c-1.2,0.5-2.3,1.2-3.4,1.9c-1,0.7-2.3,1-3.4,1.6c-1.2,0.6-2.3,1.4-3.4,2c-1.2,0.6-2.3,1.4-3.4,2.1c-1.3,0.8-2.7,1.4-4.1,2
		c1.1,1.2,2.1,2.3,3.2,3.5c0.3,0.3,0.8,0.7,1,1.1c0.1,0.3,0,0.8,0,1.1c0,0.3,0,0.7,0,1c0,0.6,0,0.7,0.5,1c0.5,0.4,1.7,1,1.7,1.6
		c0,0.3-0.2,0.7-0.4,1c-0.2,0.2-1,0.9-1.3,0.9c-0.2,0-0.5-0.4-0.7-0.4c-0.1,0.1-0.3,0.2-0.4,0.3c-0.1-0.1-0.3-0.3-0.4-0.4
		c-0.1,0.4-0.4,0.7-0.8,0.9c-0.2,0.1-0.5,0.3-0.7,0.3c-0.4,0.1,0.1,0.3-0.5-0.2c-1-1-1.9-2.4-2.7-3.6c-0.4-0.5-0.8-1.3-1.2-1.6
		c-0.4-0.3,0.1-0.3-0.6-0.1c-0.2,0.1-0.5,0.4-0.7,0.4c-0.4,0-1-0.9-1.3-1.3c-0.2-0.3-0.4-0.5-0.6-0.8c-0.4-0.5-0.3-0.6-0.9-0.4
		c-0.6,0.2-1.2,0.8-1.7,1.1c-0.6,0.4-1.1,0.7-1.7,1.1c-1.2,0.8-2.4,1.5-3.5,2.3c-2.3,1.5-4.6,2.9-6.8,4.5c-2.2,1.6-4.4,3.2-6.6,4.8
		c-0.9,0.7-1.9,1.8-3.1,1.8c-0.3,0-1.6,0.2-1.9,0c-0.2-0.1-0.5-1.4-0.5-1.6c0-0.5,0.2-0.9,0.3-1.3c0-0.6-0.1-1,0.4-1.4
		c0.9-0.8,2-1.3,2.9-2c0.9-0.8,1.8-1.5,2.8-2.2c0.9-0.6,1.7-1.4,2.6-1.9c0.4-0.2,0.9-0.2,1.2-0.5c0.5-0.3,0.9-0.8,1.4-1.2
		c1-0.8,2.1-1.4,3.2-2c2.1-1.3,4-2.9,6.2-4.1c0.5-0.3,1-0.5,1.4-0.9c0.1-0.1,0.5-0.5,0.5-0.6c0-0.1-0.4-0.5-0.5-0.6
		c-1-1.2-1.9-2.3-2.9-3.5c-0.9-1.1-1.7-2.1-2.6-3.2c-0.4-0.5-0.9-1-1.3-1.6c-0.4-0.5-1-1-1.3-1.6c-0.1-0.3-0.4-1.1-0.4-1.4
		c0,0,0.3-0.6,0.3-0.6c0.3-0.4-0.2-0.2,0.4-0.4c0.5-0.1,1.3,0,1.8,0c0.8,0,1.2-0.3,1.9-0.7c0.6-0.3,0.8-0.2,1.5,0
		c0.4,0.2,0.9,0.3,1.3,0.6c1.1,0.6,1.9,1.7,2.7,2.6c0.4,0.5,0.8,0.9,1.3,1.4c0.4,0.4,1,0.9,1.3,1.4c0.2,0.3-0.1,0.3,0.2,0.6
		c0.3,0.2,0.5,0.1,0.7,0.4c0.1,0.2,0,0.3,0.2,0.5c0.2,0.1,0.4,0.1,0.6,0.2c0.2,0.2,0.2,0.6,0.4,0.9c0.1,0.2,0.4,0.5,0.6,0.6
		c0.4,0.2,0.4,0.1,0.9-0.1c2.6-1.3,5-3.1,7.5-4.5c2.6-1.4,5.2-2.7,7.9-4c1.2-0.6,2.4-1.3,3.7-1.7c1.4-0.5,2.5-0.5,3.9-0.5
		c0.5,0,0.9-0.1,1.4-0.3c0.3-0.1,0.5-0.3,0.7-0.4c0.1-0.1,0.5-0.6,0.6-0.6c0.4-0.2,1.4,0.2,1.8,0.3C161.1,97.6,161.7,98,162.2,98.5
		C160.3,100,161.1,97.4,162.2,98.5z"/>
	<path id="XMLID_109_" class="st1" d="M104,174.5c-0.4,0.4-0.5,0.5-1.2,0.5c-0.4,0-1,0.1-1.4,0c-0.6-0.2-0.3,0.1-0.4-0.5
		c0-0.3,0-0.6,0-0.9c0-0.5,0.2-1.5-0.4-0.9c-0.7,0.8-0.9,1.9-1.4,2.7c-0.4,0.6,0.1,0.2-0.3,0.4c-0.2,0.1-0.5,0-0.6,0
		c-0.2,0-0.5,0-0.8,0c-0.4-0.1-0.3,0-0.5-0.4c-0.5-0.9,0.1-1,0.4-1.8c0.2-0.6,0.5-1.5,0.5-2c0-0.5-0.2-1-0.3-1.6
		c0-0.6,0.1-0.8,0.3-1.4c0.5-1.1,1-2.3,1.5-3.4c4-8.9,8.6-17.5,13.3-26c2.5-4.5,5.2-8.9,7.9-13.3c0.3-0.5,0.6-1,1-1.5
		c0.2-0.3,0.3-0.6,0.5-0.9c0.3-0.3,0-0.3,0.6-0.3c0.5-0.1,0.9,0.1,1.4,0c0.6-0.1,1-0.6,1.5-1.1c0.3-0.3,0.7-0.9,1.1-1.1
		c0.5-0.3,0.3-0.3,0.8,0c0.3,0.1,0.5,0.3,0.8,0.4c0.5,0.3,0.7,0.3,1.2,0.1c0.5-0.2,1.4-0.7,1.9-0.7c1.1,0,1.2,1.8,0.9,2.6
		c-0.4,1.1-1.4,2.2-2,3.2c-1.4,2.1-2.8,4.2-4.2,6.3c-2.7,4.1-5.2,8.3-7.7,12.5c-2.7,4.7-5.3,9.4-7.9,14.2c-1.3,2.4-2.5,4.8-3.8,7.2
		C105.4,169.3,104.2,171.7,104,174.5C103.8,174.6,104.1,172.7,104,174.5z"/>
	<path id="XMLID_7_" class="st1" d="M154.5,162.4c0.4-0.1,0.8,0,1.2,0c0.5,0,0.8-0.2,1.2-0.4c0.7-0.3,1.5-0.1,2.2-0.1
		c-1.1,0.9-2.2,1.9-3.5,2.4c-0.7,0.2-1.3,0.2-2,0.3c-0.9,0.1-1.9,0.6-2.7,0.9c-1.6,0.6-3.3,1.2-5,1.7c-0.8,0.2-1.5,0.4-2.3,0.6
		c-0.7,0.3-1.4,0.7-2.1,1c-3.4,1.4-7,2.4-10.5,3.6c-3.3,1.2-6.6,2.2-9.9,3.4c-1.5,0.6-3.2,1.7-4.8,1.1c-0.2-0.1-0.8-0.3-0.9-0.5
		c-0.1-0.2,0-0.8,0-1c0-0.4-0.1-0.9,0.1-1.1c0.2-0.3,0.9-0.7,1.1-0.9c-0.3-0.2-1.3-0.6-1.4-0.9c-0.1-0.3,0.2-1.2,0.3-1.5
		c0.1-0.5,0.1-1.2,0.4-1.5c0.4-0.4,1.3-0.7,1.8-1c2-1.1,4.1-1.4,6.1-2.3c1.1-0.5,2.1-1,3.1-1.4c1.2-0.4,2.4-0.7,3.5-1.2
		c2-0.9,4.1-1.4,6.2-2.2c4.5-1.8,9-3.3,13.6-4.7c1-0.3,2-0.5,3.1-0.7c1.1-0.2,2-0.7,3-1.1c2-0.8,4.3-1.6,6.4-2
		c1.2-0.2,2.3-0.5,3.4-1c0.9-0.4,2.3-1,3.1-0.3c0.3,0.3,0.4,0.6,0.4,1c0,0.2,0.1,1,0,1.1c-0.2,0.3-1.5,0.5-1.9,0.6
		c-0.6,0.2-1,0.5-1.4,0.1c-0.1,0.2-0.5,0.8-0.6,0.9c-0.2,0.1-0.6,0-0.8,0c-0.4,0-1,0.1-1,0.7c0-0.2-1.5-0.1-1.7-0.1
		c0,0.5,1.9,0,2.3-0.1c0.4-0.1,0.6-0.2,1-0.3c0.3-0.1,0.5-0.1,0.9-0.1c1,0,1.9-0.4,2.8-0.7c0.2-0.1,0.5-0.2,0.7-0.3
		c0.3-0.3,0.4-0.2,0.5,0.1c0.2,0.2,0.3,0.6,0.3,0.9c0.1,0.4,0.1,0.9,0.1,1.3c0,0.7-0.2,0.7-0.8,0.9c-0.9,0.3-1.8,0.6-2.7,0.9
		c-1.9,0.6-3.9,0.9-5.7,1.7c-0.9,0.4-1.7,0.7-2.7,0.9c-0.9,0.2-1.8,0.3-2.7,0.6c-0.3,0.1-0.6,0.2-0.9,0.2c-0.3,0-0.5-0.1-0.8,0
		C154.7,162.1,154.6,162.3,154.5,162.4c-0.2,0-0.4,0-0.7,0c-0.4,0-0.7,0.1-1.1,0.2c-0.7,0.3-1.3,1-2,1.1c-0.4,0.1-0.7,0-1.1,0.1
		c-0.1,0.1-0.2,0.2-0.3,0.3c-0.2,0-0.3,0-0.5,0c-0.3,0-0.6,0-0.9,0.1c-0.3,0.1-0.3,0.3-0.6,0.4c-0.4,0.1-1-0.1-1,0.6
		c0-0.2-1.5-0.1-1.7-0.1c0,0.4,2,0,2.4-0.1c0.2,0,0.3-0.1,0.4-0.2c0.3-0.2,0-0.2,0.5-0.3c0.2-0.1,0.5,0.1,0.8,0
		c0.2-0.1,0.3-0.2,0.5-0.3c0.4-0.2,0.9,0,1.4-0.2c0.4-0.2,0.5-0.4,1-0.4C152.7,163.7,153.7,163.2,154.5,162.4
		C155.3,162.3,153.6,163.4,154.5,162.4z M143.8,165.2c-0.3,0.4-0.9,0.5-0.8,1.2c0.4,0,0.9-0.1,1.3-0.1
		C144.1,165.9,143.9,165.6,143.8,165.2C143.4,165.7,144,165.7,143.8,165.2z M141,167.2c0-0.1,0-0.3,0-0.4c-0.3,0-1.6,0-1.6,0.2
		C139.4,167.3,140.7,167.2,141,167.2C141,167,140.4,167.2,141,167.2z M160.3,156.4c0,0.1,0,0.3,0,0.4c0.5,0,1.1-0.1,1.6-0.1
		C161.8,156.2,160.7,156.4,160.3,156.4C160.3,156.5,160.8,156.4,160.3,156.4z M141.5,166.4c0,0.1,0,0.3,0,0.4
		C142.4,166.6,142.4,166.4,141.5,166.4C141.6,166.6,141.8,166.4,141.5,166.4z M138.1,167.3c0,0.1,0,0.2,0,0.4
		C138.9,167.5,139,167.3,138.1,167.3C138.1,167.4,138.3,167.3,138.1,167.3z"/>
	<path id="XMLID_102_" class="st1" d="M3.8,138.8c-1.1,0.8-2.5,0.5-3.8,0.6c0-0.3-0.2-1.3,0-1.6c0.2-0.3,1.1-0.4,1.4-0.4
		c1-0.2,2.1-0.4,2.9-1.2C4.2,137.1,4,137.9,3.8,138.8C2.6,139.6,4,137.9,3.8,138.8z"/>
	<path id="XMLID_101_" class="st1" d="M12.2,191.3c0,0.7,0.1,1.6,0,2.4c-0.1,0.5-0.1,0.4-0.6,0.6c-0.2,0.1-0.7,0.3-0.9,0.3
		c-0.2,0-0.6-0.3-0.7-0.4c-0.4-0.3-0.3-0.4-0.3-0.9c0-0.8,0-1.6,0-2.4C10.5,191,11.3,191.2,12.2,191.3
		C12.2,192.2,11.3,191.2,12.2,191.3z"/>
	<path id="XMLID_100_" class="st1" d="M236.7,75.8c0.3,0.5,1,1.4,1,1.9c0,0.2-0.4,1.1-0.6,1.2c-0.2,0.1-0.9,0-1,0
		c-0.6-0.1-1.5-0.3-1.8-0.8c-0.5-0.8,1.1-1.1,0.5-1.6C235.3,76.2,236,76,236.7,75.8C237,76.4,235.8,76,236.7,75.8z"/>
	<path id="XMLID_99_" class="st1" d="M354.8,88.9c0-0.5-0.2-1.9,0.2-2.1c0.3-0.1,0.9,0,1.2,0c0.1,0,0.2,0,0.4,0
		c0.3-0.1,0.4,0,0.4,0.2c0.3,0.6-0.2,1-0.6,1.3C355.7,88.7,355.6,88.9,354.8,88.9C354.8,88.1,355.2,88.9,354.8,88.9z"/>
	<path id="XMLID_97_" class="st1" d="M238,59.5c0.1-0.4,0.2-0.7,0.3-1.1C238.6,59.1,238.5,59,238,59.5
		C238.2,58.9,238.4,59.2,238,59.5z"/>
	<path id="XMLID_96_" class="st1" d="M184,119.4c0.5-0.2,2.1-1,2.3-0.2c0.1,0.2-0.2,0.8-0.2,1.1c-0.1,0.5-0.2,1-0.3,1.5
		c-0.3-0.9-1.2-1.1-1.8-1.7c-0.2-0.2-0.6-0.5-0.6-0.8C183.2,118.7,183.7,119.1,184,119.4C184.7,119.1,183.8,119.2,184,119.4z"/>
	<path id="XMLID_95_" class="st1" d="M206.8,176c0.8,0,1.6,0,2.5,0C208.5,176.5,207.7,176.3,206.8,176z"/>
	<path id="XMLID_94_" class="st1" d="M212.4,175.8c-0.5,0-1,0-1.5,0c-0.2,0-1.3,0.1-1.1-0.2c0.2-0.3,2.3-0.1,2.6-0.1
		C212.4,175.6,212.4,175.7,212.4,175.8C211.6,175.8,212.4,175.7,212.4,175.8z"/>
	<path id="XMLID_93_" class="st1" d="M153.3,133.4c0.5-0.4,0.9-0.8,1.4-1.2c0.2,0.3,0.3,0.6,0.5,0.9
		C154.5,133.2,153.9,133.3,153.3,133.4C153.9,132.8,154.1,133.3,153.3,133.4z"/>
	<path id="XMLID_92_" class="st1" d="M156.6,132.3c-0.1,0-1.3,0.1-1.2-0.1c0.1-0.2,0.8-0.2,1.2-0.3
		C156.6,132.1,156.6,132.2,156.6,132.3C156.2,132.3,156.6,132.2,156.6,132.3z"/>
	<path id="XMLID_91_" class="st1" d="M225.5,95.4c-0.1,0.3,0.2,0.8-0.4,0.9C225.1,96,224.8,95.4,225.5,95.4z"/>
	<path id="XMLID_90_" class="st1" d="M225,96.3c-0.1,0.3,0.2,0.8-0.4,0.9C224.7,96.8,224.4,96.3,225,96.3z"/>
	<path id="XMLID_89_" class="st1" d="M224.7,97.2c-0.2,0.2-0.2,0.4-0.4,0.2C224.3,97.3,224.5,97,224.7,97.2
		C224.6,97.3,224.6,97.2,224.7,97.2z"/>
	<path id="XMLID_88_" class="st1" d="M206,176.8C206,175.9,206.3,176.8,206,176.8C206,176.7,206.1,176.8,206,176.8z"/>
	<path id="XMLID_87_" class="st1" d="M246.8,136c0.3,0,1.3-0.2,1.3,0.1c0,0.3-1,0.3-1.3,0.3C246.8,136.2,246.8,136.1,246.8,136
		C247.2,136,246.8,136.1,246.8,136z"/>
	<path id="XMLID_86_" class="st1" d="M214.6,141.7c0.5-0.1,0.9-0.2,1.3,0.2c-0.4,0.1-0.9,0.1-1.3,0.2
		C214.6,141.9,214.6,141.8,214.6,141.7C214.8,141.6,214.6,141.8,214.6,141.7z"/>
	<path id="XMLID_85_" class="st1" d="M328.6,117.6c0.2-0.2,0.2-0.4,0.4-0.2C328.9,117.5,328.7,117.7,328.6,117.6
		C328.7,117.5,328.6,117.6,328.6,117.6z"/>
	<path id="XMLID_84_" class="st1" d="M286.4,123.2c0.1-0.1,0.2-0.2,0.3-0.4C286.9,123.1,286.5,123.4,286.4,123.2
		C286.5,123.1,286.4,123.3,286.4,123.2z"/>
	<path id="XMLID_83_" class="st1" d="M67.5,148.5c-1.2,1.2-2.7,1.9-4.4,2.2c0.6-0.6,1.4-1,2.1-1.4C66.1,148.8,66.5,148.6,67.5,148.5
		C66.6,149.3,67.1,148.6,67.5,148.5z"/>
	<path id="XMLID_82_" class="st1" d="M63.2,151c-1,0.3-1.9,0.7-2.9,1C60.9,150.8,62.1,150.9,63.2,151z"/>
	<path id="XMLID_81_" class="st1" d="M69.7,147.6c-0.5,0.8-1.3,0.9-2.2,0.9C68,147.7,68.8,147.6,69.7,147.6z"/>
	<path id="XMLID_80_" class="st1" d="M71,147.2c-0.2,0.8-0.9,0.3-1.3,0.4C69.9,146.8,70.5,147.4,71,147.2z"/>
	<path id="XMLID_79_" class="st1" d="M70.9,147.2c0.2-0.2,0.2-0.4,0.4-0.2C71.2,147.1,71.1,147.3,70.9,147.2
		C71,147,70.9,147.2,70.9,147.2z"/>
	<path id="XMLID_78_" class="st1" d="M72.7,146.2C71.8,146.2,72.7,145.9,72.7,146.2C72.6,146.2,72.7,146.1,72.7,146.2z"/>
	<path id="XMLID_77_" class="st1" d="M47.5,119.6c0.4-0.2,0.8-0.4,1.2-0.6c0.1,0.2,0.1,0.5,0.2,0.7c-0.5,0.1-0.9,0.1-1.4,0.2
		C47.5,119.7,47.5,119.7,47.5,119.6C47.8,119.4,47.5,119.7,47.5,119.6z"/>
	<path id="XMLID_76_" class="st1" d="M41.8,122.4c0-0.5-0.1-0.8,0.4-0.9c0.5-0.1,0.4,0.3,0.5,0.8C42.4,122.4,42.1,122.4,41.8,122.4
		C41.8,122.1,42.1,122.4,41.8,122.4z"/>
	<path id="XMLID_75_" class="st1" d="M38.3,123.9c-0.4,0.2-0.8,0.4-1.2,0.6c-0.1-0.2-0.1-0.5-0.2-0.7c0.5-0.1,0.9-0.1,1.4-0.2
		C38.3,123.7,38.3,123.8,38.3,123.9C37.9,124.1,38.3,123.8,38.3,123.9z"/>
	<path id="XMLID_74_" class="st1" d="M44,121.1c0.2-0.8,0.9-0.3,1.3-0.4C45.1,121.5,44.4,120.9,44,121.1z"/>
	<path id="XMLID_73_" class="st1" d="M47.5,119.8c-0.2,0.8-0.9,0.3-1.3,0.4C46.4,119.4,47,120,47.5,119.8z"/>
	<path id="XMLID_72_" class="st1" d="M32.2,126c0.3,0,1.3-0.2,1.3,0.1c0,0.3-1,0.3-1.3,0.3C32.2,126.2,32.2,126.1,32.2,126
		C32.6,125.9,32.2,126.1,32.2,126z"/>
	<path id="XMLID_71_" class="st1" d="M41.8,122.4c-0.2,0.8-0.9,0.3-1.3,0.4C40.7,122,41.4,122.6,41.8,122.4z"/>
	<path id="XMLID_70_" class="st1" d="M38.3,123.7c0.2-0.8,0.9-0.3,1.3-0.4C39.4,124.1,38.7,123.5,38.3,123.7z"/>
	<path id="XMLID_69_" class="st1" d="M75.3,107.1c-0.2,0-0.8,0.2-0.9-0.1c0-0.3,0.6-0.3,0.8-0.3C75.3,106.8,75.3,106.9,75.3,107.1
		C75,107.1,75.3,106.9,75.3,107.1z"/>
	<path id="XMLID_68_" class="st1" d="M32.2,126.7c-0.2,0-0.8,0.2-0.9-0.1c0-0.3,0.6-0.3,0.8-0.3C32.2,126.4,32.2,126.5,32.2,126.7
		C32,126.7,32.2,126.5,32.2,126.7z"/>
	<path id="XMLID_67_" class="st1" d="M34.8,125.8c-0.2,0-0.8,0.2-0.9-0.1c0-0.3,0.6-0.3,0.8-0.3C34.8,125.5,34.8,125.7,34.8,125.8
		C34.6,125.8,34.8,125.7,34.8,125.8z"/>
	<path id="XMLID_66_" class="st1" d="M36.5,124.1c0,0.1,0.1,1.1-0.2,0.9C36.1,124.9,36.2,124.1,36.5,124.1
		C36.5,124.4,36.4,124.1,36.5,124.1z"/>
	<path id="XMLID_49_" class="st1" d="M40.5,122.8c0,0.7-0.5,0.4-0.9,0.4C39.7,122.6,40.2,122.9,40.5,122.8z"/>
	<path id="XMLID_48_" class="st1" d="M34.8,125.1c0.2,0,0.8-0.2,0.9,0.1c0,0.3-0.6,0.3-0.8,0.3C34.8,125.4,34.8,125.2,34.8,125.1
		C35.1,125.1,34.8,125.2,34.8,125.1z"/>
	<path id="XMLID_47_" class="st1" d="M44,121.4c-0.2,0-0.8,0.2-0.9-0.1c0-0.3,0.6-0.3,0.8-0.3C44,121.2,44,121.3,44,121.4
		C43.7,121.5,44,121.3,44,121.4z"/>
	<path id="XMLID_46_" class="st1" d="M46.2,120.2c0,0.7-0.5,0.4-0.9,0.4C45.3,120,45.8,120.3,46.2,120.2z"/>
	<path id="XMLID_45_" class="st1" d="M49.5,118.5C49.5,119.4,49.2,118.5,49.5,118.5C49.5,118.6,49.4,118.5,49.5,118.5z"/>
	<path id="XMLID_44_" class="st1" d="M50.4,118C50.4,119,50,118,50.4,118C50.4,118.2,50.3,118,50.4,118z"/>
	<path id="XMLID_43_" class="st1" d="M151,163.7c1-0.9,2.1-1.4,3.5-1.3C153.6,163.4,152.4,163.9,151,163.7z"/>
	<path id="XMLID_42_" class="st1" d="M143.8,165.2c0.1,0.3,0.3,0.7,0.4,1c-0.4,0-0.9,0.1-1.3,0.1
		C142.9,165.7,143.5,165.6,143.8,165.2C144,165.7,143.4,165.7,143.8,165.2z"/>
	<path id="XMLID_39_" class="st1" d="M146.3,165.4c-0.4,0-1.7,0.1-1.7-0.2C144.9,165.2,146.3,165,146.3,165.4
		C145.7,165.4,146.3,165.3,146.3,165.4z"/>
	<path id="XMLID_38_" class="st1" d="M141,167.2c-0.3,0-1.6,0.1-1.6-0.1c0-0.2,1.3-0.2,1.6-0.2C141,166.9,141,167,141,167.2
		C140.4,167.2,141,167,141,167.2z"/>
	<path id="XMLID_37_" class="st1" d="M165.8,155.5c-0.6,0.5-0.9,0.4-1.7,0.4C164.7,155.4,165.1,155.5,165.8,155.5
		C165.7,155.6,165.4,155.5,165.8,155.5z"/>
	<path id="XMLID_36_" class="st1" d="M164.1,156.2c-0.4,0-1.7,0.1-1.7-0.2C162.8,156,164.1,155.9,164.1,156.2
		C163.5,156.2,164.1,156.2,164.1,156.2z"/>
	<path id="XMLID_35_" class="st1" d="M160.3,156.4c0.4,0,1.6-0.2,1.6,0.3c-0.5,0-1.1,0.1-1.6,0.1
		C160.3,156.7,160.3,156.5,160.3,156.4C160.8,156.4,160.3,156.5,160.3,156.4z"/>
	<path id="XMLID_34_" class="st1" d="M149.3,164.2c0.6-0.5,0.9-0.4,1.7-0.4C150.4,164.3,150.1,164.2,149.3,164.2
		C149.5,164,149.7,164.2,149.3,164.2z"/>
	<path id="XMLID_25_" class="st1" d="M147.6,164.6c0.6-0.5,0.9-0.4,1.7-0.4C148.7,164.7,148.4,164.6,147.6,164.6
		C147.7,164.5,148,164.6,147.6,164.6z"/>
	<path id="XMLID_24_" class="st1" d="M146.3,165.1c0.2-0.8,0.9-0.3,1.3-0.4C147.4,165.5,146.7,164.9,146.3,165.1z"/>
	<path id="XMLID_23_" class="st1" d="M141.5,166.4c0.9,0,0.9,0.2,0,0.4C141.6,166.7,141.6,166.6,141.5,166.4
		C141.8,166.4,141.6,166.6,141.5,166.4z"/>
	<path id="XMLID_19_" class="st1" d="M138.1,167.3c0.9,0,0.9,0.2,0,0.4C138.1,167.6,138.1,167.4,138.1,167.3
		C138.3,167.3,138.1,167.4,138.1,167.3z"/>
</g>
</svg>
